<?xml version="1.0" standalone="no"?>
<!DOCTYPE svg PUBLIC "-//W3C//DTD SVG 1.1//EN" "http://www.w3.org/Graphics/SVG/1.1/DTD/svg11.dtd" >
<svg xmlns="http://www.w3.org/2000/svg" xmlns:xlink="http://www.w3.org/1999/xlink" version="1.1">
<metadata>
Created by FontForge 20170731 at Wed Oct 20 07:58:58 2021
 By Aleksey,,,
Anonymous
</metadata>
<defs>
<font id="Planner" horiz-adv-x="485" >
  <font-face 
    font-family="Planner"
    font-weight="500"
    font-stretch="normal"
    units-per-em="1000"
    panose-1="2 0 6 3 0 0 0 0 0 0"
    ascent="791"
    descent="-209"
    x-height="481"
    cap-height="682"
    bbox="-51.3684 -288.667 874.059 950.29"
    underline-thickness="50"
    underline-position="-200"
    unicode-range="U+0020-3000"
  />
<missing-glyph horiz-adv-x="500" 
d="M100 50h300v427h-300v-427zM50 0v527h400v-527h-400z" />
    <glyph glyph-name=".notdef" horiz-adv-x="500" 
d="M100 50h300v427h-300v-427zM50 0v527h400v-527h-400z" />
    <glyph glyph-name=".null" horiz-adv-x="0" 
 />
    <glyph glyph-name="nonmarkingreturn" horiz-adv-x="333" 
 />
    <glyph glyph-name="space" unicode=" " horiz-adv-x="300" 
 />
    <glyph glyph-name="exclam" unicode="!" horiz-adv-x="212" 
d="M201 686q-8 -113 -1 -268q4 -71 2 -171q0 -20 -1.5 -29t-6 -18t-15 -11t-28.5 0q-9 1 -19 3.5t-25 7t-23 13t-4 18.5q51 146 42 251q-7 96 -35 168q-11 29 -3 43.5t39 19.5q11 1 29 2t34 -6.5t15 -22.5zM221 113q-7 -18 -14.5 -31t-11.5 -18t-4 -9q0 -3 6 -8.5t8 -10.5
q10 -31 1.5 -46.5t-43.5 -16.5q-9 0 -20 1t-27 3.5t-24.5 10t-5.5 17.5q5 17 11.5 30t11 18.5t7.5 9.5t3 7t-2 5.5t-6.5 8.5t-8.5 15q-10 28 3 42t45 13q24 0 51.5 -10.5t19.5 -30.5z" />
    <glyph glyph-name="quotedbl" unicode="&#x22;" horiz-adv-x="299" 
d="M147 652q0 -23 -2 -45.5t-3 -29t1 -20.5q1 -7 9 -16.5t11 -14.5q19 -27 15.5 -44.5t-36.5 -28.5q-82 -25 -83 7q-1 33 4.5 62.5t3.5 37.5q-1 8 -27 40q-37 47 27 68q14 7 47.5 6t32.5 -22zM281 670q1 -21 0 -43t-1 -28.5t2 -20.5q2 -7 9 -21t10 -22q13 -30 6.5 -46.5
t-40.5 -21.5q-8 -1 -20 -1.5t-27.5 1t-25 7.5t-7.5 17q4 22 10 41.5t8.5 28.5t0.5 16q-1 5 -4.5 9t-11 11.5t-13.5 14.5q-40 44 23 69q9 3 20.5 5.5t26 3.5t24.5 -3.5t10 -16.5z" />
    <glyph glyph-name="numbersign" unicode="#" horiz-adv-x="674" 
d="M468 254q15 79 17 128q2 32 2 47q-89 7 -189 0q-5 -1 -14.5 -2t-14.5 -1q-9 -77 -12 -152q-1 -7 -1 -23q47 -1 141 1q12 0 35.5 1t35.5 1zM255 179q2 -68 10 -125q8 -31 3.5 -45.5t-35.5 -18.5q-77 -6 -74 22q16 147 17 160q-58 -9 -94 -21q-29 -9 -41.5 -2t-17.5 35
q-5 13 0 43t25 29q46 -2 136 -4q6 58 9 118q2 32 3 47q-78 -12 -127 -34q-26 -11 -40 -5t-21 34q-6 13 -3.5 43t22.5 31q50 1 172 7q2 66 -5 118q-4 29 5 40.5t38 10.5q12 0 26.5 -2.5t29 -11t11.5 -22.5q-13 -58 -25 -129q19 1 59.5 3.5t62.5 3.5q28 2 84 4q-5 71 -15 116
q-6 29 2.5 40.5t37.5 13.5q13 1 27.5 -1t29 -10t12.5 -22q-7 -44 -15 -134q33 1 63 3q36 2 47 -4.5t10 -38.5q0 -11 -2 -26t-10 -30.5t-21 -12.5q-46 11 -94 18q-6 -92 -11 -139q0 -3 -1 -11t-1 -11q23 2 69 8q31 8 45.5 3.5t18.5 -35.5q5 -10 1 -43t-23 -31q-43 4 -123 12
q-7 -63 -2 -106q7 -32 2.5 -46t-35.5 -18q-7 -1 -18 -1.5t-25 0.5t-23 6.5t-8 15.5q7 50 29 155q-72 4 -142 3q-36 -2 -55 -3z" />
    <glyph glyph-name="dollar" unicode="$" horiz-adv-x="473" 
d="M244 431q4 81 3 165q-35 -4 -63.5 -26t-33.5 -52q-3 -21 20.5 -41t73.5 -46zM308 322q-2 -32 -2 -48q-1 -28 -5 -89t-6 -92q37 -2 67 13.5t40 42.5q17 46 -1.5 89t-59.5 67q-11 8 -33 17zM335 666q18 -6 32 -15q60 -35 88 -139q9 -28 2 -41t-34 -18q-13 -5 -42.5 -0.5
t-30.5 24.5q-3 54 -25 87q-5 -56 -13 -168q66 -33 100 -54q37 -23 57 -72t13 -101q-7 -56 -42.5 -98.5t-83.5 -55.5q-35 -8 -65 -7q-1 -16 -1 -48v-13.5v-12t-0.5 -9.5t-1.5 -8.5t-3 -6t-5 -5.5t-7.5 -3t-10 -2h-13.5t-18 1t-24 4t-22 9.5t-6 16.5q7 33 19 97q-21 10 -27 13
q-95 49 -122 164q-10 36 -4.5 51.5t37.5 19.5q75 6 74 -22q-6 -87 58 -133q19 120 26 227q-66 23 -100 43q-38 23 -53.5 67t0.5 97q13 39 46 68.5t73 42.5q20 7 37 8q-2 31 -6 59q-5 30 3.5 41.5t36.5 12.5q13 1 27.5 -1t29 -10t12.5 -22q-8 -63 -11 -88z" />
    <glyph glyph-name="percent" unicode="%" horiz-adv-x="637" 
d="M159 480q-47 25 -51 18q-9 -17 -2.5 -36t18.5 -17q30 5 35 35zM143 587q10 7 16 10q6 4 16 8t23.5 8t24 2t13.5 -12q34 -130 -7 -178q-34 -40 -96.5 -39t-90.5 41q-17 26 -11.5 64.5t27.5 65.5q26 30 85 30zM569 203q-34 16 -47 19.5t-22 -3.5q-8 -10 0.5 -23t30.5 -17
q8 -1 19 6t19 18zM610 305q22 -7 21 -31q19 -37 15.5 -73.5t-28.5 -58.5q-37 -32 -95 -25.5t-87 46.5q-18 27 -8.5 64.5t36.5 61.5q30 26 86 24q22 30 37 17q16 -16 23 -25zM88 47l84 112t95.5 128.5t77.5 108.5q89 128 126 229q1 4 4.5 14t4.5 12.5t4 9t5 7.5t6 4t8 2
t10.5 -1.5t14.5 -3.5q10 -4 17.5 -7.5t21 -11t19 -16.5t-0.5 -18q-46 -71 -133 -190t-116 -161q-111 -158 -141 -249q-9 -28 -21.5 -34.5t-38.5 4.5q-20 9 -39.5 27t-7.5 34z" />
    <glyph glyph-name="ampersand" unicode="&#x26;" horiz-adv-x="528" 
d="M162 274l-1 -2q-1 -2 -2 -2q-71 -86 -37 -149q13 -24 50 -20.5t69 30.5q1 1 29 26q-62 62 -108 117zM397 159q52 -40 104 -64q29 -13 35 -23t-4 -37q-7 -20 -24.5 -39t-34.5 -8q-66 43 -138 108q-11 -11 -33 -31q-66 -56 -135 -55q-40 1 -76.5 26t-44.5 62
q-26 113 73 231q-47 69 -60 133q-12 61 9 121.5t73 88.5q42 22 95 27t102.5 -12.5t72.5 -55.5q31 -50 -2.5 -111t-97.5 -116q-15 -13 -46.5 -38t-46.5 -38q57 -65 105 -109q29 38 50 69q4 6 11 15.5t9.5 13t7.5 9t8 6t8.5 0.5t11.5 -3t14 -8q64 -41 43 -63
q-1 -1 -33.5 -37.5t-55.5 -61.5zM174 385q24 21 77 62t75 63q45 43 35 70q-5 15 -26 31.5t-41 17.5q-59 3 -108.5 -20t-59.5 -61q-17 -65 48 -163z" />
    <glyph glyph-name="quotesingle" unicode="'" horiz-adv-x="159" 
d="M147 663q-1 -27 -5 -57t-2 -40q1 -6 3.5 -11.5t7.5 -12.5t7 -12q15 -26 10.5 -42t-35.5 -24q-77 -18 -76 12q2 31 8 61t5 39t-24 43q-32 45 27 61q12 3 27.5 5t31.5 -3t15 -19z" />
    <glyph glyph-name="parenleft" unicode="(" horiz-adv-x="254" 
d="M254 551q-49 -33 -74 -111t-20 -183q8 -133 63 -195q3 -4 10.5 -11.5t9.5 -10t6 -8t3.5 -8.5t-1.5 -8.5t-5 -10.5t-11 -12q-60 -54 -72 -27q-78 164 -72 408q4 135 81 252q31 45 68 0q5 -7 10.5 -15.5t10.5 -20.5t3.5 -22.5t-10.5 -16.5z" />
    <glyph glyph-name="parenright" unicode=")" horiz-adv-x="198" 
d="M125 679q1 -5 10.5 -40.5t11.5 -44t10.5 -41t11 -46t9 -42.5t9.5 -47.5t7.5 -44.5t7.5 -49.5t5 -47.5q12 -134 -50 -265q-15 -32 -25.5 -38.5t-40.5 9.5q-60 44 -42 65q108 130 76 333q-24 143 -89 234q-17 23 -14.5 38t27.5 28q12 6 25.5 10.5t30 3.5t20.5 -15z" />
    <glyph glyph-name="asterisk" unicode="*" horiz-adv-x="475" 
d="M305 472q63 -46 123 -71q19 -9 25 -12t13 -10t5 -16.5t-9 -24.5q-4 -10 -12 -22.5t-22.5 -24t-24.5 -2.5q-50 43 -99 89q4 -50 11 -85q9 -30 4 -44.5t-36 -18.5q-7 -1 -18 -1.5t-25 0.5t-23 6.5t-8 15.5q3 24 8 60t8 63t5 50q-81 -59 -118 -125q-14 -26 -28.5 -29
t-37.5 15q-17 12 -31.5 34.5t1.5 34.5q49 38 172 124q-77 61 -132 86q-27 12 -31 27t13 38q12 19 33 34t35 0q72 -79 122 -126q-5 55 -25 102q-11 27 -3.5 40.5t35.5 18.5q13 6 43.5 2t29.5 -24q-3 -55 -6 -117q45 34 77 70q25 29 34 31q13 4 35 -17q5 -5 12 -13t16 -20.5
t9.5 -21.5t-7.5 -16q-35 -22 -93.5 -54.5t-79.5 -45.5z" />
    <glyph glyph-name="plus" unicode="+" horiz-adv-x="488" 
d="M50 338q101 9 198 4q-4 65 -20 110q-9 28 -0.5 40.5t36.5 16.5q11 0 27.5 0.5t31 -7t12.5 -21.5q-11 -83 -15 -142q68 -4 113 6q30 9 44.5 4t19.5 -36q6 -78 -22 -74t-56 9t-58 10.5t-45 8.5v-5q0 -65 13 -126q9 -30 4 -44.5t-36 -18.5q-7 -1 -18 -1.5t-25 0.5t-23 6.5
t-8 15.5q3 26 12.5 88.5t11.5 92.5h-4q-79 2 -140 -34q-25 -15 -39 -10.5t-25 31.5q-3 8 -5 19t-3 24t3.5 22.5t15.5 10.5z" />
    <glyph glyph-name="comma" unicode="," horiz-adv-x="189" 
d="M95 -75q-78 55 -71 95q7 31 38.5 50t67 17.5t52.5 -24.5q16 -21 17.5 -48.5t-8.5 -55t-22.5 -50t-28.5 -42.5q-11 -15 -17 -20t-14 -4t-20 12q-12 10 -22.5 26t0.5 24q5 4 14.5 10.5t13.5 9.5zM143 -17q6 26 -4.5 43t-29.5 17q-15 0 -23 -10t-2 -18q12 -17 59 -32z" />
    <glyph glyph-name="hyphen" unicode="-" horiz-adv-x="290" 
d="M12 312q33 -4 82 -12t70 -9q28 -1 72 10q30 10 44.5 5t18.5 -37q0 -9 1.5 -26t-4.5 -33.5t-19 -14.5q-35 5 -82 17t-66 13q-40 2 -83 -18q-48 -23 -59 33q-8 76 25 72z" />
    <glyph glyph-name="period" unicode="." horiz-adv-x="167" 
d="M164 83l5 -5q18 -19 -0.5 -50.5t-44.5 -37.5q-20 -3 -30 12q0 1 -2 1q-47 29 -35 43q15 17 29 26q0 6 1 9q4 38 41 25q26 -10 36 -23z" />
    <glyph glyph-name="slash" unicode="/" horiz-adv-x="340" 
d="M-19 29q126 226 186 369q58 138 69 241q1 5 2 14.5t1.5 13t2 10t3.5 8t5 5t7.5 4t11 0.5t14.5 -1q11 -1 26.5 -4t30.5 -12.5t10 -21.5q-23 -61 -49.5 -124.5t-62 -142.5t-51.5 -117q-3 -7 -18 -41t-20 -45.5t-17 -40.5t-17.5 -46.5t-13 -41.5t-11.5 -46q-5 -29 -17 -37
t-39 1q-21 6 -42 21.5t-11 33.5z" />
    <glyph glyph-name="zero" unicode="0" horiz-adv-x="542" 
d="M259 547q-56 -17 -85 -61q-51 -78 -43 -195q9 -122 76 -171q34 -25 85 -27.5t86 21.5q45 33 68 99t13 137q-10 67 -50 117t-92 65q-11 3 -25 5t-21.5 4t-11.5 6zM364 632q108 -55 152 -141q57 -110 28 -249q-14 -68 -52 -125t-93 -82q-62 -28 -137.5 -17.5t-119.5 55.5
q-58 58 -82 151t-6 185q18 95 85.5 166.5t159.5 102.5q32 11 46 1.5t19 -41.5v-6z" />
    <glyph glyph-name="one" unicode="1" horiz-adv-x="467" 
d="M344 643q-23 -174 -19 -324q4 -121 18 -201q0 -2 0.5 -5t1.5 -5q32 4 55 15q30 15 46.5 11t24.5 -38q6 -11 6 -47t-20 -35q-37 2 -96 11t-88 9q-69 0 -116 -19q-29 -11 -43 -2t-19 40q-3 25 3 52.5t27 24.5q10 -2 49.5 -8t58.5 -8q19 198 17 286q-5 106 -9 142
q-22 -16 -28 -22q-21 -20 -43 -61q-28 -51 -73 -6q-9 9 -18 23t-14 31.5t10 24.5q16 8 36.5 18t30.5 15t21.5 12.5t18.5 14.5q11 11 23 47q12 32 22 40t39 -3h3q7 2 20 0.5t26 -3.5t21.5 -10t7.5 -20z" />
    <glyph glyph-name="two" unicode="2" horiz-adv-x="495" 
d="M59 542q64 78 153.5 114.5t168.5 9.5q43 -15 68.5 -66.5t22.5 -108.5q-3 -74 -58 -152q-12 -18 -38.5 -57.5t-42 -62t-40 -55.5t-46.5 -61q32 -1 63 0q69 5 122 18q34 11 50.5 5t21.5 -41q1 -9 1.5 -21t-0.5 -28t-8 -26.5t-18 -8.5q-26 3 -63 8.5t-58 8.5t-47 5t-48 1
q-60 -5 -106 -21q-11 -10 -23 -10l-1 -1h-1q-30 -13 -45 -4t-22 41q-6 13 -2 46t22 36q260 191 310 406q7 32 -30 59.5t-77 22.5q-35 -4 -64 -30.5t-45 -64.5q-14 -32 -27 -38.5t-43 6.5q-13 7 -26 16.5t-25 25.5t1 28z" />
    <glyph glyph-name="three" unicode="3" horiz-adv-x="486" 
d="M226 407q42 0 62 -2q30 8 45 30q24 33 31 74t-7 74q-10 24 -40.5 32.5t-69.5 -3.5q-42 -15 -104 -73q-24 -22 -38 -22.5t-34 22.5q-8 10 -15.5 23.5t-11.5 31.5t11 25q52 31 76 44.5t66.5 29t73.5 12.5q78 -9 126.5 -71t42.5 -133q-6 -63 -50 -120q48 -21 70 -55
q38 -55 37 -128.5t-41 -125.5q-47 -62 -145.5 -75t-206.5 23q-20 6 -29.5 10t-16.5 11.5t-6 18t8 27.5q34 74 61 56q59 -39 100.5 -59.5t74.5 -17.5q49 4 85 41.5t42 87.5q3 28 -10.5 56.5t-36.5 43.5q-30 19 -84 6q-15 -7 -33 -15q-32 -14 -49 -6.5t-21 41.5q-5 11 -1 46
t23 34q6 5 15 6z" />
    <glyph glyph-name="four" unicode="4" horiz-adv-x="544" 
d="M470 674q-12 -166 -7 -395q11 1 33 1q38 0 49.5 -8.5t8.5 -42.5q-1 -9 -3.5 -19t-7 -25t-13 -23t-18.5 -4q-17 6 -49 16q0 -100 1 -149q1 -23 0 -37t-10.5 -20.5t-33.5 -6.5q-12 0 -28 2t-33.5 10.5t-14.5 22.5q24 107 35 197q-39 4 -79 0q-80 -10 -139 -38
q-47 -21 -60 22q-42 19 -31 39q9 16 31.5 57t31.5 58.5t21.5 46t18.5 52.5q20 77 3 144q-7 30 3 43t41 15q13 1 29.5 -1.5t32 -11t12.5 -23.5q-19 -84 -67 -243q-13 -45 -24 -87q59 -1 147 6l36 3q2 70 1 106q-8 173 -33 261q-8 31 0.5 44t38.5 17q11 1 28.5 1.5t33.5 -7.5
t15 -23z" />
    <glyph glyph-name="five" unicode="5" horiz-adv-x="461" 
d="M148 672q44 -3 94.5 -6.5t66.5 -4.5q36 -1 91 0q38 2 50 -5.5t10 -41.5q-1 -9 -2.5 -20t-6 -26t-12.5 -23t-18 -5q-31 11 -63.5 24.5t-48.5 19t-28 5.5q-27 -2 -62 -16q-11 -73 -10 -100q0 -17 3 -33q135 0 202 -86q48 -63 56 -144t-32 -149q-25 -38 -82 -56.5
t-118 -16.5q-96 3 -182 99q-21 23 -26 30.5t-3 20t21 28.5q5 4 11 8.5t17 11t20 10t18 2.5t14 -9q33 -60 62 -86.5t73 -30.5q69 -5 107 28q19 17 27.5 45.5t3.5 58.5q-16 83 -75 126q-43 33 -96 16q-3 -19 -41 -25q-1 0 -5.5 -0.5t-7.5 -0.5q-13 -3 -20 0q-51 0 -47 25
q1 8 3.5 22.5t3.5 19.5q-6 30 8 39q12 55 11 82q-2 46 -22 93q-17 41 13 55q6 16 22 16z" />
    <glyph glyph-name="six" unicode="6" horiz-adv-x="503" 
d="M121 211q16 -67 57 -94q36 -24 104 -26t108 17q25 12 36 40t4 59q-12 62 -78 112q-50 39 -98 18q-27 -12 -50.5 -32t-23.5 -28t1.5 -21.5t1 -17.5t-3.5 -11t-11.5 -9.5t-22.5 -4.5q-8 -2 -24 -2zM410 512q-47 27 -81.5 39.5t-65.5 9.5t-56 -24q-66 -55 -88 -179
q24 31 53 49q94 57 162 26q77 -37 127.5 -104t51.5 -136q2 -64 -54 -116.5t-136 -59.5q-79 -7 -144.5 17.5t-92.5 70.5q-45 84 -45 185.5t39 203.5q20 53 58 95.5t84 61.5q25 10 51.5 13t55.5 -2.5t53 -13.5t58 -21q31 -12 38 -24t-4 -40q-9 -22 -27 -42.5t-37 -8.5z" />
    <glyph glyph-name="seven" unicode="7" horiz-adv-x="511" 
d="M242 412q18 -3 41 -7.5t35 -6t23 -1.5q40 86 53 166q-142 24 -181 25q-83 2 -144 -22q-29 -12 -43.5 -3.5t-19.5 39.5q-6 14 -0.5 46.5t26.5 30.5q229 -19 240 -19q68 -3 132 10q25 7 40.5 6t21.5 -16q26 -7 43.5 -19.5t10.5 -29.5q-48 -112 -92 -202q24 0 33 -10.5
t6 -39.5q-1 -8 -3 -20t-6.5 -26.5t-12.5 -22.5t-18 -4q-17 6 -48 22q-6 -13 -18 -37q-69 -136 -92 -208q-13 -42 -21 -48q-12 -8 -41 2q-21 6 -46.5 22.5t-14.5 33.5q19 30 50.5 78.5t55 86t42.5 69.5q-10 -6 -16 -10q-52 -27 -63 37q-4 24 1 52.5t26 25.5z" />
    <glyph glyph-name="eight" unicode="8" horiz-adv-x="457" 
d="M251 413q73 81 89 131q-73 28 -133 38q-22 3 -53 -31q-20 -23 -6 -40q22 -29 103 -98zM431 518q-32 -89 -99 -161q-2 -3 -8 -9q20 -20 30 -31q31 -36 49.5 -60.5t35.5 -63t10 -66.5q-33 -129 -202 -131q-78 -2 -145 45t-63 112q1 25 18 53t31 43.5t50.5 50t45.5 43.5l8 8
q-102 88 -129 158q-17 44 36.5 102t110.5 63q11 1 22.5 1t20.5 -0.5t23 -3t20.5 -3.5t22 -5t19 -5t20.5 -6t18 -5q74 18 76 -13v-8q21 -11 13 -48q-10 -46 -34 -60zM263 292q-82 -74 -87 -79q-69 -69 -58 -95q8 -18 41 -32t71 -15q107 -2 144 34q8 8 -7 48t-38 71
q-22 29 -66 68z" />
    <glyph glyph-name="nine" unicode="9" horiz-adv-x="510" 
d="M413 547q-15 5 -36 12.5t-33.5 12t-32 10t-30.5 7t-28.5 3t-26.5 -2.5q-41 -9 -61.5 -52.5t0.5 -75.5q30 -45 104 -56.5t137 12.5q11 3 20 8q-3 54 -13 122zM521 616q-5 -42 -7.5 -134t-12 -173t-37.5 -150q-28 -72 -120.5 -106t-214.5 -28q-40 2 -52 10t-8 42
q2 13 5.5 28t14 31.5t24.5 11.5q36 -12 61.5 -19t54 -12.5t51.5 -4.5t40 8q42 17 69.5 65.5t34.5 112.5q0 9 1 14q-121 -21 -195 9q-79 32 -118 104.5t-20 141.5q12 42 61 71.5t108 34.5q34 3 94.5 -5.5t78.5 -9.5q26 0 37 -7q22 -2 37 -10.5t13 -24.5z" />
    <glyph glyph-name="colon" unicode=":" horiz-adv-x="200" 
d="M209 111q1 -7 1 -19q0 -5 -1 -8q0 -3 -2 -8q-6 -28 -30.5 -44t-52.5 -9q-25 6 -41 26.5t-14 46.5v9q1 29 22 49t50 20q26 -1 45.5 -19t22.5 -44zM136 166q1 0 1 1zM206 413q0 -7 -1 -11q0 -3 -2 -13q-1 -4 -5 -12q-3 -8 -9 -14q-21 -28 -56 -28q-29 0 -49.5 20.5
t-20.5 49.5v11q1 2 1 5t1 5q3 13 11 25q8 9 11 12q20 20 49 20t49.5 -20.5t20.5 -49.5z" />
    <glyph glyph-name="semicolon" unicode=";" horiz-adv-x="215" 
d="M209 0q-13 -31 -36 -62q-14 -20 -24 -22.5t-27 14.5q-6 6 -12 14.5t-11 21t5 16.5q24 15 30 20q-81 17 -84 61q-1 23 16 44.5t41.5 33t51.5 10.5t43 -19q39 -41 14 -112q0 -13 -7 -20zM170 70q-2 18 -14.5 31t-25.5 10q-14 -4 -21.5 -20t-0.5 -22q11 -11 62 1zM92 447
q7 17 27 13q42 14 60 -10q14 -25 4 -51.5t-33 -40.5q-18 -12 -36.5 0.5t-23.5 40.5q-27 27 -14 37q7 6 16 11z" />
    <glyph glyph-name="less" unicode="&#x3c;" horiz-adv-x="490" 
d="M470 611q-110 -94 -186 -177q-55 -64 -71 -86q26 -25 75 -70t73 -68q11 -11 46.5 -51t56.5 -54q31 -22 34 -30q6 -13 -12 -37q-13 -18 -35 -35t-33 -2q-22 29 -51.5 75t-51.5 75.5t-47 50.5q-47 40 -117 74q-12 0 -29 13q-20 9 -24 21q-32 34 -15 48q7 5 32 25l32.5 26
t27.5 22.5t29 25t24 21.5t26 25l22 24q68 76 96 136q13 26 28 30t37 -13q11 -8 20 -18t17.5 -26.5t-4.5 -24.5z" />
    <glyph glyph-name="equal" unicode="=" horiz-adv-x="438" 
d="M33 446q151 -26 212 -28q63 -2 118 11q30 9 44.5 4t19.5 -36q6 -78 -22 -74q-32 4 -105 16t-108 13q-82 2 -134 -14q-27 -9 -40 0t-15 38q-3 21 4 47t26 23zM56 299q117 -39 204 -40q57 -1 124 13q30 9 44.5 4t18.5 -36q1 -8 1.5 -18.5t-0.5 -25t-7 -23t-16 -7.5
q-30 4 -78 11t-80 10.5t-62 4.5q-95 4 -142 -3q-28 -4 -39 6.5t-9 39.5q1 23 11.5 46.5t29.5 17.5z" />
    <glyph glyph-name="greater" unicode="&#x3e;" horiz-adv-x="474" 
d="M41 77q132 68 223 152q55 49 101 112q-3 4 -12.5 18.5t-12.5 19t-11.5 17t-12 17.5t-11 15.5t-11.5 15.5t-11.5 14t-13 14.5t-12 12.5t-13.5 13q-87 80 -132 119q-22 19 -21 34t24 33q7 5 16 10.5t21 10t22.5 3t15.5 -11.5q27 -56 61.5 -98.5t85.5 -90.5q17 -16 53 -57
t54 -55q3 -2 9 -6.5l8 -6t6.5 -5t5.5 -5t3.5 -5t2.5 -5.5t0.5 -5.5t-1 -7t-3.5 -7.5q18 -23 3 -34q-26 -21 -75 -59t-82 -65t-63 -53q-9 -8 -32.5 -28.5t-36.5 -32t-32 -30.5t-34 -37q-18 -23 -33 -23t-34 22q-6 7 -11 16t-10.5 21t-4 22.5t10.5 15.5z" />
    <glyph glyph-name="question" unicode="?" horiz-adv-x="433" 
d="M177 107q18 25 31.5 27.5t36.5 -21.5q7 -7 16 -20.5t15 -30.5t-7 -22q-16 -7 -30 -10t-20.5 -3t-14.5 1t-9 1q-2 0 -4.5 -2t-9.5 -6.5t-17 -9.5q-49 -26 -57 36q-3 22 3 48t25 23q33 -7 42 -11zM21 453q-2 120 63 171q61 48 167 33q92 -14 143 -68q35 -37 45.5 -90
t-17.5 -99q-19 -25 -50 -41t-71.5 -27.5t-54.5 -18.5q-5 -2 -7.5 -4.5t-4 -7.5t-1.5 -9t1.5 -12.5t3 -16t4.5 -20.5t5 -25q8 -33 3.5 -47.5t-36.5 -18.5q-8 0 -25 -1.5t-33 4.5t-15 19q5 179 102 221q15 7 61 19.5t60 26.5q15 15 9.5 47t-28.5 52q-27 26 -68.5 39t-79.5 6
q-38 -6 -57.5 -33.5t-13.5 -63.5q7 -29 1 -41.5t-34 -17.5q-13 -5 -42 -0.5t-30 24.5z" />
    <glyph glyph-name="at" unicode="@" horiz-adv-x="680" 
d="M422 359q1 1 1 4v1q-50 20 -60 12q-15 -12 -18 -41t9 -56q9 -18 20 -3q7 10 19 37q2 5 6 14t6 12.5t4.5 8.5t5.5 7.5t7 3.5zM530 416q6 -26 9 -37.5t12.5 -28t21.5 -21.5q8 -3 19 8t16 34q15 61 -19 113q-24 38 -103 56q-124 27 -181 9q-78 -25 -129 -109
q-38 -62 -19 -133q23 -77 84 -118q62 -41 132 -54.5t126 7.5q8 3 15 10.5t11.5 12t13 4t21.5 -10.5q6 -5 13 -11.5t17.5 -19t11.5 -21t-5 -16.5q-57 -38 -140.5 -46.5t-168.5 22.5q-63 24 -114.5 74t-75.5 110q-25 60 -13 133.5t58 131.5q43 54 106 84.5t128 28.5
q94 -3 174.5 -38t121.5 -112q26 -52 14 -114.5t-51 -101.5q-22 -22 -62.5 -22t-74.5 21l-12 9q-73 -96 -122 -86q-41 8 -64.5 52.5t-25.5 97.5q-2 34 16.5 66.5t49.5 50.5q33 20 131 8q38 -6 42 -27q13 -3 16 -16z" />
    <glyph glyph-name="A" unicode="A" horiz-adv-x="541" 
d="M430 331q-1 12 -5 36q-19 119 -61 177q-27 35 -73 43t-76 -25q-87 -108 -104 -285q160 12 210 18q92 11 99 23q4 5 10 13zM23 33q-11 69 -3 152q0 1 -1.5 4.5t-2.5 5.5q-3 7 -6 18.5t-4 24.5t3.5 22.5t15.5 10.5h7q5 26 27 125q25 104 46 142q17 30 38 51q57 54 139.5 61
t121.5 -43q32 -45 56 -99t38.5 -121t21.5 -107.5t16 -119t11 -94.5q8 -32 3.5 -46.5t-35.5 -18.5q-9 0 -26 -1.5t-33.5 4.5t-15.5 19q8 104 0 210q-29 -4 -93.5 -7.5t-101.5 -8.5q-94 -12 -137 -29q1 -49 11 -98q1 -4 3 -12.5t2.5 -11.5t1 -9t0 -8t-2 -6.5t-4.5 -6.5
l-7.5 -5t-11.5 -6q-12 -5 -27 -8.5t-31.5 -0.5t-18.5 17z" />
    <glyph glyph-name="B" unicode="B" horiz-adv-x="462" 
d="M152 379q77 -10 111 13q33 23 49.5 66.5t3.5 75.5q-12 29 -54 39.5t-100 -5.5q-7 -74 -10 -189zM146 118q118 -43 168 -33q48 10 73 50t6 77q-23 46 -91 61t-152 -12v-19q0 -85 -4 -124zM60 646q48 12 78 18t69 6.5t66 -11.5q63 -26 94.5 -89.5t14.5 -125.5
q-14 -49 -56 -88q74 -35 116.5 -103t24.5 -129q-20 -66 -109 -95.5t-209 -22.5q-26 2 -36 5q-32 -52 -71 -6q-50 56 -24 74q51 34 61 193q0 1 -2 5q-5 11 -8.5 25t-1 30t14.5 21v5q-2 120 -14 190q-6 6 -14 22q-5 12 -8.5 25.5t-1.5 30t16 20.5z" />
    <glyph glyph-name="C" unicode="C" horiz-adv-x="549" 
d="M474 512q-76 78 -131 81q-46 3 -90 -8.5t-68 -35.5q-50 -50 -64.5 -130t10.5 -161q16 -55 54 -98t83 -59q75 -29 178 52q8 6 18.5 15.5t14.5 12.5t11 5t13.5 -2t16.5 -13q55 -55 29 -72q-33 -24 -51 -36t-60 -31.5t-76 -23.5q-57 -8 -112 11t-89 58q-67 75 -97.5 177.5
t-13.5 201.5q11 66 65 123t129 80q134 42 287 -51q26 -16 29 -30t-15 -37q-8 -10 -18 -18.5t-27 -16t-26 5.5z" />
    <glyph glyph-name="D" unicode="D" horiz-adv-x="600" 
d="M185 126q22 -25 55 -39q42 -16 85 -17.5t78 15.5q65 36 102.5 113.5t30.5 165.5q-5 70 -43.5 134t-97.5 99q-88 53 -240 13q4 -64 15 -205.5t15 -200.5q4 -48 0 -78zM134 722q120 7 224 -20.5t161 -96.5q75 -91 89 -223t-32 -238q-27 -65 -95 -110.5t-148 -53.5
q-100 -9 -198 53q-39 -26 -114 -19q-31 3 -39 24t15 52q13 19 34 35q-10 14 -6.5 26.5t24.5 29.5q29 25 56 31q-1 54 -10 138q-25 229 -59 298q-15 30 -8.5 45.5t37.5 25.5q43 13 69 3z" />
    <glyph glyph-name="E" unicode="E" horiz-adv-x="470" 
d="M67 687q29 0 117 -1.5t94 0.5q50 1 112 16q33 12 49.5 6t21.5 -42q1 -9 1.5 -21t-0.5 -28t-7.5 -26.5t-17.5 -8.5q-30 4 -76 12t-73.5 11t-52.5 1q-39 -2 -73 -14q-3 -107 0 -206q58 -10 93 -8q31 1 85 17q33 12 49.5 6t21.5 -43q1 -9 1.5 -21t-0.5 -28t-7.5 -26.5
t-17.5 -8.5q-26 4 -63 11.5t-60.5 11t-45.5 2.5q-27 -2 -52 -7q6 -108 13 -160q79 -10 125 -5q35 2 103 19q34 12 50.5 6t21.5 -42q1 -9 1.5 -21t-0.5 -28t-8 -26.5t-18 -8.5q-26 3 -70 10.5t-68.5 9.5t-48.5 0q-36 -3 -74 -13q1 -15 -8 -22.5t-34 -11.5q-12 -5 -49 -0.5
t-35 25.5q17 170 19 248q-25 6 -28 49q-2 20 3 47t21 32q-10 131 -38 211q-11 33 -1 49q5 27 24 27z" />
    <glyph glyph-name="F" unicode="F" horiz-adv-x="471" 
d="M187 665q53 8 112 11q48 2 128 -15q39 -8 49.5 -19.5t-1.5 -45.5q-3 -9 -8 -19t-13 -24.5t-18.5 -20.5t-20.5 0q-59 39 -90 53.5t-61 9.5q-41 -6 -92 -42q-4 -39 -10 -126q16 2 118 9q12 1 28.5 1h28.5q14 0 22.5 -2t14.5 -9.5t8 -12.5t7 -20q9 -18 5 -31t-28 -14
q-60 -3 -102 -1q-45 0 -93 -35q-8 -6 -12 -8v-5q-2 -130 10 -223q9 -39 3.5 -55.5t-40.5 -21.5q-11 -5 -48 -0.5t-35 25.5q5 62 14 137t14 127.5t5 103.5q-2 164 -19 245q-7 32 3.5 46t42.5 15q24 1 50.5 -6t27.5 -27z" />
    <glyph glyph-name="G" unicode="G" horiz-adv-x="595" 
d="M442 501q-5 34 -21 58.5t-38 23.5q-39 -1 -81 -17.5t-71 -44.5q-54 -53 -76 -127t-6 -146q11 -51 46.5 -91t80.5 -54q72 -22 185 45q8 5 17 11t15.5 10t10.5 6q8 42 2 53q-4 2 -14 2t-34 -8.5t-51 -23.5q-29 -15 -45 -8.5t-26 37.5q-8 14 -7.5 49t23.5 36q201 10 236 -91
q7 -20 7 -70.5t5 -77.5q9 -36 3.5 -52t-40.5 -21q-12 -5 -49.5 -0.5t-34.5 25.5q1 2 1 6t1 6q-209 -63 -308 20q-73 61 -97 172t6 212q16 60 68.5 112t125.5 90q85 46 152 31q42 -9 74.5 -42.5t53.5 -77.5q14 -30 8 -45t-37 -25q-14 -8 -48 -7t-37 24z" />
    <glyph glyph-name="H" unicode="H" horiz-adv-x="497" 
d="M62 387q-4 148 -24 224q-8 32 2 46t42 16q14 1 31 0t33.5 -9.5t14.5 -24.5q-18 -146 -19 -252q87 -8 149 -5q52 3 114 17q-2 130 -20 202q-8 32 1.5 46t41.5 17q14 1 31 0t33.5 -10t14.5 -25q-20 -157 -23 -278q0 -31 -1 -38v-34q2 -130 16 -214q9 -36 4 -52t-41 -21
q-12 -5 -49 -0.5t-35 25.5q23 227 25 271q-116 17 -157 14q-60 -4 -104 -19q6 -137 19 -215q10 -36 4.5 -52t-40.5 -20q-12 -5 -49.5 -1t-34.5 25q19 198 21 259q-8 11 -11 32q-4 10 -2 38t13 38z" />
    <glyph glyph-name="I" unicode="I" horiz-adv-x="434" 
d="M282 102q60 6 92 12q35 8 51 1t19 -42q1 -6 0 -20t-2.5 -29t-9 -25.5t-18.5 -8.5q-24 4 -65.5 12.5t-60.5 11.5t-44.5 6t-45.5 2q-67 -2 -127 -21q-31 -10 -45 1.5t-16 44.5q-1 14 1 31t11.5 33.5t24.5 13.5q60 -13 115 -20q-3 47 -3.5 102t0 96.5t-0.5 94.5q-1 15 -1 57
t-2 72.5t-6 58.5q-38 -5 -76 -24q-30 -14 -45.5 -5.5t-22.5 40.5q-3 14 -4 31t5.5 35t22.5 17q36 -2 121 -9q11 9 39 11q53 0 71 -18q40 1 87 12q34 11 50 5t21 -42q5 -12 0.5 -49.5t-24.5 -34.5q-2 0 -138 26q-24 -154 -19 -268q5 -108 37 -190q1 -2 4 -9.5t4 -11.5z" />
    <glyph glyph-name="J" unicode="J" horiz-adv-x="582" 
d="M163 697q177 -17 229 -16q70 2 127 15q34 11 50.5 5t20.5 -41q1 -9 1.5 -20.5t-0.5 -28.5t-7.5 -27t-17.5 -8q-36 4 -126 19q-18 -305 -51 -490q-8 -46 -66 -87.5t-121 -29.5q-30 5 -59 26t-45 39.5t-40 49.5q-2 3 -7 9q-15 19 -19.5 27.5t0 20t23.5 25.5q7 5 17 11
t24.5 13t26.5 6t17 -11q31 -66 61.5 -102.5t64.5 -30.5q29 5 43 50.5t22 126.5q24 257 -6 350q-1 1 -1 2.5t-1 2.5q-67 -4 -122 -26q-30 -12 -45 -3t-21 41q-6 15 -0.5 49.5t28.5 32.5z" />
    <glyph glyph-name="K" unicode="K" horiz-adv-x="478" 
d="M176 672q-11 -90 -9 -194q5 8 19 20q31 20 48 25q20 18 30 28q57 53 94 104q17 23 25 31t21 7t32 -17q66 -60 38 -80q-26 -18 -67 -44.5t-68 -45t-49 -37.5q16 -37 47.5 -113t48.5 -114q41 -94 78 -148q13 -19 17 -26t6.5 -18t-5 -19t-24.5 -18l-18 -9t-25.5 -10.5
t-27.5 -3.5t-15 13q-9 30 -26.5 94t-30 103.5t-29.5 75.5q-30 69 -70 114q-21 -30 -34 -57q-3 -7 -9 -17q1 -6 1 -18t1 -18q0 -5 3 -35t2.5 -38.5t-0.5 -35t-4.5 -40.5t-12 -36t-21 -41.5t-31.5 -38.5q-24 -25 -48.5 -17t-33.5 45q-6 10 -5.5 46t21.5 40q55 13 48 200
q-47 45 -20 66l15 12q-13 165 -35 237q-9 32 1 46t43 17q15 1 31 -0.5t33 -10t15 -24.5z" />
    <glyph glyph-name="L" unicode="L" horiz-adv-x="463" 
d="M178 651q-24 -193 -18 -355q4 -109 13 -179q22 -1 63 -3.5t61 -3.5q54 -1 103 12q34 11 50.5 5t21.5 -42q1 -9 1.5 -21t-0.5 -28t-8 -26.5t-18 -8.5q-34 5 -100.5 19t-96.5 14q-38 0 -66 -10q-6 -17 -41 -22h-5q-34 -19 -52 0q-13 3 -20.5 9t-6.5 16q1 18 5 54q0 10 1 14
q18 189 15 290q-7 168 -24 238q-8 32 1.5 46t41.5 17q10 1 22 0t26.5 -4t23.5 -11t7 -20z" />
    <glyph glyph-name="M" unicode="M" horiz-adv-x="604" 
d="M585 660q-18 -195 -10 -348q9 -127 31 -211q12 -34 8 -51t-39 -25q-11 -6 -48.5 -4.5t-36.5 22.5q1 41 3.5 126t2.5 115.5t-3 111.5q-4 92 -11 140q-10 -6 -42 -22t-46 -26q-31 -19 -52 -46q6 -19 -24 -44q-71 -53 -84 -23q-4 10 -15 34.5t-15 32t-12 24.5t-13 25
t-12.5 18.5t-15.5 19.5l-1 1q0 2 -1 2q-6 -99 2 -227q17 -227 19 -241q7 -36 0.5 -51.5t-42.5 -18.5q-6 -1 -20 0t-28.5 3t-25 9.5t-8.5 18.5q32 219 21 371q-12 168 -22 226q-8 14 -5 25v3q-7 33 3 46t43 15q21 0 35 -2q19 3 27 -9q18 -11 15 -27v-4q37 -78 72 -117
q11 -13 38 -38q15 8 41 21t42.5 22t29.5 18q33 22 55 61q12 21 19 29q6 23 45 27q12 1 30.5 1t35 -8.5t14.5 -24.5z" />
    <glyph glyph-name="N" unicode="N" horiz-adv-x="585" 
d="M163 685q102 -138 239 -347q12 -18 37.5 -58.5t38.5 -60.5q10 94 11 178q2 166 -17 242q-8 32 2 46t42 17q13 1 30.5 0t34 -10t14.5 -25q-28 -199 -31 -372q-2 -139 13 -223q9 -35 4 -51t-41 -21q-12 -5 -49 -0.5t-35 25.5q1 3 1 10q-36 83 -56.5 127t-55 109.5
t-69.5 116.5q-54 81 -111 136q-6 -89 -6 -217q0 -181 2 -217q2 -24 1 -39t-11.5 -21.5t-35.5 -6.5q-9 0 -20.5 1t-27.5 4.5t-25 11.5t-7 19q48 212 46 337q-2 140 -28 225q-10 32 -0.5 46t41.5 18q13 2 26 1q30 19 43 -1z" />
    <glyph glyph-name="O" unicode="O" horiz-adv-x="567" 
d="M233 662v7q1 9 2.5 20t5.5 27t12.5 25t19.5 6q66 -17 135.5 -56.5t110.5 -101.5q70 -107 56 -258q-14 -166 -113 -251q-52 -45 -126 -57.5t-145 20.5q-71 38 -104.5 129.5t-19.5 188.5q15 97 59 176.5t107 124.5zM313 570q-34 6 -71.5 -25.5t-67.5 -103.5
q-43 -101 -25 -208q8 -47 35 -82.5t65 -45.5q50 -13 98 0.5t75 46.5q43 53 59 129t-1 153q-13 56 -48.5 99.5t-83.5 67.5q-12 -35 -35 -31z" />
    <glyph glyph-name="P" unicode="P" horiz-adv-x="401" 
d="M172 607q-15 -139 -15 -264q56 9 86.5 19.5t48.5 29.5q28 30 37 72t-8 79q-18 36 -58.5 54.5t-90.5 9.5zM88 713q151 16 219 -34q52 -38 80.5 -97t23.5 -119q-7 -66 -57.5 -126t-128.5 -102q-27 -14 -39 -16.5t-26 7.5q6 -93 16 -152q9 -36 3.5 -52t-40.5 -21
q-12 -5 -49 -0.5t-35 25.5q26 266 23 366q-2 162 -22 245q-10 42 10 54q5 19 22 22z" />
    <glyph glyph-name="Q" unicode="Q" horiz-adv-x="608" 
d="M427 132q-88 -102 -189 -98q-63 3 -126.5 49.5t-83.5 103.5q-25 82 -14 171.5t51 179.5q20 47 56 84t80 56q75 32 201 -16h1q19 7 27 -5q95 -126 96 -254q2 -108 -53 -206l21 -18q51 -42 90 -76q21 -18 28.5 -27t5 -22t-21.5 -30q-6 -6 -15.5 -13.5t-24 -16t-25 -8.5
t-18.5 9q-4 8 -16 30t-15.5 28.5t-12.5 22t-14 23t-12.5 17t-15.5 16.5zM363 543q-101 66 -158 30q-71 -46 -104 -173q-32 -121 5 -196q18 -37 64 -66.5t83 -23.5q52 9 99 64q-15 6 -46 13q-59 14 -29 71q12 23 33.5 43.5t37.5 4.5q11 -11 29.5 -27.5t24.5 -22.5q9 20 15 42
q16 67 3.5 129t-47.5 108q-4 0 -10 4z" />
    <glyph glyph-name="R" unicode="R" horiz-adv-x="477" 
d="M149 351q11 1 32 3t32 4q57 57 77 25q2 -2 4 -6t4 -6q51 15 80 46.5t19 67.5q-8 31 -39.5 57.5t-72.5 37.5q-47 13 -113 -12q-17 -105 -23 -217zM157 679q118 12 184 -27q79 -46 116 -130.5t-2 -151.5q-34 -51 -113 -81q40 -82 45 -91q21 -39 60 -61q23 -14 31.5 -22
t8 -21.5t-15.5 -33.5q-5 -7 -13 -15.5t-21.5 -20t-23.5 -13t-19 6.5q-24 34 -41.5 67.5t-32 67t-22.5 48.5q-22 40 -50 60q-53 -13 -79 -23q-9 -3 -23 -9q2 -84 13 -158q10 -36 4.5 -52t-40.5 -21q-12 -5 -49.5 -0.5t-34.5 25.5q4 34 10.5 94.5t10.5 95.5t7.5 83t4.5 88
q4 163 -11 240q-7 33 3.5 46t42.5 15q28 0 50 -6z" />
    <glyph glyph-name="S" unicode="S" horiz-adv-x="479" 
d="M388 502q-68 82 -126 89q-40 4 -77.5 -12t-52.5 -44q-15 -30 -6 -54.5t38 -38.5q14 -7 85 -30.5t112 -47.5q90 -52 112 -138q14 -57 -12 -113t-74 -74q-86 -34 -186 -10.5t-172 97.5q-29 30 -29.5 48t31.5 39q7 5 18 10t26 10t27 3.5t16 -12.5q34 -97 121 -112
q53 -9 102 8t55 45q7 33 -22 75t-71 66q-30 17 -101.5 39.5t-102.5 42.5q-35 23 -48.5 72.5t2.5 97.5q13 38 46 68.5t72 42.5q74 18 147 0.5t141 -63.5q28 -19 30.5 -35.5t-19.5 -39.5q-7 -7 -15.5 -14.5t-22 -16t-24 -7.5t-20.5 9z" />
    <glyph glyph-name="T" unicode="T" horiz-adv-x="588" 
d="M16 669q184 35 335 14q30 -4 92.5 -18t95.5 -18q17 -3 22 -3.5t16 -3.5t13 -6t6 -9.5t3.5 -15t-3.5 -21.5q-2 -9 -5.5 -19.5t-10 -26t-16 -23t-19.5 -2.5q-10 4 -38 17.5t-38 18t-33 14.5t-35.5 14.5t-31 11.5t-34 10.5t-31.5 6.5q-10 -199 -9 -326q0 -137 15 -220
q9 -36 3.5 -52t-40.5 -21q-12 -5 -49.5 -0.5t-34.5 25.5q2 19 10 91.5t10.5 100t5.5 77.5t2 90q-2 148 -31 234q-54 -13 -99 -44q-28 -19 -44.5 -15t-30.5 33q-6 13 -10.5 29.5t-2.5 35t17 21.5z" />
    <glyph glyph-name="U" unicode="U" horiz-adv-x="647" 
d="M166 643q-9 -84 -13 -137.5t-3 -136t13 -148.5q9 -49 33 -87t57 -50q39 -14 88 -7t82 32q87 65 117 217q24 124 1 271q-10 37 -7 53.5t37 24.5q86 17 86 -18q2 -277 -60 -450q-20 -56 -60.5 -103.5t-92.5 -74.5q-56 -29 -120 -33.5t-117 23.5q-114 70 -143 291
q-9 62 -13.5 167.5t-8.5 141.5q-4 34 5 47t41 14q14 1 30.5 -1t32.5 -11t15 -25z" />
    <glyph glyph-name="V" unicode="V" horiz-adv-x="589" 
d="M123 663q43 -200 106 -357q31 -73 61 -130q51 102 94 220q66 182 83 235l8.5 25.5t7 15.5t11 11.5t15.5 0.5t25 -5q13 -5 27.5 -12t29 -21t6.5 -27q-121 -197 -173 -341q-6 -16 -17.5 -48.5t-19 -53.5t-17 -50.5t-16.5 -55.5q13 -25 -10 -44q-7 -32 -21.5 -40.5
t-44.5 2.5q-3 1 -11 5q-18 0 -22 12q-38 26 -24 49q3 4 5 8q-74 227 -104 303q-3 8 -21 53.5t-26 64.5t-25 53t-34 60q-17 28 -12.5 44.5t33.5 29.5q13 6 29.5 10t35 1t21.5 -18z" />
    <glyph glyph-name="W" unicode="W" horiz-adv-x="682" 
d="M124 678q-21 -176 -9 -341q12 -130 17 -164q46 32 88 74q51 50 95 108q17 23 25.5 30.5t21.5 6t32 -18.5q15 -13 31 -35.5t11 -36.5q32 -49 76 -90q5 -5 32 -30q12 108 10 229q0 83 8 235q1 12 1.5 17t1.5 13.5t2.5 11.5l4 8t6.5 6.5t9.5 3.5t13 1.5t17.5 -1.5
q13 -2 29 -6t33 -15.5t12 -25.5q-62 -171 -59 -346q2 -148 7 -201q15 -12 16.5 -22.5t-9.5 -28.5q4 -31 -8 -43.5t-44 -11.5q-5 0 -8 1q-16 -8 -26 4q-46 13 -40 39q1 5 3 13q-69 97 -107 133q-33 32 -62 50q-80 -54 -122 -94q-70 -70 -102 -120q-33 -51 -76 -5
q-12 12 -21 26q-15 7 -14 21q0 1 0.5 5t0.5 6q-2 8 1 15q18 197 10 320q-14 167 -30 231q-9 32 1 46t42 16q14 1 31 0t33.5 -9.5t14.5 -24.5z" />
    <glyph glyph-name="X" unicode="X" horiz-adv-x="633" 
d="M323 414q43 -64 108 -157q44 -62 75.5 -86.5t71.5 -23.5q42 1 55.5 -7.5t9.5 -45.5q-1 -12 -4.5 -29.5t-14 -34.5t-24.5 -12q-21 8 -41.5 19t-36.5 20t-35 26t-30.5 26.5t-30.5 32.5t-27.5 32.5t-29 38t-27.5 38.5t-30.5 44t-30.5 44q-1 1 -3.5 4t-3.5 5q-7 -10 -21 -32
q-91 -148 -118 -264q-8 -32 -22 -40.5t-44 2.5q-24 9 -46.5 28t-10.5 38q32 50 102.5 163t110.5 174q-100 133 -166 169q-30 17 -34.5 32t12.5 42q15 22 38.5 39.5t37.5 0.5q58 -68 160 -213q48 68 160 195q20 22 28 29t21.5 5t31.5 -20q6 -6 13 -14.5t16.5 -23t9 -25
t-8.5 -19.5q-132 -88 -221 -200z" />
    <glyph glyph-name="Y" unicode="Y" horiz-adv-x="499" 
d="M126 692q11 -27 28 -70t27.5 -67t21.5 -43q19 -35 66 -79q8 -6 11 -9q80 140 102 238q8 33 21.5 41t44.5 -2q14 -5 28.5 -13t26 -22.5t3.5 -28.5q-213 -341 -226 -363q-85 -144 -117 -233q-2 -4 -5.5 -14t-4.5 -13t-4 -9.5t-5 -8.5l-5.5 -5.5t-7 -3.5t-9 -0.5t-12 1.5
t-14.5 5l-7.5 3t-11 5t-12.5 6.5t-12.5 8t-11 9t-8 9.5t-3 10t3.5 10q32 48 92 134.5t87 127.5q-12 0 -16 10q-22 44 -46 103.5t-36 80.5q-28 53 -77 92q-48 39 2 77q8 6 18.5 12t24.5 11.5t26 3.5t17 -14z" />
    <glyph glyph-name="Z" unicode="Z" horiz-adv-x="553" 
d="M24 684q114 5 299 -3q115 -4 167 2q36 8 51.5 1t17.5 -43v-13q9 -14 1 -27q0 -1 -1 -2.5t-2 -2.5q-4 -18 -10 -28t-18 -9q-91 -123 -236 -286q-90 -100 -128 -152q99 -11 151 -13q79 -2 143 24q18 7 24 9.5t17 4.5t15.5 -1.5t10.5 -11.5t11 -23q25 -86 -8 -87
q-71 -2 -105.5 -1t-92 6t-84.5 6q-106 4 -169 -20q-32 -12 -46.5 -3.5t-20.5 40.5q-4 16 -2 42q-7 16 2 25q28 26 98 90t114.5 107.5t83.5 89.5q83 100 114 177q-113 24 -173 24q-101 2 -168 -35q-29 -16 -44.5 -9.5t-26.5 37.5q-8 13 -8 48.5t23 36.5z" />
    <glyph glyph-name="bracketleft" unicode="[" horiz-adv-x="274" 
d="M106 713q29 -6 54.5 -13.5t32.5 -8.5q6 -1 20 1t22 2q33 -2 43.5 -12t2.5 -42q-2 -7 -5.5 -17.5t-10 -23t-15 -19t-17.5 -0.5q-18 12 -31.5 23.5t-19 16.5t-9.5 5h-3q-20 -176 -23 -323q-2 -139 11 -227h3q5 1 17 8t20 10q28 12 43 6t19 -38q1 -7 1.5 -18t-0.5 -25.5
t-6.5 -23.5t-15.5 -7q-21 4 -38 9.5t-24 8.5t-12 1q-3 -1 -6.5 -4t-9.5 -10t-14 -14q-39 -38 -64 20q0 1 -2 6t-3 8q-15 5 -14 19q28 279 29 367q4 164 -14 247q-10 41 16 51q7 20 23 17z" />
    <glyph glyph-name="backslash" unicode="\" horiz-adv-x="392" 
d="M89 697q26 -78 88 -215t76 -170q4 -10 19.5 -48t22 -52t19.5 -41t25.5 -43.5t27.5 -29.5q5 -4 16.5 -14t13.5 -12.5t5 -10t-1 -14t-12 -17.5q-13 -18 -35 -35t-32 -2q-50 76 -106.5 221t-68.5 171q-57 121 -149 248q-17 24 -13.5 38.5t28.5 27.5q10 5 24 9.5t30.5 3
t21.5 -14.5z" />
    <glyph glyph-name="bracketright" unicode="]" horiz-adv-x="229" 
d="M44 131q15 -6 28 -13t19 -10.5t12.5 -6.5t11.5 -3q4 0 7 1.5t7 4.5t7 5q17 186 14 277q-4 122 -17 183q-12 7 -26 16.5t-20.5 13.5t-13.5 4q-6 0 -12 -1t-16.5 -4.5t-20.5 -5.5q-26 -7 -37.5 6t-8.5 42q3 23 14 47t29 16q13 -6 26 -13l19.5 -10.5t13.5 -6.5t14 -3
q7 -1 20.5 1.5t18.5 2.5q5 2 19 6q14 6 44 1t29 -26q-8 -200 -5 -359q2 -141 14 -221q8 -32 3.5 -46t-35.5 -18q-2 -1 -10 -1q-5 -8 -14 -6q-31 6 -55.5 17t-30.5 11q-3 0 -40 -11q-26 -9 -38 4t-10 42q1 22 11.5 47t28.5 17z" />
    <glyph glyph-name="asciicircum" unicode="^" horiz-adv-x="441" 
d="M254 686q54 -98 103 -160q10 -14 34.5 -45t37.5 -49q11 -14 16 -21.5t6 -16.5t-5.5 -16t-20.5 -16q-7 -4 -16.5 -8.5t-23 -9t-24 -3t-13.5 10.5q-36 121 -74 168q-23 28 -47 48q-64 -66 -83 -95q-31 -51 -40 -99q-10 -52 -61 -28q-21 10 -39.5 28.5t-4.5 33.5
q8 9 32.5 37t32.5 38t21.5 27.5t22.5 32.5q23 35 41 86q9 26 16 35.5t22 7.5q52 42 67 14z" />
    <glyph glyph-name="underscore" unicode="_" horiz-adv-x="444" 
d="M9 -4q107 -20 236 -15q51 2 155 2q19 0 27.5 -1.5t16.5 -5.5t10 -13.5t0 -26.5q-1 -9 -3 -17.5t-6.5 -23t-12.5 -21.5t-17 -4q-131 45 -228 40q-95 -5 -158 -23q-28 -7 -40 2.5t-14 38.5q-1 12 1 27t10.5 29.5t22.5 11.5z" />
    <glyph glyph-name="grave" unicode="`" horiz-adv-x="156" 
d="M52 728q11 -18 19.5 -35l13 -26t10.5 -14q5 -4 15.5 -5.5t14.5 -2.5q31 -9 38 -20.5t-7 -42.5q-2 -4 -5.5 -9t-9.5 -13t-11.5 -13.5t-12.5 -11t-12 -4.5t-11 5q-22 24 -38 50t-20 30q-7 6 -43 18q-51 19 -12 66q7 9 19.5 19t28.5 16t23 -7z" />
    <glyph glyph-name="a" unicode="a" 
d="M377 141q0 5 0.5 16t0.5 16q-20 9 -46 23.5t-39.5 21.5t-32 12t-35.5 3q-57 -6 -91.5 -37t-27.5 -54q5 -19 36.5 -33t74.5 -15q54 -1 135 35q13 5 25 12zM8 407q126 117 234 123q77 4 137.5 -52.5t72.5 -132.5q7 -50 7.5 -111.5t1 -99t8.5 -50.5q5 -7 13.5 -19t10.5 -16
t2.5 -12t-5 -14.5t-17.5 -16.5q-7 -5 -18 -11.5t-26 -14t-27 -7.5t-14 11l-6 33q-110 -27 -185 -18q-95 10 -138 67q-27 35 -29.5 80.5t21.5 81.5t74.5 60.5t110.5 30.5q16 1 36 -1t30.5 -4t40 -9.5t35.5 -8.5q-5 88 -39 135q-25 33 -103 4t-116 -84q-20 -29 -33 -33.5
t-40 12.5q-21 14 -38.5 37.5t-0.5 39.5z" />
    <glyph glyph-name="b" unicode="b" horiz-adv-x="479" 
d="M156 332q0 -30 1 -45q0 -67 6 -135q18 -6 42.5 -15t41 -15.5t35.5 -13t32 -9.5t25.5 -2.5t20.5 5.5q32 20 45.5 80t2.5 124q-8 46 -35 80.5t-61 38.5q-55 6 -141 -80q-5 -5 -15 -13zM78 362q-31 46 -5 62q1 0 2 1l2 2q0 119 -16 193q-7 33 3.5 46t42.5 15q14 1 31 -1
t33 -11.5t14 -25.5q-14 -85 -22 -171q160 69 238 7q61 -49 79.5 -139t1.5 -184q-10 -53 -46.5 -97t-89.5 -55q-19 -6 -46.5 -3.5t-44 6.5t-40 10.5t-35.5 8.5q1 -16 -8 -24t-34 -11q-12 -5 -49 -1t-35 25q25 245 24 347z" />
    <glyph glyph-name="c" unicode="c" horiz-adv-x="418" 
d="M338 312q-111 96 -162 64q-39 -22 -57.5 -74.5t-7.5 -105.5q6 -31 30.5 -58.5t55.5 -37.5q24 -9 55 1t58 31q5 4 16 13.5t14.5 11.5t11 5.5t11.5 1t11.5 -7.5t15.5 -14q57 -68 27 -84q-51 -26 -100 -40t-103.5 -10t-93.5 34q-42 32 -65 83t-24 102t11 102q14 49 56 89.5
t93 54.5q71 19 201 -47q30 -15 35 -30.5t-13 -42.5q-12 -21 -35 -38.5t-41 -2.5z" />
    <glyph glyph-name="d" unicode="d" horiz-adv-x="469" 
d="M332 332q-96 83 -175 48q-34 -14 -46.5 -62t-0.5 -101q7 -33 27.5 -60t46.5 -40q41 -21 97 17q6 4 16.5 11.5t15 10t11 5t11 1.5t10.5 -5q-2 52 9 170q-12 -3 -22 5zM450 625q1 -65 -3 -128t-12 -134t-10 -100q-8 -93 31 -153q2 -3 7 -11t6.5 -10t5 -8.5t3.5 -8.5t1.5 -7
t0 -7t-3 -6.5t-5.5 -7.5t-8.5 -7t-11.5 -8q-6 -4 -17.5 -9.5t-26.5 -11t-27 -4t-15 12.5q-4 18 -6 26q-70 -28 -143.5 -22.5t-115.5 48.5q-49 51 -66.5 127.5t-0.5 148.5q10 46 53 82.5t100 48.5q77 17 175 -19q-3 60 -26 116q-14 31 -7.5 46t37.5 24q14 8 49 6.5t36 -24.5z
" />
    <glyph glyph-name="e" unicode="e" horiz-adv-x="477" 
d="M129 303q78 -26 142 -5q43 14 74.5 38t29.5 38q-2 19 -33.5 29.5t-73.5 1.5q-95 -20 -134 -91q-1 -1 -1.5 -3t-1.5 -4zM124 181q13 -28 36 -43q61 -39 229 1q11 3 27.5 8t21.5 5.5t13.5 -0.5t13.5 -8.5t10 -22.5q5 -11 9.5 -28t2.5 -37t-17 -22q-6 -1 -36 -7t-49.5 -9
t-58.5 -6.5t-63 0.5q-76 6 -135 36.5t-83 77.5q-26 58 -17 122t46 119q60 88 190 118q38 11 85.5 2.5t74.5 -38.5q31 -37 27.5 -88t-37.5 -82q-55 -50 -132.5 -74.5t-157.5 -23.5z" />
    <glyph glyph-name="f" unicode="f" horiz-adv-x="332" 
d="M118 273q3 -130 31 -236q9 -31 -1 -45.5t-42 -16.5q-14 -1 -31 0t-33.5 9.5t-14.5 24.5q4 34 5 74.5t1.5 93t1.5 83.5q-3 4 -5 8q-7 11 -14 28t-6.5 35.5t15.5 22.5q6 2 16 4q5 49 12 94q13 73 73.5 129t145.5 76q36 10 52.5 2t18.5 -45q0 -86 -32 -81q-55 9 -92.5 3.5
t-55.5 -30.5q-35 -46 -43 -135q3 1 8 2.5t7 1.5q6 2 12 6.5t14 11t14 10.5q28 21 46.5 18.5t31.5 -37.5q30 -85 -4 -87q-27 -2 -52 -1t-32.5 2t-21.5 -2q-11 -4 -25 -23z" />
    <glyph glyph-name="g" unicode="g" horiz-adv-x="481" 
d="M374 392q-113 49 -163 8q-45 -35 -66 -96t-5 -109q10 -35 72 -43.5t123 16.5q11 5 25 14t19 10q7 108 -5 200zM491 458q-7 -43 -17 -142.5t-24.5 -192t-38.5 -175.5q-14 -48 -52 -87.5t-87 -57.5q-67 -25 -195 16q-45 14 -52 22q-10 12 0 44q5 13 11.5 27.5t21 29
t27.5 7.5q140 -78 193 -45q59 38 85 159q-133 -34 -209 3q-60 29 -82 103t-4 152q12 53 49 101t88 75q72 38 222 6q17 -5 27 -9q18 -4 29 -13t8 -23z" />
    <glyph glyph-name="h" unicode="h" horiz-adv-x="422" 
d="M159 636q1 -40 0 -118t-1 -107q20 17 44 26q74 28 143 -9.5t81 -104.5q12 -32 4.5 -140.5t-7.5 -121.5q1 -24 0.5 -38.5t-11 -21t-35.5 -6.5q-9 0 -20.5 1t-27.5 4t-25.5 11t-6.5 19q4 15 14.5 55.5t14.5 59.5t11.5 54t8.5 55.5t1 45.5t-6.5 42t-17.5 29q-8 7 -22 6.5
t-31.5 -11.5t-33 -26t-28.5 -37t-18 -44q-7 -43 -31 -47q5 -130 5 -148q2 -39 -6 -52t-44 -11q-13 1 -29.5 4t-34.5 13.5t-13 24.5q30 98 38 202q-18 17 -9 34q8 16 13 24q1 37 0 76q-3 145 -35 206q-15 29 -8 45t39 25q14 7 49 5.5t35 -24.5z" />
    <glyph glyph-name="i" unicode="i" horiz-adv-x="191" 
d="M193 484q-16 -172 -14 -268q2 -90 16 -157q11 -34 5 -50.5t-42 -20.5q-11 -5 -48.5 -1t-35.5 25q3 27 9.5 74t9.5 72t5.5 59t1.5 63q-4 104 -27 168q-11 32 -2 46.5t41 19.5q12 1 31 1.5t35.5 -7.5t14.5 -24zM178 617q-2 -17 -4 -33q-2 -20 -17.5 -33t-36.5 -12
q-20 2 -33 18t-11 36q1 17 3 33q2 20 18 33t36 12q20 -2 33.5 -18t11.5 -36z" />
    <glyph glyph-name="j" unicode="j" horiz-adv-x="411" 
d="M421 441q-14 -95 -30.5 -264t-23.5 -225q-6 -49 -37.5 -94t-80.5 -61q-54 -18 -113 -0.5t-103 63.5q-20 21 -27 32.5t-2 24t26 27.5q7 5 17 11t24.5 12.5t26.5 5.5t17 -11q25 -57 35 -66l8 -4q25 -10 53.5 -9t40.5 13q25 25 34.5 73t13.5 123q0 6 2 39t2.5 42t2 39t1 43
t-0.5 39t-1 43t-3.5 38.5t-5.5 41.5q-5 33 4.5 46.5t41.5 14.5q10 0 22 -1t26 -4t23 -11.5t7 -20.5zM403 607q-1 -16 -1 -35q-2 -20 -17 -34t-35 -13t-34 16.5t-13 35.5q0 4 0.5 15t0.5 19q1 20 16.5 34t35.5 13t34 -16t13 -35z" />
    <glyph glyph-name="k" unicode="k" horiz-adv-x="407" 
d="M157 354q23 14 36 11q23 17 30 23q34 28 75 79q18 22 26.5 29t21.5 5t31 -20q6 -6 13.5 -15t17 -24t9.5 -25t-9 -18q-23 -13 -64.5 -34.5t-64 -35t-41.5 -29.5q-1 0 -1 -1q8 -17 20 -43t21 -44t18 -33q20 -34 61 -58q23 -13 32 -21t8.5 -21.5t-16.5 -33.5
q-5 -7 -13 -15.5t-21.5 -20t-23.5 -13t-19 6.5q-31 44 -61 104t-35 69q-18 32 -40 52q-8 -12 -13 -19v-1q2 -80 12 -139q9 -36 4 -52t-41 -21q-11 -5 -48.5 -0.5t-35.5 25.5q4 37 12 103t11 95q-41 56 -10 71q3 2 8.5 5t8.5 4q2 26 4 78q4 160 -13 236q-7 32 3.5 46t42.5 15
q13 1 30.5 -0.5t33.5 -11t14 -25.5q-25 -151 -34 -283z" />
    <glyph glyph-name="l" unicode="l" horiz-adv-x="161" 
d="M169 624q-24 -189 -21 -345q2 -124 18 -213q9 -35 3.5 -51t-40.5 -21q-12 -5 -49 -1t-35 25q26 258 24 348q-4 160 -22 230q-8 32 1.5 46t41.5 16q14 1 31 0t33.5 -9.5t14.5 -24.5z" />
    <glyph glyph-name="m" unicode="m" horiz-adv-x="615" 
d="M341 411q93 51 142 39q55 -14 85 -61.5t37 -106.5q3 -30 6 -101t9 -103q9 -35 3.5 -51t-40.5 -21q-12 -5 -49.5 -0.5t-34.5 25.5q3 25 12 85t11.5 87.5t1.5 67t-10 67.5q-5 14 -21 17t-42 -9.5t-54 -40.5q-6 -6 -14 -12q1 -4 1 -11q5 -46 5 -122.5t1 -93.5q2 -24 1 -38.5
t-11.5 -21t-35.5 -6.5q-88 6 -80 37q14 56 20.5 84.5t14 75t5.5 83t-12 68.5q-5 17 -21.5 20t-42 -11.5t-52.5 -47.5q-16 -18 -23 -22q-1 -15 -2.5 -42.5t-1.5 -40.5q-2 -77 10 -133q11 -35 5.5 -51t-41.5 -21q-9 -1 -21 -1.5t-28 0.5t-26.5 8t-8.5 18q4 35 19 118t16 123
q0 82 -33 139q-16 29 -9 45t38 26q14 8 49 7t36 -24v-20q67 38 111 26q46 -13 75 -53z" />
    <glyph glyph-name="n" unicode="n" horiz-adv-x="439" 
d="M75 380q-3 12 -13 44q-11 32 -1.5 46t42.5 19q25 3 53.5 -2.5t27.5 -26.5q63 33 104 24q59 -13 92.5 -67t43.5 -123q6 -43 10 -123t10 -113q9 -35 4 -51t-41 -21q-12 -5 -49.5 -0.5t-34.5 25.5q1 11 9 72.5t9.5 82t3.5 65t-3 75.5t-15 59q-7 18 -27 21.5t-51 -13.5
t-63 -53q-8 -11 -17 -18q-3 -55 -2 -97q2 -102 8 -154q3 -23 2 -38t-11.5 -22t-35.5 -7q-10 0 -21 1t-27.5 4t-25.5 10.5t-7 18.5q16 67 22.5 95.5t12 72.5t4.5 79q0 45 -7 84q-9 19 -6 31z" />
    <glyph glyph-name="o" unicode="o" horiz-adv-x="489" 
d="M281 364q-71 18 -99 -7q-22 -22 -35.5 -58.5t-13.5 -75.5q2 -86 50 -119q24 -16 61.5 -19.5t66.5 8.5q38 17 64 54t30 80q4 41 -16.5 73.5t-53.5 44.5q-10 3 -23 6.5t-20 6t-11 6.5zM346 467q116 -57 143 -138q16 -51 8 -105t-35 -101q-25 -44 -68 -75t-93 -40
q-53 -9 -107.5 6t-82.5 49q-42 50 -54.5 124t9.5 141q23 68 86.5 110.5t143.5 47.5q41 3 50 -19z" />
    <glyph glyph-name="p" unicode="p" horiz-adv-x="409" 
d="M127 11q3 -79 15 -155q9 -36 4 -51.5t-40 -20.5q-12 -5 -49.5 -1t-34.5 25q2 17 6.5 66t6 64t5.5 62t4 60t2 59t-1 59q-4 161 -28 245q-9 32 -0.5 46t40.5 19q22 2 47.5 -1.5t32.5 -19.5q156 20 220 -47q47 -50 59 -126t-14 -138q-28 -71 -104 -111.5t-171 -33.5z
M130 341q-6 -103 -6 -200q107 -54 149 -26q33 22 52 67.5t15 93.5q-3 32 -21 59t-45 37q-42 15 -115 -21q-19 -9 -29 -10z" />
    <glyph glyph-name="q" unicode="q" horiz-adv-x="465" 
d="M463 328q-16 -134 -24 -245q-9 -135 5 -219q9 -36 4 -52t-41 -21q-12 -5 -49 -0.5t-35 25.5q6 54 19.5 143.5t17.5 126.5q-161 -49 -234 -1q-66 44 -83 133t21 161q22 45 77 76t115 32q46 0 94 -30q6 22 45 26q11 1 30 1.5t35.5 -8t14.5 -24.5q-4 -44 -11 -110
q1 -4 -1 -14zM350 291q-62 124 -131 106q-52 -12 -82.5 -57.5t-26.5 -94.5q3 -31 26.5 -55.5t55.5 -30.5q51 -8 137 37q40 23 42 24q2 38 1 57q-15 2 -22 14z" />
    <glyph glyph-name="r" unicode="r" horiz-adv-x="388" 
d="M65 358q-10 36 -27 64q-17 29 -10.5 45t36.5 27q9 3 21.5 5.5t27 3.5t25 -4.5t11.5 -17.5q2 -24 4 -68q41 22 73 34q20 8 99 30q33 12 50 6t22 -42q1 -9 1.5 -21t-0.5 -28t-8 -26.5t-18 -8.5q-16 2 -41 5.5t-36 5t-26 2.5t-25 -1t-19 -7q-30 -15 -56 -71q-9 -19 -16 -25
q0 -11 -0.5 -32.5t-0.5 -31.5q-3 -90 9 -150q10 -35 4.5 -51t-41.5 -21q-12 -5 -49.5 -0.5t-34.5 24.5q5 40 15 94.5t15.5 95t5.5 74.5q0 18 -1 26q-38 44 -14 61q2 1 4 3z" />
    <glyph glyph-name="s" unicode="s" horiz-adv-x="364" 
d="M257 324q-23 58 -31 64q-3 3 -7 3q-28 4 -72 -49q-3 -4 2.5 -7t20.5 -8.5t33.5 -13t45.5 -22.5t52 -34q39 -29 50 -82.5t-7.5 -104t-59.5 -71.5q-61 -25 -125.5 -9t-125.5 60q-24 18 -32.5 27.5t-7 23t18.5 32.5q62 62 81 34q25 -35 43.5 -53.5t42.5 -25.5
q32 -11 65.5 -4.5t36.5 23.5q5 28 -19.5 50.5t-80 53t-81.5 49.5q-41 32 -19.5 103.5t77.5 103.5q46 23 100.5 3.5t96.5 -67.5q22 -26 19 -42.5t-31 -33.5q-12 -7 -27.5 -13t-34 -5.5t-24.5 15.5z" />
    <glyph glyph-name="t" unicode="t" horiz-adv-x="321" 
d="M113 413q-6 -2 -39 -14q-58 -22 -60 47q0 9 1 21.5t4.5 27t12 23t20.5 5.5q11 -3 33.5 -10t31.5 -9q2 85 -6 118q-7 33 3 46t43 15q9 0 21.5 -1t27 -4.5t23 -12t6.5 -20.5q-15 -64 -26 -130q1 0 3 1q32 15 49 9t23 -42q6 -12 3.5 -50t-23.5 -35q-29 3 -70 12
q-12 -112 -5 -212q7 -89 30 -94q4 -2 8 2q20 17 31.5 22.5t23.5 -0.5t25 -28q4 -7 9.5 -18.5t11 -26.5t3.5 -27t-13 -14q-77 -18 -132 14.5t-69 96.5q-14 59 -8 211q2 52 4 77z" />
    <glyph glyph-name="u" unicode="u" horiz-adv-x="516" 
d="M150 431q-26 -151 -6 -231q18 -67 61 -98q23 -16 48.5 -18.5t40.5 11.5q41 45 54 134.5t-12 162.5q-4 10 -10 23t-8 18t-1.5 12.5t7 13.5t19.5 14q78 42 87 8q0 -3 2 -8t2 -7q20 -8 19 -25q0 -15 -0.5 -41.5t-0.5 -38.5q4 -38 1 -82q3 -82 14 -116q2 -9 7 -17.5t16 -22
t16 -21.5q22 -27 20.5 -45t-34.5 -34q-8 -4 -19 -7.5t-27 -8t-27.5 -1t-13.5 14.5q-6 39 -9 64q-10 -14 -16 -19q-35 -37 -82 -52.5t-88 -2.5q-50 17 -92.5 69.5t-68.5 124.5q-5 13 -8.5 27t-6 31t-4 28.5t-2.5 32.5t-1.5 30t-1 33.5t-0.5 31.5q-2 34 8.5 46t42.5 11
q14 -1 30 -4t31.5 -14t12.5 -27z" />
    <glyph glyph-name="v" unicode="v" horiz-adv-x="494" 
d="M148 481q23 -155 63 -241q20 -40 40 -72q31 56 60 129q59 148 62 158q8 22 11 30t11 16t18.5 6.5t28.5 -9.5q6 -3 13.5 -6.5t19 -11t18 -14t11 -16t-2.5 -16.5q-42 -57 -62.5 -85.5t-43 -66t-34.5 -70.5q-31 -78 -42 -140q6 -13 -4 -26q0 -1 -0.5 -3.5t-0.5 -3.5
q-4 -33 -19 -42t-46 1q-1 0 -4 1.5l-5 2.5q-27 -7 -32 10q-2 5 -4 11q-25 19 -14 38q-58 166 -74 202q-5 10 -16 35.5t-18 41t-19 38t-25 42.5q-18 28 -12 44.5t36 27.5q13 5 30 9t35.5 0t20.5 -20z" />
    <glyph glyph-name="w" unicode="w" horiz-adv-x="588" 
d="M380 392q35 -130 67 -176q6 -11 30 -39q17 51 17 99q2 55 -17 143q-10 34 -4 50.5t41 20.5q12 5 49.5 1t34.5 -25q-4 -35 -11 -89.5t-11.5 -92t-6.5 -71.5q-1 -21 -15 -118q4 -10 -2 -22q-1 -9 -3 -29q-2 -32 -17.5 -41.5t-46.5 0.5q-25 8 -48.5 25.5t-11.5 37.5q2 2 2 4
q-55 119 -68 139q-3 5 -14 22t-18 27q-14 -23 -39.5 -58t-29.5 -42q-55 -77 -73 -124q8 -17 1.5 -28.5t-32.5 -21.5q-11 -5 -28.5 -9.5t-37.5 -3t-21 15.5q-5 51 -6.5 98t0 110t1.5 82v35t-0.5 37.5t-1.5 34t-4 38.5t-7 36q-8 32 2.5 45.5t43.5 14.5q9 0 21.5 -1t27 -4.5
t23 -12t6.5 -20.5q-37 -171 -33 -272q0 -26 5 -54q54 53 78 90q29 43 31 105q0 22 1 31t6 19t16 11.5t30 -0.5q2 -1 10.5 -2t13.5 -2q43 10 49 -14z" />
    <glyph glyph-name="x" unicode="x" horiz-adv-x="409" 
d="M214 162q-61 -85 -81 -153q-10 -32 -26.5 -38.5t-44.5 8.5q-23 12 -43 33t-5 38q115 133 156 186q-68 108 -110 141q-26 21 -25 38.5t26 38.5q8 6 18.5 12t24.5 12t25.5 4t16.5 -13q48 -108 75 -162q45 65 67 127q8 22 11 29.5t11 15.5t18.5 6.5t27.5 -8.5q8 -3 18 -9
t24.5 -16t18.5 -19.5t-1 -20.5q-30 -39 -81.5 -99t-70.5 -83q3 -5 9 -14.5t8 -11.5q50 -78 86 -92q19 -7 28 -11t15.5 -11.5t5 -18.5t-10.5 -28q-9 -21 -30.5 -46t-36.5 -10q-53 54 -124 175z" />
    <glyph glyph-name="y" unicode="y" horiz-adv-x="444" 
d="M132 471q25 -48 55.5 -118.5t43.5 -95.5q20 -38 52 -64q43 123 44 237q0 33 12.5 44t44.5 7q14 -2 30 -7.5t30 -18t9 -27.5q-16 -41 -62 -167.5t-74 -192.5q-11 -26 -27.5 -58.5t-26 -49.5t-35.5 -62t-31 -54q-12 -22 -16 -27.5t-13.5 -13.5t-19.5 -4.5t-26 13.5
q-7 4 -16 11t-21.5 19.5t-14.5 22.5t4 20q106 111 159 202q-21 31 -38 63t-32.5 68.5t-24.5 53.5q-37 70 -82 99q-28 17 -29.5 35t22.5 41q10 10 24 19.5t33 15t26 -10.5z" />
    <glyph glyph-name="z" unicode="z" horiz-adv-x="465" 
d="M471 433q-83 -120 -188 -247l-69 -81q32 -5 61 -6q51 -3 109 11q34 12 50.5 6t21.5 -42q1 -9 1.5 -21t-0.5 -28t-8 -26.5t-18 -8.5q-32 5 -103.5 19t-106.5 15q-37 3 -75 -3q-18 -20 -39 -9q-3 -1 -11 -3q-58 -21 -62 43q-1 14 0 31.5t10 34t24 13.5l15 -3q48 35 74 55
t58 50t54 59q41 52 63 109q-86 19 -111 21q-61 2 -116 -24q-30 -14 -45.5 -5.5t-22.5 40.5q-2 10 -2.5 22.5t0.5 27.5t8 24.5t19 8.5q51 -3 117 -11t90 -9q50 -4 104 9q29 9 46 6.5t23 -25.5q46 -29 29 -53z" />
    <glyph glyph-name="braceleft" unicode="{" horiz-adv-x="339" 
d="M79 380q19 -4 36 -11.5t25 -6.5q5 0 19 2q1 27 5 74q6 63 16.5 103t39.5 75t78 50q50 17 52 -42q0 -13 -2.5 -27.5t-11 -28.5t-22.5 -11q-20 5 -27.5 7t-17.5 -0.5t-12.5 -3.5t-7 -14.5t-5.5 -21t-5 -35.5q-11 -69 -11 -141q15 -14 0 -45q1 -5 1 -16q3 -49 10 -91.5
t12.5 -62t6.5 -18.5q28 11 42.5 5t18.5 -37q4 -11 0 -45t-21 -29q-127 36 -139 231q0 14 -1 22q-5 6 -8.5 11.5t-5.5 9t-3.5 6t-3 3.5t-3.5 1t-4.5 -2.5l-7.5 -7.5t-13 -10q-24 -13 -38.5 -3.5t-18.5 38.5q0 11 -0.5 28t7 32t20.5 12z" />
    <glyph glyph-name="bar" unicode="|" horiz-adv-x="185" 
d="M185 773q-21 -261 -13 -566q9 -272 20 -368q7 -33 2.5 -47t-35.5 -19q-76 -6 -74 22q21 328 15 562q0 16 -1 74.5t-2 85t-3.5 73.5t-6.5 84.5t-10 73.5q-5 29 2.5 41t35.5 14q7 2 19 0.5t24 -3.5t20 -9t7 -18z" />
    <glyph glyph-name="braceright" unicode="}" horiz-adv-x="335" 
d="M-16 677q51 19 108.5 8t87.5 -50q35 -45 48 -154q6 -51 9 -105q18 -8 23 -9q4 0 14.5 4.5t17.5 5.5q31 3 43.5 -6t8.5 -41q-1 -7 -3 -18t-6.5 -24.5t-12.5 -21t-17 -2.5q-18 9 -31 18t-18.5 13.5t-8.5 4.5q-1 0 -11 -6q-1 -14 -5 -47q-14 -107 -61 -177t-130 -73
q-30 -1 -40.5 16t3.5 48q4 7 9 15.5t14.5 21t17.5 14.5t18 -2q16 -13 21.5 -16.5t13 -6t12 2t11.5 15.5q23 36 37 122q6 37 9 75q-2 6 -4 22q0 22 5 41q0 18 -2 52q-7 92 -27 135q-16 35 -39.5 45t-45.5 -6q-25 -17 -38.5 -15.5t-28.5 25.5q-6 11 -11.5 24.5t-5 30
t14.5 21.5z" />
    <glyph glyph-name="asciitilde" unicode="~" horiz-adv-x="454" 
d="M12 262q24 61 47 97t56 44q16 2 26.5 3.5t25.5 -3.5t24 -8.5t22 -12t20.5 -14t20 -14.5t18.5 -13q61 -42 93 -16q2 2 8.5 7.5t8.5 7t7 5.5t6.5 4t6 2t6.5 1t6 -2t7 -4l7 -7t8 -9t10 -15t12.5 -23t6.5 -23.5t-10 -12.5q-18 -5 -36.5 -7t-33 -3t-32.5 2t-28.5 4.5t-28.5 9
t-25 10t-25.5 13t-22 12.5t-23 14t-20.5 13q-21 14 -36.5 -2t-20.5 -66q-3 -30 -14 -39t-38 -4q-21 4 -43.5 17t-15.5 32z" />
    <glyph glyph-name="exclamdown" unicode="&#xa1;" horiz-adv-x="240" 
d="M86 -206q43 146 37 292q-3 102 -20 190q-9 31 -4 45.5t36 18.5q10 5 43 1t31 -23q-18 -204 -16 -309v-103.5t4 -105.5q3 -29 -8 -39.5t-39 -8.5q-13 1 -27 4.5t-27.5 13.5t-9.5 24zM102 531q18 -3 31.5 -7t20 -6.5t10.5 -3.5t6 -1t6.5 6t10.5 8q28 12 43 6t19 -38
q1 -8 1.5 -19t-0.5 -25.5t-6.5 -23t-15.5 -6.5q-14 3 -25 6t-16.5 6t-9.5 6t-6 4t-3 1q-2 0 -5.5 -2.5t-12 -7.5t-19.5 -10q-49 -24 -57 37v27t7 31.5t21 11.5z" />
    <glyph glyph-name="cent" unicode="&#xa2;" horiz-adv-x="511" 
d="M204 103q20 61 68 230q18 62 28 94q-70 16 -100 -9q-40 -33 -49.5 -105.5t16.5 -146.5q12 -38 37 -63zM395 472q64 -37 112 -110q16 -25 12 -39t-30 -26q-12 -5 -25.5 -8.5t-30 -1.5t-20.5 16q-18 64 -48 91q-39 -109 -61 -196q-8 -29 -28 -130q30 7 61 36t72 80
q3 4 9.5 12t8.5 10.5t6.5 7.5t7 5.5t7 2t9 -0.5t10 -5t12.5 -8q59 -47 37 -68q-155 -136 -254 -142q-7 -33 -23 -101q-5 -17 -7 -23t-6.5 -15t-9.5 -10t-14 -1t-22 5q-11 4 -23.5 9.5t-25.5 18t-7 24.5q29 60 51 118q-59 44 -83.5 140t-9.5 190q11 64 69.5 109.5t132.5 43.5
q26 -2 38 -5q21 75 31 139q5 29 16.5 37.5t39.5 1.5q12 -4 25 -10t24 -18t5 -25q-37 -78 -68 -154z" />
    <glyph glyph-name="sterling" unicode="&#xa3;" horiz-adv-x="564" 
d="M403 461q6 83 -19 116q-36 48 -103 55q-65 5 -106 -42q-51 -57 -32 -116q6 -21 45 -99q0 -1 2 -1q56 -5 105 7q30 9 44.5 4t18.5 -37q1 -7 1.5 -18t-0.5 -25t-6.5 -23t-15.5 -8q-47 7 -120 24q9 -31 10 -56q5 -55 -33 -130q73 -3 188 -34q65 -19 80 9q12 21 18 28.5
t17.5 8t29.5 -11.5q17 -11 36.5 -33t4.5 -32q-28 -18 -59.5 -27.5t-52.5 -12t-59 3.5t-50.5 9t-56.5 15q-87 23 -146 -3q-3 -4 -10.5 -13.5t-11.5 -15.5q-26 -35 -34 -39q-14 -6 -38 12q-9 7 -19 17t-20 26.5t2 24.5q8 8 13 12q-11 34 10 39q5 1 15.5 3.5t15.5 3.5
q89 108 72 186q-1 4 -3 11.5t-3 11.5q-63 5 -114 -16q-27 -11 -40 -3t-18 37q-5 13 0 43.5t25 28.5q59 -6 125 -17q-15 49 -21 84.5t0 81.5t31 84q33 50 107.5 64.5t131.5 -9.5q56 -21 94.5 -76.5t56.5 -126.5q7 -28 -1 -40.5t-37 -14.5q-21 -3 -46 3.5t-24 26.5z" />
    <glyph glyph-name="currency" unicode="&#xa4;" horiz-adv-x="523" 
d="M395 297q13 25 2 61t-41 64q-33 30 -71.5 41.5t-59.5 1.5l-15 -9q-52 -46 -60 -81q-13 -59 24 -104q1 -1 3 -2t3 -2q11 -7 24 -22q40 -23 87 -15q15 3 38 13q2 3 6 11q9 17 27.5 33.5t32.5 9.5zM95 621q10 -18 19 -36t14 -27t11 -15q0 -1 0.5 -1t0.5 -1h1q20 26 43 13
q92 19 165 -23q2 -1 17 -11q47 18 49 20q4 1 2.5 10t-0.5 12q5 31 16 39.5t43 -3.5q20 -8 42.5 -25.5t10.5 -30.5q-18 -20 -34.5 -33t-30.5 -20.5t-19 -11.5q-6 -5 -14 -19q26 -34 38 -71q23 -76 -29 -144q16 -23 22 -29q5 -5 18 -9.5t17 -6.5q29 -15 34.5 -27t-13.5 -40
q-13 -18 -35 -35t-32 -2q-19 26 -30.5 52t-17.5 31q-8 7 -29 11q-60 -35 -117 -29q-37 3 -69 20q-12 -9 -23.5 -16.5t-16.5 -11t-7 -6.5t-3 -12t-4 -16q-14 -29 -26.5 -34.5t-40.5 13.5q-18 13 -35 35t-2 32q19 13 34 19.5t21.5 8t7.5 3.5q7 12 18 44q-27 33 -36 67
q-21 65 20 158q-12 40 -17 45t-45 22q-51 20 -10 66q8 9 20.5 18t29 15t22.5 -8z" />
    <glyph glyph-name="yen" unicode="&#xa5;" horiz-adv-x="568" 
d="M281 403q-5 0 -8 1l6 -6q2 2 2 5zM80 734q55 -139 119 -234l15 -21q30 -4 88 -8q4 -1 11 -1t10 -1q12 18 35 49.5t30 41.5q3 3 12 16t12 17t11 15.5t11.5 17.5t10 16.5t10 18t8 17.5t7.5 19q9 28 23.5 33.5t39.5 -8.5q20 -12 37 -31.5t3 -33.5q-9 -9 -31.5 -32.5
t-32 -33.5t-27 -29t-28 -31.5t-23.5 -29.5t-24 -32q35 2 63 7q31 8 45.5 3t18.5 -36q5 -10 1 -43t-23 -31q-72 10 -143 21q-7 -23 -7 -40q0 -4 -0.5 -13t-1.5 -13q35 1 107 5q36 3 47 -3t11 -38q0 -22 -7 -48t-25 -22q-105 24 -167 30q-9 -52 -9 -100q0 -53 14 -112
q9 -30 4 -44.5t-37 -18.5q-10 -5 -43 -1t-31 23q3 24 11 71.5t11 75t3 53.5q0 37 -2 57q-4 -1 -13 -1q-122 -6 -178 -20q-27 -7 -39 2.5t-14 37.5q-1 22 6 47t27 22q85 -16 178 -19q-31 62 -46 90q-74 0 -127 -16q-28 -9 -40.5 -1t-16.5 37q-3 23 2.5 48t25.5 23
q32 -4 112 -13q-3 5 -9 14t-9 14q-66 100 -108 142q-21 21 -19.5 36t25.5 31q11 7 23.5 13t30.5 8t22 -13z" />
    <glyph glyph-name="brokenbar" unicode="&#xa6;" horiz-adv-x="162" 
d="M170 717q-3 -17 -7 -40.5t-6 -35.5t-3.5 -27t-1.5 -27q1 -20 14 -65q10 -29 5 -43.5t-37 -18.5q-8 -1 -18.5 -1.5t-25 0.5t-23.5 6.5t-7 15.5q4 28 14 71.5t9 61.5q0 30 -20 74q-21 49 37 57q10 0 26.5 0.5t31 -7t12.5 -21.5zM164 293q-11 -103 -7 -162q6 -92 6 -101
q1 -34 -7 -45.5t-40 -7.5q-10 1 -18.5 3t-23 6.5t-21.5 12.5t-3 17q22 57 30.5 87.5t5.5 61.5q-4 45 -27 94q-24 49 33 58q13 5 43.5 0t28.5 -24z" />
    <glyph glyph-name="section" unicode="&#xa7;" horiz-adv-x="468" 
d="M364 503q-1 27 -1.5 37.5t-5 26t-13.5 23.5q-35 35 -89 27q-56 -8 -74 -68q-7 -19 60 -64q13 -8 45.5 -28.5t52 -33.5t45.5 -36t44 -46q48 -65 50 -147.5t-52 -153.5q10 -10 22 -27q21 -27 22.5 -72t-16.5 -84q-16 -36 -52 -58.5t-76 -28.5q-71 -10 -142 20t-115 88
q-2 3 -7.5 10t-7 9t-5 7.5t-4 7l-2 6t-0.5 6.5t2 6t4.5 7t7 6.5t9.5 7.5q62 45 75 16q16 -35 24.5 -51.5t25 -38.5t31.5 -26q37 -11 81 -6t69 25q20 16 21.5 58t-16.5 70q-25 41 -125 91q-7 4 -31 15.5t-34.5 17t-31 16.5t-31 20t-24.5 21.5t-22 26t-13 28.5q-20 60 9 123
t85 105q-44 44 -48 83q-6 56 53.5 103t123.5 45q59 -2 108.5 -47t73.5 -111q10 -27 2 -40t-36 -18q-72 -8 -72 26zM237 381q-34 -9 -47 -13t-28 -13t-19 -21q-27 -79 19 -114q26 -19 86 -53t88 -53q71 26 67 81q-3 71 -59 122q-30 28 -94 74q-4 -7 -13 -10z" />
    <glyph glyph-name="dieresis" unicode="&#xa8;" horiz-adv-x="303" 
d="M149 716q-5 -17 -11 -31t-8.5 -21t-2.5 -13q0 -4 5 -14t6 -18q5 -32 -3 -44.5t-41 -10.5q-8 1 -18 2.5t-24.5 5.5t-22 11.5t-3.5 16.5q8 19 16.5 32.5t12.5 19t4 9.5q0 3 -2.5 6t-7 9.5t-9.5 14.5q-25 49 39 56q12 1 27.5 -0.5t30.5 -9.5t12 -21zM307 716
q-3 -19 -7.5 -34t-7 -22t-1.5 -11t7 -11.5t8 -12.5q12 -28 6 -43.5t-38 -19.5q-80 -6 -74 22q4 21 10 36.5t9.5 22t2.5 10.5q0 3 -2.5 6l-7.5 9t-10 14q-14 24 -5 38.5t38 19.5q10 1 27 2t32 -5.5t13 -20.5z" />
    <glyph glyph-name="copyright" unicode="&#xa9;" horiz-adv-x="720" 
d="M369 629q-123 -2 -192 -66q-50 -46 -76 -114.5t-21 -136.5q5 -64 44.5 -119t102.5 -79q71 -25 139.5 -22t128.5 28q81 32 125 114q43 79 29 169q-14 84 -81 145q-55 49 -147 69q-9 2 -21 4t-19.5 3.5t-11.5 4.5zM478 703q148 -63 207 -157q44 -71 46 -163t-36 -165
q-34 -70 -105 -121t-159 -68q-77 -14 -161.5 3t-144.5 59q-47 33 -76.5 87t-37.5 114q-16 114 40 228q53 110 154 169q79 45 224 45q26 0 37 -6.5t12 -24.5zM441 394q-1 47 -10 60q-3 6 -10 12q-42 36 -79 23q-33 -11 -50 -51.5t-8 -91.5q7 -34 26.5 -61t41.5 -36
q34 -12 85 44q5 6 13 15t10.5 12t8.5 7t10.5 3t11.5 -3.5t16 -9.5q6 -5 13 -11.5t17.5 -19t11.5 -20.5t-5 -17q-69 -55 -142.5 -70t-123.5 26q-48 48 -62 127.5t12 145.5q16 42 67 67t103 17q48 -8 88 -45t60 -88q11 -27 3 -40.5t-36 -18.5q-13 -5 -42.5 -0.5t-29.5 24.5z
" />
    <glyph glyph-name="ordfeminine" unicode="&#xaa;" horiz-adv-x="394" 
d="M222 527q-28 3 -44 1q-23 -4 -38.5 -12.5t-20 -16.5t-1.5 -12q6 -5 17.5 -6t33.5 9t45 30q3 2 8 7zM-2 668q32 37 57 61.5t65.5 44.5t79.5 15q56 -7 88 -56.5t43 -115.5q11 -11 11 -40q-3 -27 -9 -41q-2 -18 -4 -27q25 4 44 -18q5 -6 11 -13.5t13.5 -21.5t7 -22.5
t-8.5 -15.5q-37 -22 -77 -19t-53 32q-56 -33 -92 -32q-56 1 -95.5 39t-28.5 78q20 72 212 102q-3 44 -18 69q-11 19 -36 26t-47 -3q-31 -15 -60 -82q-11 -28 -24.5 -33t-38.5 8q-8 5 -15.5 11t-18 16t-11.5 19t5 19z" />
    <glyph glyph-name="guillemotleft" unicode="&#xab;" horiz-adv-x="461" 
d="M260 418q-74 -61 -117 -111q-26 -32 -36 -44q30 -44 61 -72q13 -12 40.5 -34.5t35.5 -29.5q18 -15 24 -24t3.5 -20.5t-19.5 -26.5q-61 -49 -74 -23q-20 41 -29 58t-24 39t-31 36q-28 24 -44 35q-18 -8 -42 19q-4 4 -12 15q-13 11 -13 22q-15 28 2 36q56 27 83.5 44.5
t46.5 42.5q27 34 47 88q17 52 64 18q19 -12 34.5 -33.5t-0.5 -34.5zM466 429q-19 -20 -60 -62.5t-57 -63.5q-20 -27 -35 -65q33 -55 49 -72q18 -21 56 -35q16 -6 24 -10.5t13.5 -12t3.5 -17t-11 -24.5q-3 -6 -9 -14.5t-16 -20.5t-18.5 -14.5t-17.5 3.5q-30 31 -60.5 73.5
t-38.5 52.5q-28 32 -69 53q-37 17 -25 45q1 1 1 2.5t1 2.5q3 6 12 16q6 8 24 22q10 10 31 29.5t33 31.5t22 25q32 42 42 91q11 51 62 27q21 -11 39 -29.5t4 -33.5z" />
    <glyph glyph-name="logicalnot" unicode="&#xac;" horiz-adv-x="564" 
d="M574 382q-22 -109 -21 -139q0 -23 14 -73q10 -30 5 -44.5t-37 -18.5q-7 -1 -18 -1.5t-25.5 0.5t-23.5 6.5t-7 15.5q4 26 14 75t9 70q0 20 -4 39q-31 4 -79.5 11t-86 12t-70.5 7q-121 6 -184 -11q-28 -7 -40.5 1.5t-15.5 37.5q-1 9 0 19t3.5 23t9.5 21t18 6
q193 -29 284 -34q99 -5 167 7q43 8 52 -1q18 -3 28.5 -10t7.5 -19z" />
    <glyph glyph-name="registered" unicode="&#xae;" horiz-adv-x="735" 
d="M451 392q22 16 29 37.5t-4 40.5q-42 65 -154 46q-7 -93 -8 -149q82 3 85 3q33 23 52 22zM420 736q17 29 33 20q33 -15 53 -25.5t60 -35t66.5 -48t54 -59.5t41.5 -76q24 -80 13 -165.5t-50 -163.5q-36 -71 -106 -115.5t-153 -52.5q-200 -23 -301 52q-84 64 -113 202
q-23 118 17 232q44 127 139 190q54 36 121 47.5t125 -2.5zM261 616q13 -1 42.5 -1.5t47 -1t41.5 -6t44 -14.5q61 -29 97.5 -93.5t10.5 -115.5q-19 -36 -55 -60q23 -66 24 -69q7 -18 32 -58q12 -20 15 -30.5t-3.5 -20t-27.5 -17.5q-8 -3 -18 -6t-24.5 -5.5t-24 1t-10.5 13.5
q-2 24 -2.5 52t-2 42t-6.5 25q-10 20 -36 38q-13 -3 -43.5 -10t-44.5 -11l-1 -1q3 -42 10 -73q9 -31 4 -45.5t-36 -18.5q-9 0 -26 -1.5t-33.5 4.5t-14.5 19q3 27 11 84.5t11 85.5q-2 23 3 33v33q0 86 -25 147q-16 43 15 54q7 27 26 27zM403 626q-66 37 -136 15
q-67 -19 -106 -71q-88 -119 -78 -253q6 -70 39.5 -132t87.5 -91q78 -40 270 -3q85 16 135 108q45 81 45 185q2 110 -46 171q-33 44 -157 85q-3 1 -8 2.5t-6 1.5q-21 -28 -40 -18z" />
    <glyph glyph-name="macron" unicode="&#xaf;" horiz-adv-x="336" 
d="M-9 729q113 -17 186 -14q34 1 113 7q34 3 46 -3.5t11 -38.5q-6 -78 -34 -70q-124 38 -179 35q-59 -2 -115 -23q-50 -19 -57 36v27.5t7.5 31t21.5 12.5z" />
    <glyph glyph-name="degree" unicode="&#xb0;" horiz-adv-x="357" 
d="M177 599q-25 -9 -28 -33q-4 -35 16 -61.5t45 -23.5q22 2 51 23.5t30 32.5t-22.5 28.5t-46.5 21.5q-42 9 -45 12zM273 669q95 -64 94 -145q0 -28 -33.5 -57t-72.5 -44q-43 -16 -85 -6.5t-65 38.5q-25 30 -32.5 74.5t5.5 83.5q12 35 48 61t85 38q28 7 40.5 -1t14.5 -37
q0 -1 0.5 -2.5t0.5 -2.5z" />
    <glyph glyph-name="plusminus" unicode="&#xb1;" horiz-adv-x="556" 
d="M276 366q-2 67 -16 118q-14 52 42 53q13 0 28 -2t29 -10.5t11 -22.5q-18 -74 -23 -137q142 2 171 -2q34 -5 44 -16t-1 -42q-6 -21 -21 -43.5t-31 -12.5q-61 35 -165 44q0 -17 0.5 -51.5t0.5 -52.5q0 -35 -7.5 -46t-39.5 -7q-11 1 -26 4t-30 12.5t-10 22.5q31 83 38 122
q-12 0 -18 -1q-129 -2 -189 -17q-28 -7 -40 3.5t-12 39.5q0 13 2.5 27.5t11 28.5t22.5 11q87 -20 229 -23zM41 104q155 -22 284 -19q100 2 175 16q30 9 44.5 4t18.5 -36q5 -11 1.5 -43.5t-22.5 -30.5q-20 2 -63.5 6.5t-59 6t-56 5t-54.5 3t-54 -0.5q-124 -2 -189 -19
q-28 -7 -40.5 1t-14.5 37q-1 12 0 27t8.5 30t21.5 13z" />
    <glyph glyph-name="uni00B2" unicode="&#xb2;" horiz-adv-x="343" 
d="M-17 577q39 61 98 101.5t122 44.5q45 3 88 -19.5t57 -62.5q13 -37 -4.5 -80t-48.5 -72q-16 -15 -59.5 -58.5t-69.5 -67.5q24 -2 34 -2q33 1 72 20q27 16 42.5 13.5t25.5 -32.5q23 -76 -7 -77q-46 -2 -102.5 3.5t-67.5 5.5q-53 0 -96 -15q-2 -1 -11 -4q-23 -16 -38 -12
t-27 33q-22 66 3 77q102 43 184 106.5t106 137.5q1 4 -5.5 9.5t-19.5 9.5t-28 7t-33 1.5t-33 -6.5q-52 -18 -74 -85q-9 -29 -20.5 -36t-38.5 2q-13 6 -24.5 12.5t-22 20t-2.5 25.5z" />
    <glyph glyph-name="uni00B3" unicode="&#xb3;" horiz-adv-x="318" 
d="M-31 566q26 57 63.5 96.5t80.5 47.5q60 11 119.5 -8t84.5 -61q19 -36 5.5 -74t-53.5 -75q56 -46 59 -104q3 -59 -49 -97t-111 -36q-73 3 -130.5 37t-72.5 103q-6 29 10 42.5t48 2.5q19 -6 44.5 -23t12.5 -29q-31 -31 46 -55q72 -22 114 3q14 7 15 27.5t-13 47.5
q-9 16 -65 21q-8 -5 -13 -6q-19 -9 -27.5 -11.5t-18 -2.5t-15 8t-11.5 24q-22 73 7 77q9 1 26.5 3.5l24.5 3.5q14 22 31 14q5 -1 13 -5q33 8 50 19q20 12 11.5 39t-42.5 39q-42 15 -82.5 -6.5t-50.5 -70.5q-6 -30 -16.5 -38.5t-37.5 -2.5q-22 5 -43.5 18.5t-13.5 31.5z" />
    <glyph glyph-name="acute" unicode="&#xb4;" horiz-adv-x="285" 
d="M287 697q-14 -9 -30 -19l-24 -15t-16.5 -11.5t-14.5 -12.5q-4 -4 -20 -44q-12 -31 -24 -37t-41 11q-6 4 -14 10.5t-19 17t-13 19t4 17.5q23 19 52.5 38t37.5 29q10 11 27 54q18 51 66 14q17 -15 31 -37.5t-2 -33.5z" />
    <glyph glyph-name="uni00B5" unicode="&#xb5;" horiz-adv-x="561" 
d="M571 474q-43 -143 -66 -287q-20 -129 -24 -178q-1 -12 -1 -15.5t-1 -11.5t-2.5 -10.5t-4 -7.5t-5.5 -5.5t-8 -2.5t-11.5 -1.5t-14.5 1.5t-18 3.5t-23.5 7.5t-20.5 13t-4 17q23 59 36 95q-10 -14 -32 -42q-26 -32 -68.5 -49.5t-85.5 -15.5q-44 1 -108 41
q-4 -25 -18.5 -102.5t-21.5 -119.5t-15 -49q-10 -8 -36 -3q-10 2 -18 4.5t-22 8t-20.5 14t-3.5 17.5q54 136 89 281q-11 16 9 40q11 51 21 109q6 34 34.5 139t31.5 161q2 30 11 40t37 7q12 -1 26.5 -5t28 -14t8.5 -23q-91 -243 -120 -387q82 -93 127 -82q73 17 135 129
q75 135 67 250q0 6 -1.5 17.5t-1.5 16t1 10t4 9.5q6 23 45 20q23 -1 47 -11t18 -29z" />
    <glyph glyph-name="paragraph" unicode="&#xb6;" horiz-adv-x="552" 
d="M227 343q4 223 -6 311q-113 -22 -143 -116q-21 -71 25 -142q39 -57 113 -54q8 0 11 1zM226 241q-77 18 -135.5 60.5t-77.5 105.5q-23 76 2.5 160.5t87.5 120.5q33 19 73 30t89 13.5t83 2t91.5 -4.5t77.5 -5q30 -1 39.5 -12t4.5 -39q-4 -22 -16.5 -44t-31.5 -15
q-8 2 -26 8q-30 -237 -26 -442q4 -233 23 -313q2 -8 6 -20.5t5 -17t-0.5 -11.5t-8 -11.5t-18.5 -9.5q-6 -3 -17 -6t-25 -5t-24.5 1t-10.5 13q-5 26 -2 261t3 252q0 26 1.5 102.5t0.5 130t-7 103.5q-30 6 -62 9q-29 -226 -31 -482q-2 -204 13 -329q8 -32 3.5 -46.5
t-35.5 -18.5q-76 -6 -74 22q21 274 25 437z" />
    <glyph glyph-name="periodcentered" unicode="&#xb7;" horiz-adv-x="187" 
d="M194 393q-4 -21 -9 -36t-7.5 -19.5t-2.5 -6.5t6 -5.5t8 -8.5q13 -28 6.5 -43t-38.5 -19q-7 -1 -18 -1.5t-25.5 0.5t-23.5 6.5t-7 15.5q4 21 10 34t9.5 16.5t3.5 4.5q0 2 -2.5 5t-7 10t-9.5 17q-26 49 35 57q22 4 48.5 -1.5t23.5 -25.5z" />
    <glyph glyph-name="cedilla" unicode="&#xb8;" horiz-adv-x="262" 
d="M38 -58q14 10 29 19t22 13.5t13.5 9.5t10.5 10t6 18.5t4 18.5q8 32 19 39.5t42 -5.5q7 -4 15.5 -9t21.5 -15t15.5 -18t-2.5 -17q-25 -25 -35 -33q6 -2 18 -8q37 -26 50 -71t-4 -80q-16 -37 -62 -58.5t-101 -19.5q-35 1 -46 10t-5 41q2 11 6.5 25.5t15 28.5t22.5 9
q53 -20 82.5 -14t29.5 35q0 9 -7.5 14t-22 2t-32.5 -15q-17 -11 -30 -13q-19 -8 -45 14q-17 12 -32 35t2 34z" />
    <glyph glyph-name="uni00B9" unicode="&#xb9;" horiz-adv-x="217" 
d="M47 674q13 -1 43 2.5t54.5 3.5t35.5 -11q24 -24 35.5 -53t12.5 -47t-2.5 -48t-3.5 -37q-2 -85 4 -164q2 -21 1.5 -34t-10 -19t-31.5 -6q-8 0 -18 1t-24 3.5t-22 9t-6 16.5q35 157 40 260q0 10 -0.5 16.5t-2 11t-4 7t-7 3t-8.5 -0.5t-11.5 -3.5t-14 -5t-17 -6.5t-19.5 -7
q-27 -9 -40 0.5t-15 38.5q-3 21 3.5 46t26.5 23z" />
    <glyph glyph-name="ordmasculine" unicode="&#xba;" horiz-adv-x="331" 
d="M170 741q11 32 29 24q66 -27 105.5 -82.5t37.5 -118.5q-2 -32 -21 -66t-47 -52q-30 -19 -68 -21.5t-69 12.5q-40 19 -65.5 62t-18.5 90q14 99 117 152zM218 641q-41 -6 -68 -30.5t-24 -58.5q2 -30 38 -47.5t66 -3.5q18 8 27.5 35t6.5 54q-4 39 -35 57q-4 -4 -11 -6z" />
    <glyph glyph-name="guillemotright" unicode="&#xbb;" horiz-adv-x="510" 
d="M311 223q-19 -11 -80.5 -45.5t-88.5 -54.5q-37 -27 -50 -65q-6 -17 -10 -24.5t-11 -13.5t-16.5 -4.5t-24.5 8.5q-7 4 -15.5 9t-21 15t-15 18t2.5 17q27 28 53 48.5t61.5 43.5t45.5 30q35 25 52 44q-30 73 -71 109q-39 34 -90 57q-48 22 -12 66q7 9 19.5 19t28 16t23.5 -7
q53 -78 110 -130q5 -5 34.5 -32t44.5 -43q2 -2 5.5 -6.5t5.5 -6.5q48 -52 20 -68zM511 190q-98 -56 -135 -90q-26 -23 -66 -68q-16 -18 -24.5 -24t-19.5 -3.5t-26 19.5q-5 6 -11 14t-14 21.5t-7 22.5t9 15q15 8 43.5 21.5t41 20t29 16.5t28.5 21q19 18 37 40
q-17 20 -30.5 40.5t-28.5 46t-22 35.5q-38 58 -79 80q-46 26 -9 67q8 9 20 18t28.5 14.5t23.5 -8.5q21 -35 51 -91.5t46 -80.5q26 -37 63 -50q26 -9 36 -16.5t7 -22.5q33 -45 9 -58z" />
    <glyph glyph-name="onequarter" unicode="&#xbc;" horiz-adv-x="864" 
d="M298 676q-32 -152 -35 -231q-3 -69 10 -133q9 -30 4 -45t-36 -19q-78 -6 -74 22q4 35 12 83.5t13 85t6 67.5q4 61 -1 102q-9 -2 -15 -5q-9 -5 -39 -37q-38 -38 -66 15q-5 11 -9.5 26t-3 31.5t15.5 18.5q15 2 31.5 4t24 2.5t15 2.5t13.5 5t15.5 15t13.5 16
q15 15 24.5 20.5t20 2.5t21.5 -18q18 -3 29.5 -10.5t9.5 -20.5zM139 16q106 144 276 427q31 51 92.5 146t86.5 135q21 35 29 39q12 7 38 -9q7 -4 14.5 -10t19 -17t13 -19.5t-3.5 -17.5q-182 -196 -300 -399q-118 -201 -160 -310q-11 -28 -23.5 -33.5t-38.5 6.5
q-21 10 -38 28t-5 34zM684 295q-75 -81 -96 -117q-2 -3 -6 -11q6 -1 45 -5t59 -6q5 29 7 64q3 48 -4 85q-2 -7 -5 -10zM784 374q-3 -27 -10 -73.5t-10.5 -75.5t-4.5 -56q-1 -5 -1 -13q28 2 52 7q30 9 44.5 4t18.5 -36q6 -78 -22 -74q-29 4 -86 15q1 -2 2 -7t1 -7
q9 -30 3.5 -44.5t-36.5 -18.5q-9 0 -26 -1.5t-33.5 4.5t-14.5 19q6 42 12 71l-27 3q-56 3 -103 -12q-15 -30 -47 -15q-16 0 -25 15q-46 34 -29 51q14 14 21 20q2 12 7.5 19.5t15.5 6.5h3q41 38 58 66q21 38 32 89q10 53 62 27q34 -20 44 -38q-4 16 -8 25q-18 50 36 57
q11 0 27.5 0.5t31 -7t12.5 -21.5z" />
    <glyph glyph-name="onehalf" unicode="&#xbd;" horiz-adv-x="773" 
d="M272 677q-36 -143 -40 -209q-4 -60 9 -121q9 -30 3.5 -44.5t-36.5 -18.5q-10 -5 -43 -1t-31 23q5 40 18 111.5t16 106.5q4 56 2 88q-10 -3 -15 -7t-9.5 -8.5t-11.5 -15.5t-12 -18q-30 -46 -67 4q-5 7 -10 17t-9.5 22.5t-2 23t12.5 13.5q17 5 37.5 10.5t30 9t17.5 8.5
q7 5 17 17.5t16 18.5q22 22 34 24t32 -20q20 -3 33 -11.5t9 -22.5zM84 24q106 140 263 409q18 30 80.5 122t83.5 140q3 7 7.5 18t6 14.5t5.5 9t9 6t12 0t18 -4.5q7 -2 16 -6.5t22.5 -12t17.5 -15.5t0 -18q-32 -45 -94.5 -126.5t-108 -146t-80.5 -127.5q-113 -199 -153 -300
q-11 -27 -24 -32.5t-38 6.5q-8 5 -16 10.5t-18.5 15.5t-12 18.5t3.5 19.5zM416 286q38 57 94.5 99.5t120.5 59.5q45 12 92.5 -7t57.5 -63q6 -29 -3 -59t-17.5 -43t-29.5 -41q-43 -60 -130 -161q10 0 28 2q18 3 83 20q30 10 44.5 5t18.5 -37q0 -9 1.5 -26t-4.5 -33.5
t-19 -14.5q-15 2 -46.5 7t-38.5 6t-33 3t-31 -2q-38 -5 -74 -19q-14 -20 -20 -26t-17 -5.5t-28 13.5q-6 4 -13.5 11t-17.5 18.5t-11 20t5 17.5q5 4 15.5 13.5t15.5 13.5q7 27 26 24h1q90 78 147.5 144t79.5 134q1 4 -6 7q-31 11 -82 -6q-17 -5 -32 -14q-51 -29 -68 -85
q-9 -29 -20.5 -36t-38.5 3q-21 8 -41 24t-9 33z" />
    <glyph glyph-name="threequarters" unicode="&#xbe;" horiz-adv-x="827" 
d="M1 607q86 101 153 110q65 7 124 -22.5t74 -79.5q20 -65 -52 -132q33 -33 39 -71q6 -47 -14 -94t-59 -69q-53 -26 -117.5 -12.5t-138.5 59.5q-22 13 -29.5 20.5t-7.5 19.5t14 30q47 59 67 37q27 -32 37 -42.5t27.5 -26.5t32.5 -22q33 -14 65.5 -4.5t44.5 36.5q12 25 -1 50
t-44 33q-4 -2 -12.5 -6t-12.5 -6q-30 -14 -46 -11t-24 34q-3 11 -5.5 25.5t0.5 32t16 18.5q8 1 26 2.5t27 2.5q19 29 38 19q5 -3 17 -9q16 6 21 10q22 15 21 46t-27 47q-30 21 -76.5 3t-75.5 -70q-15 -27 -26.5 -31.5t-36.5 8.5q-20 12 -36 30.5t-3 34.5zM169 24
q49 59 100.5 135t86.5 134t89 153q58 100 189 283q2 2 5 7q13 18 19 24t17 5.5t28 -13.5q59 -47 37 -68q-180 -170 -303 -393q-11 -19 -52.5 -93.5t-67 -122.5t-46.5 -95q-12 -27 -25.5 -32t-38.5 10q-7 4 -15 10.5t-17 16.5t-10.5 19.5t4.5 19.5zM681 343
q-61 -100 -79 -147q-2 -3 -4 -9q23 0 69 2q26 2 40 2q1 12 1 36q0 88 -19 150q-9 28 0 40.5t38 15.5q9 1 19 0t23.5 -3.5t21 -9.5t6.5 -18q-16 -97 -21 -213q2 0 5 -0.5t5 -0.5q34 -2 45 -10.5t5 -39.5q-2 -9 -4.5 -17.5t-8.5 -23t-14 -21t-17 -2.5q-7 3 -19 9
q-2 -42 -2 -65q0 -19 -1 -27t-5.5 -16.5t-14 -10t-26.5 0.5q-11 1 -26 4t-30 12.5t-11 22.5q23 60 36 109q-34 8 -65 5t-59 -13q-1 -1 -1 -3q-6 -17 -10 -25t-10.5 -13.5t-16.5 -4t-25 8.5q-9 4 -12 7q-16 0 -27 18q-22 20 -10 34q0 1 1 1q-3 23 1.5 41t20.5 17h28
q33 42 45 71q18 49 18 101q1 53 56 38q22 -7 43 -21.5t11 -31.5z" />
    <glyph glyph-name="questiondown" unicode="&#xbf;" horiz-adv-x="538" 
d="M548 34q-18 -96 -73.5 -169t-133.5 -90q-40 -9 -86.5 10t-84.5 54q-39 35 -63 83.5t-9 86.5q18 45 49.5 89.5t56 71.5t42 57t14.5 55q-1 9 -6.5 18t-10 14t-2.5 14t14 19q5 4 15 11t23.5 14t23 7t12.5 -9q33 -168 -96 -288q-68 -62 -68 -100q1 -26 20.5 -57t46.5 -49
q37 -25 80 -27.5t76 19.5q56 39 51 146q-2 31 6 41.5t35 11.5q12 1 27 -1t29.5 -10t11.5 -22zM369 556q-4 -19 -9 -35.5t-7.5 -24t-1.5 -13.5q0 -5 6 -13.5t8 -14.5q12 -28 6 -43t-38 -19q-8 -1 -19 -1.5t-25.5 0.5t-23 7t-6.5 16q4 22 10 38.5t9.5 25t3.5 13.5q0 4 -2.5 8
t-7.5 11.5t-10 15.5q-26 48 36 56q11 1 28 1t31.5 -7t11.5 -21z" />
    <glyph glyph-name="Agrave" unicode="&#xc0;" horiz-adv-x="541" 
d="M430 331q-1 12 -5 36q-19 119 -61 177q-27 35 -73 43t-76 -25q-87 -108 -104 -285q160 12 210 18q92 11 99 23q4 5 10 13zM23 33q-11 69 -3 152q0 1 -1.5 4.5t-2.5 5.5q-3 7 -6 18.5t-4 24.5t3.5 22.5t15.5 10.5h7q5 26 27 125q25 104 46 142q17 30 38 51q57 54 139.5 61
t121.5 -43q32 -45 56 -99t38.5 -121t21.5 -107.5t16 -119t11 -94.5q8 -32 3.5 -46.5t-35.5 -18.5q-9 0 -26 -1.5t-33.5 4.5t-15.5 19q8 104 0 210q-29 -4 -93.5 -7.5t-101.5 -8.5q-94 -12 -137 -29q1 -49 11 -98q1 -4 3 -12.5t2.5 -11.5t1 -9t0 -8t-2 -6.5t-4.5 -6.5
l-7.5 -5t-11.5 -6q-12 -5 -27 -8.5t-31.5 -0.5t-18.5 17zM289 923l12 -28t8.5 -21t6 -14t8.5 -11q5 -5 18.5 -11t18.5 -9q28 -18 31.5 -30.5t-17.5 -38.5q-14 -16 -38.5 -31t-32.5 1q-11 20 -18.5 38.5t-11.5 28.5t-9 15q-4 4 -9.5 7t-16 8t-19.5 10q-49 25 -5 67
q9 8 22 16.5t30 13t22 -10.5z" />
    <glyph glyph-name="Aacute" unicode="&#xc1;" horiz-adv-x="541" 
d="M430 331q-1 12 -5 36q-19 119 -61 177q-27 35 -73 43t-76 -25q-87 -108 -104 -285q160 12 210 18q92 11 99 23q4 5 10 13zM23 33q-11 69 -3 152q0 1 -1.5 4.5t-2.5 5.5q-3 7 -6 18.5t-4 24.5t3.5 22.5t15.5 10.5h7q5 26 27 125q25 104 46 142q17 30 38 51q57 54 139.5 61
t121.5 -43q32 -45 56 -99t38.5 -121t21.5 -107.5t16 -119t11 -94.5q8 -32 3.5 -46.5t-35.5 -18.5q-9 0 -26 -1.5t-33.5 4.5t-15.5 19q8 104 0 210q-29 -4 -93.5 -7.5t-101.5 -8.5q-94 -12 -137 -29q1 -49 11 -98q1 -4 3 -12.5t2.5 -11.5t1 -9t0 -8t-2 -6.5t-4.5 -6.5
l-7.5 -5t-11.5 -6q-12 -5 -27 -8.5t-31.5 -0.5t-18.5 17zM194 775q14 12 32 26.5t27 22t16 16.5q4 5 14 22t18 27q14 18 23 24.5t20.5 3t26.5 -20.5q7 -7 16 -20.5t15 -30.5t-8 -22q-18 -8 -39 -15.5t-30 -12t-14 -11.5q-5 -8 -15 -53q-11 -52 -64 -22q-19 11 -36 32t-2 34z
" />
    <glyph glyph-name="Acircumflex" unicode="&#xc2;" horiz-adv-x="541" 
d="M430 331q-1 12 -5 36q-19 119 -61 177q-27 35 -73 43t-76 -25q-87 -108 -104 -285q160 12 210 18q92 11 99 23q4 5 10 13zM372 854q7 -14 11 -19q5 -5 17 -11l16 -8q28 -17 31.5 -30t-18.5 -39q-3 -3 -7.5 -7t-12 -10t-14.5 -10.5t-14.5 -7.5t-13.5 -1.5t-9 7.5
q-14 26 -22.5 52.5t-14.5 32.5l-2 2q-20 -15 -25 -24q-3 -4 -4 -9.5t-1 -13t-1 -12.5q-4 -32 -13.5 -41t-42.5 0q-20 6 -44 21.5t-13 30.5q21 28 45 50t28 28q6 11 7 14q-4 14 8 31q0 1 0.5 3t0.5 3q9 44 46 31q30 15 39 -4q11 -24 15 -38q9 -11 8 -21zM23 33q-11 69 -3 152
q0 1 -1.5 4.5t-2.5 5.5q-3 7 -6 18.5t-4 24.5t3.5 22.5t15.5 10.5h7q5 26 27 125q25 104 46 142q17 30 38 51q57 54 139.5 61t121.5 -43q32 -45 56 -99t38.5 -121t21.5 -107.5t16 -119t11 -94.5q8 -32 3.5 -46.5t-35.5 -18.5q-9 0 -26 -1.5t-33.5 4.5t-15.5 19q8 104 0 210
q-29 -4 -93.5 -7.5t-101.5 -8.5q-94 -12 -137 -29q1 -49 11 -98q1 -4 3 -12.5t2.5 -11.5t1 -9t0 -8t-2 -6.5t-4.5 -6.5l-7.5 -5t-11.5 -6q-12 -5 -27 -8.5t-31.5 -0.5t-18.5 17z" />
    <glyph glyph-name="Atilde" unicode="&#xc3;" horiz-adv-x="541" 
d="M430 331q-1 12 -5 36q-19 119 -61 177q-27 35 -73 43t-76 -25q-87 -108 -104 -285q160 12 210 18q92 11 99 23q4 5 10 13zM23 33q-11 69 -3 152q0 1 -1.5 4.5t-2.5 5.5q-3 7 -6 18.5t-4 24.5t3.5 22.5t15.5 10.5h7q5 26 27 125q25 104 46 142q17 30 38 51q57 54 139.5 61
t121.5 -43q32 -45 56 -99t38.5 -121t21.5 -107.5t16 -119t11 -94.5q8 -32 3.5 -46.5t-35.5 -18.5q-9 0 -26 -1.5t-33.5 4.5t-15.5 19q8 104 0 210q-29 -4 -93.5 -7.5t-101.5 -8.5q-94 -12 -137 -29q1 -49 11 -98q1 -4 3 -12.5t2.5 -11.5t1 -9t0 -8t-2 -6.5t-4.5 -6.5
l-7.5 -5t-11.5 -6q-12 -5 -27 -8.5t-31.5 -0.5t-18.5 17zM111 768q21 38 33.5 57.5t34.5 40.5t43 24q25 4 49.5 -2t39 -15t34 -24t26.5 -19t9 -2.5t7 13.5q9 20 17 36q16 31 28.5 36.5t40.5 -13.5q6 -5 13.5 -11.5t17.5 -18t11.5 -20t-5.5 -17.5q-12 -10 -28 -30
t-31.5 -33.5t-35.5 -18.5q-18 -4 -37.5 1.5t-31 12.5t-31.5 22.5t-26 19.5q-45 30 -70 -62q-8 -28 -19.5 -35.5t-38.5 1.5q-12 4 -24.5 11t-22.5 20.5t-3 25.5z" />
    <glyph glyph-name="Adieresis" unicode="&#xc4;" horiz-adv-x="541" 
d="M430 331q-1 12 -5 36q-19 119 -61 177q-27 35 -73 43t-76 -25q-87 -108 -104 -285q160 12 210 18q92 11 99 23q4 5 10 13zM23 33q-11 69 -3 152q0 1 -1.5 4.5t-2.5 5.5q-3 7 -6 18.5t-4 24.5t3.5 22.5t15.5 10.5h7q5 26 27 125q25 104 46 142q17 30 38 51q57 54 139.5 61
t121.5 -43q32 -45 56 -99t38.5 -121t21.5 -107.5t16 -119t11 -94.5q8 -32 3.5 -46.5t-35.5 -18.5q-9 0 -26 -1.5t-33.5 4.5t-15.5 19q8 104 0 210q-29 -4 -93.5 -7.5t-101.5 -8.5q-94 -12 -137 -29q1 -49 11 -98q1 -4 3 -12.5t2.5 -11.5t1 -9t0 -8t-2 -6.5t-4.5 -6.5
l-7.5 -5t-11.5 -6q-12 -5 -27 -8.5t-31.5 -0.5t-18.5 17zM272 867q-3 -22 -6.5 -38.5t-5 -22.5t-0.5 -9q0 -3 6 -8t8 -10q13 -28 6.5 -43t-38.5 -19q-7 -1 -18 -1.5t-25.5 0.5t-23.5 6.5t-7 15.5q3 13 6 23.5t6 15.5t6 8.5t4 4.5t1 2q-1 3 -3 6.5t-8 12.5t-12 19
q-29 48 31 59q11 3 27.5 3.5t32 -5.5t13.5 -20zM478 866q-5 -18 -10.5 -31t-8 -19t-2.5 -10q0 -3 6 -8.5t8 -9.5q12 -28 6 -43.5t-39 -19.5q-79 -6 -74 22q4 21 10.5 36t10 21t3.5 10q0 3 -2 5.5t-7 8t-9 13.5q-25 49 38 56q13 1 28.5 -0.5t30.5 -9.5t11 -21z" />
    <glyph glyph-name="Aring" unicode="&#xc5;" horiz-adv-x="541" 
d="M430 331q-1 12 -5 36q-19 119 -61 177q-27 35 -73 43t-76 -25q-87 -108 -104 -285q160 12 210 18q92 11 99 23q4 5 10 13zM373 909q31 -24 40.5 -55.5t-6.5 -56.5q-25 -37 -75 -48t-79 17q-34 34 -13 89.5t77 84.5q46 25 56 -31zM23 33q-11 69 -3 152q0 1 -1.5 4.5
t-2.5 5.5q-3 7 -6 18.5t-4 24.5t3.5 22.5t15.5 10.5h7q5 26 27 125q25 104 46 142q17 30 38 51q57 54 139.5 61t121.5 -43q32 -45 56 -99t38.5 -121t21.5 -107.5t16 -119t11 -94.5q8 -32 3.5 -46.5t-35.5 -18.5q-9 0 -26 -1.5t-33.5 4.5t-15.5 19q8 104 0 210
q-29 -4 -93.5 -7.5t-101.5 -8.5q-94 -12 -137 -29q1 -49 11 -98q1 -4 3 -12.5t2.5 -11.5t1 -9t0 -8t-2 -6.5t-4.5 -6.5l-7.5 -5t-11.5 -6q-12 -5 -27 -8.5t-31.5 -0.5t-18.5 17zM329 816q-24 -3 -33 18q-2 -10 6.5 -18t16.5 -4q2 0 5 2t5 2z" />
    <glyph glyph-name="AE" unicode="&#xc6;" horiz-adv-x="777" 
d="M253 289q32 -4 75 -2q71 5 97 4q4 68 4 102q2 100 -2 152q-29 -44 -87.5 -129t-86.5 -127zM462 690q146 0 169 2q33 3 92 18q30 10 44.5 4.5t18.5 -36.5q0 -9 1.5 -26t-4.5 -33.5t-19 -14.5q-21 3 -66 10t-52 7h-45q-42 -4 -86 -28q-12 -117 -16 -190q30 -8 40 -7
q6 1 19.5 5.5t21.5 5.5q33 4 45 -4t10 -40q-1 -8 -2.5 -18.5t-5.5 -24.5t-11 -21.5t-16 -4.5q-19 8 -34.5 17t-22 12.5t-12.5 2.5q-4 0 -8 -2.5t-11.5 -8t-15.5 -10.5q0 -3 -1 -5q0 -125 7 -188q76 -14 120 -10q30 2 86 17q30 10 44.5 5t18.5 -37q0 -9 1.5 -26t-4.5 -33.5
t-19 -14.5q-21 3 -49 7.5t-40.5 6.5t-35 4t-32.5 0q-50 -3 -96 -21q-30 -11 -44 4q-55 -2 -52 23q2 19 7.5 70.5t7.5 78.5q-74 35 -120 31q-44 -4 -95 -24q-2 -1 -8 -3q-55 -96 -73 -177q-7 -30 -18 -37.5t-39 0.5q-13 5 -25 11.5t-23 19t-4 24.5q46 80 135 216q3 59 31 54
l2 -1h2l72 111q89 136 124 240q1 4 4 14t4 12.5t3.5 9t5 7.5t6 4t8 2.5t11 -1.5t14.5 -3q7 -2 21 -8q6 2 9 2z" />
    <glyph glyph-name="Ccedilla" unicode="&#xc7;" horiz-adv-x="549" 
d="M474 512q-76 78 -131 81q-46 3 -90 -8.5t-68 -35.5q-50 -50 -64.5 -130t10.5 -161q16 -55 54 -98t83 -59q75 -29 178 52q8 6 18.5 15.5t14.5 12.5t11 5t13.5 -2t16.5 -13q55 -55 29 -72q-33 -24 -51 -36t-60 -31.5t-76 -23.5q-57 -8 -112 11t-89 58q-67 75 -97.5 177.5
t-13.5 201.5q11 66 65 123t129 80q134 42 287 -51q26 -16 29 -30t-15 -37q-8 -10 -18 -18.5t-27 -16t-26 5.5zM406 -60q-10 -18 -21 -33l-16.5 -22.5t-7.5 -14.5q-1 -5 1.5 -15.5t2.5 -17.5q1 -32 -8.5 -43t-41.5 -5q-21 3 -47 15t-17 28q11 20 23 35.5t18.5 23t8.5 13.5
q1 2 -6 43q-4 27 10 37.5t43 4.5q21 -4 44.5 -17.5t13.5 -31.5z" />
    <glyph glyph-name="Egrave" unicode="&#xc8;" horiz-adv-x="470" 
d="M67 687q29 0 117 -1.5t94 0.5q50 1 112 16q33 12 49.5 6t21.5 -42q1 -9 1.5 -21t-0.5 -28t-7.5 -26.5t-17.5 -8.5q-30 4 -76 12t-73.5 11t-52.5 1q-39 -2 -73 -14q-3 -107 0 -206q58 -10 93 -8q31 1 85 17q33 12 49.5 6t21.5 -43q1 -9 1.5 -21t-0.5 -28t-7.5 -26.5
t-17.5 -8.5q-26 4 -63 11.5t-60.5 11t-45.5 2.5q-27 -2 -52 -7q6 -108 13 -160q79 -10 125 -5q35 2 103 19q34 12 50.5 6t21.5 -42q1 -9 1.5 -21t-0.5 -28t-8 -26.5t-18 -8.5q-26 3 -70 10.5t-68.5 9.5t-48.5 0q-36 -3 -74 -13q1 -15 -8 -22.5t-34 -11.5q-12 -5 -49 -0.5
t-35 25.5q17 170 19 248q-25 6 -28 49q-2 20 3 47t21 32q-10 131 -38 211q-11 33 -1 49q5 27 24 27zM247 923q21 -25 39 -52t24 -33q4 -4 8 -5t10 -1t9 -1q31 -7 39 -18.5t-5 -42.5q-3 -7 -8.5 -16t-15.5 -21t-18 -15t-17 2q-26 25 -43.5 53.5t-20.5 31.5q-9 9 -45 16
q-53 10 -22 64q11 19 32 36t34 2z" />
    <glyph glyph-name="Eacute" unicode="&#xc9;" horiz-adv-x="470" 
d="M67 687q29 0 117 -1.5t94 0.5q50 1 112 16q33 12 49.5 6t21.5 -42q1 -9 1.5 -21t-0.5 -28t-7.5 -26.5t-17.5 -8.5q-30 4 -76 12t-73.5 11t-52.5 1q-39 -2 -73 -14q-3 -107 0 -206q58 -10 93 -8q31 1 85 17q33 12 49.5 6t21.5 -43q1 -9 1.5 -21t-0.5 -28t-7.5 -26.5
t-17.5 -8.5q-26 4 -63 11.5t-60.5 11t-45.5 2.5q-27 -2 -52 -7q6 -108 13 -160q79 -10 125 -5q35 2 103 19q34 12 50.5 6t21.5 -42q1 -9 1.5 -21t-0.5 -28t-8 -26.5t-18 -8.5q-26 3 -70 10.5t-68.5 9.5t-48.5 0q-36 -3 -74 -13q1 -15 -8 -22.5t-34 -11.5q-12 -5 -49 -0.5
t-35 25.5q17 170 19 248q-25 6 -28 49q-2 20 3 47t21 32q-10 131 -38 211q-11 33 -1 49q5 27 24 27zM172 802q21 11 43 21t35 16.5t22 13.5q9 6 28 38q19 28 31 31.5t38 -18.5q16 -14 31 -38t-1 -33q-29 -16 -62 -28.5t-42 -19.5q-16 -11 -34 -49q-24 -48 -67 -7
q-6 7 -12.5 15.5t-13 20.5t-6 22t9.5 15z" />
    <glyph glyph-name="Ecircumflex" unicode="&#xca;" horiz-adv-x="470" 
d="M352 852q5 -12 10 -18q4 -4 8.5 -6t11.5 -3.5t11 -2.5q31 -11 37 -23t-10 -42q-4 -6 -10 -14t-17 -19.5t-19.5 -13.5t-16.5 4q-24 28 -40 58t-19 34l-4 4q-14 -9 -19 -17q-4 -5 -5.5 -18t-2.5 -18q-7 -32 -17.5 -40t-42.5 3q-71 35 -52 57q22 26 46.5 45t28.5 25
q0 1 1 2.5t2 2.5q-14 22 17 50q0 1 1 1q11 33 39 25q26 9 33 -7q4 -8 10 -22q30 -30 19 -47zM67 687q29 0 117 -1.5t94 0.5q50 1 112 16q33 12 49.5 6t21.5 -42q1 -9 1.5 -21t-0.5 -28t-7.5 -26.5t-17.5 -8.5q-30 4 -76 12t-73.5 11t-52.5 1q-39 -2 -73 -14q-3 -107 0 -206
q58 -10 93 -8q31 1 85 17q33 12 49.5 6t21.5 -43q1 -9 1.5 -21t-0.5 -28t-7.5 -26.5t-17.5 -8.5q-26 4 -63 11.5t-60.5 11t-45.5 2.5q-27 -2 -52 -7q6 -108 13 -160q79 -10 125 -5q35 2 103 19q34 12 50.5 6t21.5 -42q1 -9 1.5 -21t-0.5 -28t-8 -26.5t-18 -8.5
q-26 3 -70 10.5t-68.5 9.5t-48.5 0q-36 -3 -74 -13q1 -15 -8 -22.5t-34 -11.5q-12 -5 -49 -0.5t-35 25.5q17 170 19 248q-25 6 -28 49q-2 20 3 47t21 32q-10 131 -38 211q-11 33 -1 49q5 27 24 27z" />
    <glyph glyph-name="Edieresis" unicode="&#xcb;" horiz-adv-x="470" 
d="M253 866q-5 -18 -10.5 -30t-8.5 -17t-3 -8q0 -2 6 -6t8 -9q13 -28 6.5 -43t-38.5 -19q-7 -1 -18 -1.5t-25.5 0.5t-23.5 7t-7 16q4 20 10 34t10 19.5t4 8.5q0 2 -2.5 4t-7 6.5t-8.5 12.5q-12 25 -2 39t40 17q12 1 28 -0.5t31 -9.5t11 -21zM457 861q-6 -17 -12 -29
t-9 -16.5t-3 -7.5q0 -2 6 -6t8 -9q11 -28 4 -43t-40 -17q-8 0 -26 -0.5t-33.5 6t-12.5 19.5q5 20 11.5 33.5t10.5 18.5t4 8q0 2 -2 4t-6.5 7t-8.5 13q-12 24 0 37.5t41 15.5q22 1 48.5 -7t19.5 -27zM67 687q29 0 117 -1.5t94 0.5q50 1 112 16q33 12 49.5 6t21.5 -42
q1 -9 1.5 -21t-0.5 -28t-7.5 -26.5t-17.5 -8.5q-30 4 -76 12t-73.5 11t-52.5 1q-39 -2 -73 -14q-3 -107 0 -206q58 -10 93 -8q31 1 85 17q33 12 49.5 6t21.5 -43q1 -9 1.5 -21t-0.5 -28t-7.5 -26.5t-17.5 -8.5q-26 4 -63 11.5t-60.5 11t-45.5 2.5q-27 -2 -52 -7
q6 -108 13 -160q79 -10 125 -5q35 2 103 19q34 12 50.5 6t21.5 -42q1 -9 1.5 -21t-0.5 -28t-8 -26.5t-18 -8.5q-26 3 -70 10.5t-68.5 9.5t-48.5 0q-36 -3 -74 -13q1 -15 -8 -22.5t-34 -11.5q-12 -5 -49 -0.5t-35 25.5q17 170 19 248q-25 6 -28 49q-2 20 3 47t21 32
q-10 131 -38 211q-11 33 -1 49q5 27 24 27z" />
    <glyph glyph-name="Igrave" unicode="&#xcc;" horiz-adv-x="434" 
d="M282 102q60 6 92 12q35 8 51 1t19 -42q1 -6 0 -20t-2.5 -29t-9 -25.5t-18.5 -8.5q-24 4 -65.5 12.5t-60.5 11.5t-44.5 6t-45.5 2q-67 -2 -127 -21q-31 -10 -45 1.5t-16 44.5q-1 14 1 31t11.5 33.5t24.5 13.5q60 -13 115 -20q-3 47 -3.5 102t0 96.5t-0.5 94.5q-1 15 -1 57
t-2 72.5t-6 58.5q-38 -5 -76 -24q-30 -14 -45.5 -5.5t-22.5 40.5q-3 14 -4 31t5.5 35t22.5 17q36 -2 121 -9q11 9 39 11q53 0 71 -18q40 1 87 12q34 11 50 5t21 -42q5 -12 0.5 -49.5t-24.5 -34.5q-2 0 -138 26q-24 -154 -19 -268q5 -108 37 -190q1 -2 4 -9.5t4 -11.5z
M108 915q10 -20 17 -37.5t10 -27t7 -13.5q1 -3 8.5 -1t10.5 2q31 -6 39 -18.5t-5 -43.5q-2 -4 -5 -8.5t-8.5 -13.5t-10.5 -14.5t-12 -11.5t-12 -5t-11 4q-19 18 -30.5 34.5t-17 28.5t-8.5 16t-7 6t-13.5 6t-16.5 7q-52 21 -8 66q8 9 21 18t29.5 14.5t22.5 -8.5z" />
    <glyph glyph-name="Iacute" unicode="&#xcd;" horiz-adv-x="448" 
d="M253 866q-5 -18 -10.5 -30t-8.5 -17t-3 -8q0 -2 6 -6t8 -9q13 -28 6.5 -43t-38.5 -19q-7 -1 -18 -1.5t-25.5 0.5t-23.5 7t-7 16q4 20 10 34t10 19.5t4 8.5q0 2 -2.5 4t-7 6.5t-8.5 12.5q-12 25 -2 39t40 17q12 1 28 -0.5t31 -9.5t11 -21zM457 861q-6 -17 -12 -29
t-9 -16.5t-3 -7.5q0 -2 6 -6t8 -9q11 -28 4 -43t-40 -17q-8 0 -26 -0.5t-33.5 6t-12.5 19.5q5 20 11.5 33.5t10.5 18.5t4 8q0 2 -2 4t-6.5 7t-8.5 13q-12 24 0 37.5t41 15.5q22 1 48.5 -7t19.5 -27z" />
    <glyph glyph-name="Icircumflex" unicode="&#xce;" horiz-adv-x="434" 
d="M282 102q60 6 92 12q35 8 51 1t19 -42q1 -6 0 -20t-2.5 -29t-9 -25.5t-18.5 -8.5q-24 4 -65.5 12.5t-60.5 11.5t-44.5 6t-45.5 2q-67 -2 -127 -21q-31 -10 -45 1.5t-16 44.5q-1 14 1 31t11.5 33.5t24.5 13.5q60 -13 115 -20q-3 47 -3.5 102t0 96.5t-0.5 94.5q-1 15 -1 57
t-2 72.5t-6 58.5q-38 -5 -76 -24q-30 -14 -45.5 -5.5t-22.5 40.5q-3 14 -4 31t5.5 35t22.5 17q36 -2 121 -9q11 9 39 11q53 0 71 -18q40 1 87 12q34 11 50 5t21 -42q5 -12 0.5 -49.5t-24.5 -34.5q-2 0 -138 26q-24 -154 -19 -268q5 -108 37 -190q1 -2 4 -9.5t4 -11.5z
M165 924q13 -18 25 -36t18.5 -27.5t13.5 -15.5q5 -6 19 -12.5t19 -10.5q28 -18 32 -30.5t-18 -38.5q-14 -16 -38 -31t-33 1q-11 20 -19 40t-12 29.5t-10 14.5q-5 5 -19 10q-8 -6 -19 -14t-17.5 -13t-10.5 -10q-10 -13 -19 -51q-13 -54 -65 -20q-19 12 -35.5 33t-0.5 33
q17 14 36 27.5t29 21.5t16 15q4 5 6 10.5t3.5 14.5t2.5 13q7 29 17.5 38t33.5 0q31 27 45 9z" />
    <glyph glyph-name="Idieresis" unicode="&#xcf;" horiz-adv-x="434" 
d="M282 102q60 6 92 12q35 8 51 1t19 -42q1 -6 0 -20t-2.5 -29t-9 -25.5t-18.5 -8.5q-24 4 -65.5 12.5t-60.5 11.5t-44.5 6t-45.5 2q-67 -2 -127 -21q-31 -10 -45 1.5t-16 44.5q-1 14 1 31t11.5 33.5t24.5 13.5q60 -13 115 -20q-3 47 -3.5 102t0 96.5t-0.5 94.5q-1 15 -1 57
t-2 72.5t-6 58.5q-38 -5 -76 -24q-30 -14 -45.5 -5.5t-22.5 40.5q-3 14 -4 31t5.5 35t22.5 17q36 -2 121 -9q11 9 39 11q53 0 71 -18q40 1 87 12q34 11 50 5t21 -42q5 -12 0.5 -49.5t-24.5 -34.5q-2 0 -138 26q-24 -154 -19 -268q5 -108 37 -190q1 -2 4 -9.5t4 -11.5z
M173 861q-6 -52 -14 -68q7 11 15 2q20 -22 19 -38.5t-30 -30.5q-6 -3 -17 -7t-24.5 -7.5t-24 -1t-11.5 12.5q-3 26 -1.5 38t4 19.5t2.5 8.5q0 3 -2.5 6t-8 10.5t-11.5 17.5q-28 46 31 60q13 5 44 1.5t29 -23.5zM355 849q-4 -18 -9 -30t-7.5 -17t-2.5 -8q0 -2 6.5 -5.5
t8.5 -8.5q14 -27 8.5 -42t-37.5 -21q-10 -2 -26.5 -3.5t-33.5 3.5t-15 18q3 20 8.5 34t9 19.5t3.5 8.5q0 2 -3 3.5t-7.5 6t-9.5 12.5q-13 24 -3 38.5t39 18.5q10 1 27.5 1t32 -7t11.5 -21z" />
    <glyph glyph-name="Eth" unicode="&#xd0;" horiz-adv-x="606" 
d="M189 87q147 -31 228 17q65 39 100.5 112.5t27.5 150.5q-6 56 -46 108.5t-101 84.5q-81 43 -219 33q-5 -95 -7 -205l54 3q34 1 45 -7t8 -40q-1 -10 -4.5 -25.5t-13 -30.5t-21.5 -10q-9 4 -32.5 13t-34.5 13q4 -146 16 -217zM143 700q234 -19 357 -116q83 -64 109 -181
q24 -114 -21 -211q-27 -60 -76 -109t-113 -76q-84 -37 -248 -21q-44 4 -52 11q-8 8 -7 28q-10 7 -9 17q18 199 20 275h-2q-41 -3 -90 -22q-50 -20 -55 39q-3 21 4 47t26 22q83 -15 117 -17v15q-4 162 -25 241q-8 29 0 41t36 16q2 0 9 0.5t12 0.5h8z" />
    <glyph glyph-name="Ntilde" unicode="&#xd1;" horiz-adv-x="585" 
d="M163 685q102 -138 239 -347q12 -18 37.5 -58.5t38.5 -60.5q10 94 11 178q2 166 -17 242q-8 32 2 46t42 17q13 1 30.5 0t34 -10t14.5 -25q-28 -199 -31 -372q-2 -139 13 -223q9 -35 4 -51t-41 -21q-12 -5 -49 -0.5t-35 25.5q1 3 1 10q-36 83 -56.5 127t-55 109.5
t-69.5 116.5q-54 81 -111 136q-6 -89 -6 -217q0 -181 2 -217q2 -24 1 -39t-11.5 -21.5t-35.5 -6.5q-9 0 -20.5 1t-27.5 4.5t-25 11.5t-7 19q48 212 46 337q-2 140 -28 225q-10 32 -0.5 46t41.5 18q13 2 26 1q30 19 43 -1zM132 792q45 38 93 53t81.5 10.5t60.5 -19.5
q10 -5 18 0t24 27q15 23 21 29t17.5 6.5t29.5 -13.5q6 -5 13.5 -12t18 -19t11.5 -20t-6 -16q-112 -73 -216 -19q-34 18 -63 -51q-12 -27 -25.5 -31.5t-38.5 9.5q-19 12 -36.5 32.5t-2.5 33.5z" />
    <glyph glyph-name="Ograve" unicode="&#xd2;" horiz-adv-x="567" 
d="M233 662v7q1 9 2.5 20t5.5 27t12.5 25t19.5 6q66 -17 135.5 -56.5t110.5 -101.5q70 -107 56 -258q-14 -166 -113 -251q-52 -45 -126 -57.5t-145 20.5q-71 38 -104.5 129.5t-19.5 188.5q15 97 59 176.5t107 124.5zM313 570q-34 6 -71.5 -25.5t-67.5 -103.5
q-43 -101 -25 -208q8 -47 35 -82.5t65 -45.5q50 -13 98 0.5t75 46.5q43 53 59 129t-1 153q-13 56 -48.5 99.5t-83.5 67.5q-12 -35 -35 -31zM325 919q13 -22 21.5 -40.5t12 -26t6.5 -9.5q2 -2 10.5 -3t15.5 -5q28 -17 32 -29.5t-17 -39.5q-5 -6 -13 -13t-20.5 -16t-21.5 -9.5
t-16 7.5q-11 20 -16 36t-5.5 22.5t-2.5 7.5q-10 8 -49 26q-49 24 -9 67q8 9 20 18t28.5 15t23.5 -8z" />
    <glyph glyph-name="Oacute" unicode="&#xd3;" horiz-adv-x="567" 
d="M313 570q-34 6 -71.5 -25.5t-67.5 -103.5q-43 -101 -25 -208q8 -47 35 -82.5t65 -45.5q50 -13 98 0.5t75 46.5q43 53 59 129t-1 153q-13 56 -48.5 99.5t-83.5 67.5q-12 -35 -35 -31zM276 820q19 7 39.5 13.5t30.5 10.5t18 10q5 4 9 9t9 13t8 13q14 18 23 24.5t20.5 3
t26.5 -20.5q7 -7 16 -20.5t15 -30.5t-8 -22q-26 -11 -55.5 -19.5t-38.5 -15.5q-9 -6 -31 -43q-9 -16 -18 -20q123 -51 179 -136q70 -107 56 -258q-14 -166 -113 -251q-52 -45 -126 -57.5t-145 20.5q-71 38 -104.5 129.5t-19.5 188.5q15 97 59 176.5t107 124.5v7q1 9 2.5 20
t5.5 27t12.5 25t19.5 6l21 -6q0 1 -1 2l-2 2q-8 9 -15 22.5t-11 30.5t11 22z" />
    <glyph glyph-name="Ocircumflex" unicode="&#xd4;" horiz-adv-x="567" 
d="M313 570q-34 6 -71.5 -25.5t-67.5 -103.5q-43 -101 -25 -208q8 -47 35 -82.5t65 -45.5q50 -13 98 0.5t75 46.5q43 53 59 129t-1 153q-13 56 -48.5 99.5t-83.5 67.5q-12 -35 -35 -31zM395 930q5 -13 9.5 -28t6.5 -22t5.5 -14.5t8.5 -12.5q4 -6 16.5 -15t18.5 -15
q24 -24 25 -37t-26 -34q-67 -42 -75 -13q-6 20 -9.5 39.5t-6 29t-7.5 15.5t-17 13q-38 -13 -46 -22t-22 -49q-5 -12 -10 -17q5 0 7 -1q66 -17 135.5 -56.5t110.5 -101.5q70 -107 56 -258q-14 -166 -113 -251q-52 -45 -126 -57.5t-145 20.5q-71 38 -104.5 129.5t-19.5 188.5
q15 97 59 176.5t107 124.5v7q5 50 18 68q-17 -4 -42 16q-9 8 -18.5 20t-16 28t7.5 23q16 10 35 20.5t28.5 16.5t17.5 14q6 6 15 21t15 22q18 23 29 27.5t30 -9.5q35 16 43 -6z" />
    <glyph glyph-name="Otilde" unicode="&#xd5;" horiz-adv-x="567" 
d="M233 662v7q1 9 2.5 20t5.5 27t12.5 25t19.5 6q66 -17 135.5 -56.5t110.5 -101.5q70 -107 56 -258q-14 -166 -113 -251q-52 -45 -126 -57.5t-145 20.5q-71 38 -104.5 129.5t-19.5 188.5q15 97 59 176.5t107 124.5zM313 570q-34 6 -71.5 -25.5t-67.5 -103.5
q-43 -101 -25 -208q8 -47 35 -82.5t65 -45.5q50 -13 98 0.5t75 46.5q43 53 59 129t-1 153q-13 56 -48.5 99.5t-83.5 67.5q-12 -35 -35 -31zM132 781q74 101 128 104q29 2 55.5 -8t51.5 -26t34 -20q13 -5 25 6t39 46q15 20 23 26.5t19.5 5t27.5 -16.5q54 -54 29 -72
q-60 -40 -125.5 -47.5t-115.5 18.5q-56 28 -86 -52q-11 -28 -23.5 -33.5t-38.5 6.5q-8 4 -16 9.5t-18.5 15.5t-12 18.5t3.5 19.5z" />
    <glyph glyph-name="Odieresis" unicode="&#xd6;" horiz-adv-x="567" 
d="M313 570q-34 6 -71.5 -25.5t-67.5 -103.5q-43 -101 -25 -208q8 -47 35 -82.5t65 -45.5q50 -13 98 0.5t75 46.5q43 53 59 129t-1 153q-13 56 -48.5 99.5t-83.5 67.5q-12 -35 -35 -31zM316 878q-4 -14 -8.5 -25t-7.5 -17l-5 -10l-3 -6t-1 -3l3 -1q2 0 5.5 -2t5.5 -6
q12 -27 6.5 -42t-35.5 -20q66 -17 134.5 -56.5t108.5 -100.5q70 -107 56 -258q-14 -166 -113 -251q-52 -45 -126 -57.5t-145 20.5q-71 38 -104.5 129.5t-19.5 188.5q15 97 59 176.5t107 124.5v7q5 62 25 76q-65 -3 -59 22q4 21 10 34t10 17.5t4 5.5q0 2 -2 5.5t-6 11
t-8 18.5q-22 51 41 53q21 1 47 -7t21 -27zM516 878q-3 -17 -7 -30t-6.5 -18.5t-4 -9.5t-1.5 -6q0 -1 6.5 -4t8.5 -9q12 -28 6 -43t-39 -19q-7 -1 -18 -1.5t-25.5 0.5t-23.5 7t-7 16q3 13 6.5 23t6.5 15t6 8.5t4 4.5t1 2q0 2 -2.5 5t-7.5 11t-10 18q-26 49 36 57
q21 4 47.5 -1.5t23.5 -25.5z" />
    <glyph glyph-name="multiply" unicode="&#xd7;" horiz-adv-x="447" 
d="M288 297q74 -64 132 -103q22 -14 29 -20.5t7 -18t-13 -29.5q-5 -6 -11.5 -13t-19 -17.5t-20.5 -11.5t-17 5q-85 105 -141 161q-2 -2 -6.5 -6t-6.5 -6q-74 -74 -100 -139q-10 -27 -24.5 -31.5t-39.5 10.5q-19 12 -35 32t-2 34q45 43 164 153q-98 84 -144 113
q-25 16 -27 31t18 36q7 9 19 18t28 14.5t25 -7.5q66 -93 132 -156q64 64 92 106q15 22 21 28.5t17.5 6.5t29.5 -13q61 -49 37 -68q-26 -20 -74 -56t-70 -53z" />
    <glyph glyph-name="Oslash" unicode="&#xd8;" horiz-adv-x="659" 
d="M501 475q-111 -136 -177 -232q-51 -71 -85 -122q75 -41 153 -6q77 34 124 93.5t45 121.5q-1 73 -60 145zM445 531q-17 15 -43 32q-3 2 -24 14q-108 6 -167 -35q-39 -28 -63.5 -77t-26.5 -103q-7 -111 62 -194q49 65 171 235q15 21 45.5 64t45.5 64zM140 112q-4 4 -10 12
q-58 75 -71 178.5t19 194.5q14 44 50.5 82.5t84.5 64.5q57 30 189 39q27 2 38.5 -4.5t12.5 -26.5q17 -12 48 -38q36 56 53 85q2 4 7 13.5t6.5 11.5l6 8t6.5 7t6.5 3t8.5 0.5t10 -4t14 -6.5q19 -9 38.5 -28t7.5 -33q-17 -20 -51 -60.5t-51 -60.5q29 -36 45 -69
q30 -63 32 -133t-26 -131q-28 -60 -88.5 -108t-133.5 -68q-97 -28 -190 23q-51 -83 -77 -143q-13 -27 -25.5 -32t-37.5 8q-19 10 -36.5 29t-4.5 35q80 100 119 151z" />
    <glyph glyph-name="Ugrave" unicode="&#xd9;" horiz-adv-x="647" 
d="M166 643q-9 -84 -13 -137.5t-3 -136t13 -148.5q9 -49 33 -87t57 -50q39 -14 88 -7t82 32q87 65 117 217q24 124 1 271q-10 37 -7 53.5t37 24.5q86 17 86 -18q2 -277 -60 -450q-20 -56 -60.5 -103.5t-92.5 -74.5q-56 -29 -120 -33.5t-117 23.5q-114 70 -143 291
q-9 62 -13.5 167.5t-8.5 141.5q-4 34 5 47t41 14q14 1 30.5 -1t32.5 -11t15 -25zM312 938q12 -20 20 -36.5t11.5 -23t6.5 -9.5q5 -5 15 -10t14 -9q23 -22 24 -36t-26 -34q-7 -6 -22 -13.5t-32.5 -11t-20.5 10.5q-6 21 -6.5 35t0.5 19l2 4q-6 4 -48 21q-49 22 -10 67
q9 9 20.5 18t28 15.5t23.5 -7.5z" />
    <glyph glyph-name="Uacute" unicode="&#xda;" horiz-adv-x="647" 
d="M166 643q-9 -84 -13 -137.5t-3 -136t13 -148.5q9 -49 33 -87t57 -50q39 -14 88 -7t82 32q87 65 117 217q24 124 1 271q-10 37 -7 53.5t37 24.5q86 17 86 -18q2 -277 -60 -450q-20 -56 -60.5 -103.5t-92.5 -74.5q-56 -29 -120 -33.5t-117 23.5q-114 70 -143 291
q-9 62 -13.5 167.5t-8.5 141.5q-4 34 5 47t41 14q14 1 30.5 -1t32.5 -11t15 -25zM192 788q18 11 40 24t34 21t22 16l44 44q16 15 26 20.5t21 1t23 -22.5q4 -6 9.5 -15.5t11 -23t4.5 -24t-11 -13.5q-20 -6 -45 -12.5t-36.5 -10.5t-19.5 -11q-12 -10 -29 -53q-20 -50 -66 -12
q-10 8 -19.5 20t-16 28t7.5 23z" />
    <glyph glyph-name="Ucircumflex" unicode="&#xdb;" horiz-adv-x="647" 
d="M166 643q-9 -84 -13 -137.5t-3 -136t13 -148.5q9 -49 33 -87t57 -50q39 -14 88 -7t82 32q87 65 117 217q24 124 1 271q-10 37 -7 53.5t37 24.5q86 17 86 -18q2 -277 -60 -450q-20 -56 -60.5 -103.5t-92.5 -74.5q-56 -29 -120 -33.5t-117 23.5q-114 70 -143 291
q-9 62 -13.5 167.5t-8.5 141.5q-4 34 5 47t41 14q14 1 30.5 -1t32.5 -11t15 -25zM378 935q7 -14 15 -32t12.5 -27t10.5 -19.5t12 -18.5q3 -4 18.5 -21.5t24.5 -29.5q20 -24 19 -39.5t-30 -29.5q-7 -3 -17 -7t-24 -7.5t-24.5 -1t-11.5 12.5q-2 15 -5 35t-4 29t-4.5 18.5
t-9.5 16.5q-11 12 -29 22q-39 -35 -45 -43q-17 -21 -27 -65q-13 -52 -64 -23q-19 12 -36 32t-3 34q17 15 38.5 33t33 29t19.5 22q10 13 22 52q6 22 11.5 30.5t18 12t31.5 -8.5l6 -3q33 16 42 -3z" />
    <glyph glyph-name="Udieresis" unicode="&#xdc;" horiz-adv-x="647" 
d="M166 643q-9 -84 -13 -137.5t-3 -136t13 -148.5q9 -49 33 -87t57 -50q39 -14 88 -7t82 32q87 65 117 217q24 124 1 271q-10 37 -7 53.5t37 24.5q86 17 86 -18q2 -277 -60 -450q-20 -56 -60.5 -103.5t-92.5 -74.5q-56 -29 -120 -33.5t-117 23.5q-114 70 -143 291
q-9 62 -13.5 167.5t-8.5 141.5q-4 34 5 47t41 14q14 1 30.5 -1t32.5 -11t15 -25zM289 874q-3 -22 -7.5 -38t-6.5 -21.5t-1 -8.5q0 -2 6 -7t8 -10q12 -28 6 -43t-38 -19q-8 -1 -19 -1.5t-25.5 0.5t-23 7t-6.5 16q3 13 6 23.5t6 15.5t6 8.5t4 5t1 2.5q0 2 -2.5 5.5t-8 12
t-11.5 18.5q-26 48 34 58q10 1 27 2t32 -5.5t13 -20.5zM485 872q-3 -22 -7 -37.5t-6 -21t-2 -8.5q0 -2 6 -6t8 -10q13 -28 6.5 -43t-38.5 -19q-7 -1 -18 -1.5t-25.5 0.5t-23.5 7t-7 16q3 13 6 23t6 15t6 8.5t4 4.5t1 2q0 3 -2.5 6.5t-8 11.5t-10.5 18q-27 48 33 59
q22 4 48.5 -1t23.5 -24z" />
    <glyph glyph-name="Yacute" unicode="&#xdd;" horiz-adv-x="499" 
d="M126 692q11 -27 28 -70t27.5 -67t21.5 -43q19 -35 66 -79q8 -6 11 -9q80 140 102 238q8 33 21.5 41t44.5 -2q14 -5 28.5 -13t26 -22.5t3.5 -28.5q-213 -341 -226 -363q-85 -144 -117 -233q-2 -4 -5.5 -14t-4.5 -13t-4 -9.5t-5 -8.5l-5.5 -5.5t-7 -3.5t-9 -0.5t-12 1.5
t-14.5 5l-7.5 3t-11 5t-12.5 6.5t-12.5 8t-11 9t-8 9.5t-3 10t3.5 10q32 48 92 134.5t87 127.5q-12 0 -16 10q-22 44 -46 103.5t-36 80.5q-28 53 -77 92q-48 39 2 77q8 6 18.5 12t24.5 11.5t26 3.5t17 -14zM139 803q19 10 40 20.5t32.5 16.5t19.5 13q6 4 11 10.5t11 15.5
t11 15q14 18 23 24.5t20.5 3.5t26.5 -20q49 -62 23 -74q-22 -10 -44 -17t-34 -12t-20 -11q-13 -12 -30 -50q-23 -49 -67 -7q-6 6 -12.5 14.5t-13.5 20.5t-6.5 22t9.5 15z" />
    <glyph glyph-name="Thorn" unicode="&#xde;" horiz-adv-x="520" 
d="M181 210q93 -31 152 -8q53 21 90 63t39 87q1 33 -34 64t-91 44q-62 15 -162 -3q-1 -73 2 -163q2 -28 4 -84zM188 107q2 -20 8 -60q8 -32 3 -46t-36 -18q-11 -2 -26 -2.5t-32 5t-16 18.5q22 256 17 388q-9 181 -30 262q-8 29 0 41t36 16q10 0 26.5 0.5t31 -7t13.5 -21.5
q-5 -61 -6 -120q152 -6 232 -42q44 -19 75.5 -53t41.5 -73q10 -43 -1 -89t-39 -79q-49 -57 -127.5 -87.5t-170.5 -32.5z" />
    <glyph glyph-name="germandbls" unicode="&#xdf;" horiz-adv-x="561" 
d="M26 1q3 36 9 115t12.5 147.5t16.5 130.5q25 146 98 218q52 52 126.5 68.5t132.5 -8.5q75 -30 116.5 -109.5t4.5 -143.5q-18 -31 -52 -52q19 -14 32 -30q43 -52 48 -124.5t-30 -124.5q-45 -65 -130.5 -92.5t-178.5 -3.5q-66 16 -25 70q4 6 11 13.5t18.5 17.5t21 11.5
t17.5 -5.5q53 -61 140 -26q41 18 68 56.5t22 76.5q-7 51 -58 82t-120 32h-7q-1 0 -4 -1t-4 -2q-9 -4 -19.5 -9.5t-15 -8t-11 -3t-12.5 5t-13 16.5q-4 6 -9.5 15t-10.5 22t-4 24t10 15q24 9 66 16q13 26 32 21q26 -8 40 -11q23 1 46 6q34 5 56.5 33.5t17.5 55.5
q-6 33 -39.5 61t-77.5 39q-40 9 -84.5 -1t-62.5 -41q-49 -84 -72.5 -183.5t-22 -187t9.5 -180.5q3 -30 -5 -41.5t-35 -12.5q-13 -1 -27.5 1t-28.5 10t-13 22z" />
    <glyph glyph-name="agrave" unicode="&#xe0;" 
d="M377 141q0 5 0.5 16t0.5 16q-20 9 -46 23.5t-39.5 21.5t-32 12t-35.5 3q-57 -6 -91.5 -37t-27.5 -54q5 -19 36.5 -33t74.5 -15q54 -1 135 35q13 5 25 12zM8 407q126 117 234 123q77 4 137.5 -52.5t72.5 -132.5q7 -50 7.5 -111.5t1 -99t8.5 -50.5q5 -7 13.5 -19t10.5 -16
t2.5 -12t-5 -14.5t-17.5 -16.5q-7 -5 -18 -11.5t-26 -14t-27 -7.5t-14 11l-6 33q-110 -27 -185 -18q-95 10 -138 67q-27 35 -29.5 80.5t21.5 81.5t74.5 60.5t110.5 30.5q16 1 36 -1t30.5 -4t40 -9.5t35.5 -8.5q-5 88 -39 135q-25 33 -103 4t-116 -84q-20 -29 -33 -33.5
t-40 12.5q-21 14 -38.5 37.5t-0.5 39.5zM233 727q9 -16 16 -32.5t11 -24.5t9 -14q5 -4 17 -10t19 -11q18 -14 24.5 -23t3 -20.5t-20.5 -26.5q-6 -5 -14.5 -11t-22 -14t-22 -7.5t-14.5 9.5q-9 19 -14 37.5t-7.5 27t-7.5 13.5q-4 3 -8.5 5t-14 5t-17.5 6q-52 21 -9 67
q8 9 20.5 18t29 14.5t22.5 -8.5z" />
    <glyph glyph-name="aacute" unicode="&#xe1;" 
d="M377 141q0 5 0.5 16t0.5 16q-20 9 -46 23.5t-39.5 21.5t-32 12t-35.5 3q-57 -6 -91.5 -37t-27.5 -54q5 -19 36.5 -33t74.5 -15q54 -1 135 35q13 5 25 12zM8 407q126 117 234 123q77 4 137.5 -52.5t72.5 -132.5q7 -50 7.5 -111.5t1 -99t8.5 -50.5q5 -7 13.5 -19t10.5 -16
t2.5 -12t-5 -14.5t-17.5 -16.5q-7 -5 -18 -11.5t-26 -14t-27 -7.5t-14 11l-6 33q-110 -27 -185 -18q-95 10 -138 67q-27 35 -29.5 80.5t21.5 81.5t74.5 60.5t110.5 30.5q16 1 36 -1t30.5 -4t40 -9.5t35.5 -8.5q-5 88 -39 135q-25 33 -103 4t-116 -84q-20 -29 -33 -33.5
t-40 12.5q-21 14 -38.5 37.5t-0.5 39.5zM130 634q9 3 25 7.5t23.5 7t18 7.5t19.5 11q5 3 16.5 12t23 16t24.5 12q29 12 44.5 5.5t19.5 -38.5q1 -7 1 -18t-1 -25.5t-6.5 -23.5t-15.5 -7q-37 7 -55 7t-33 -11q-6 -4 -10 -9t-8.5 -15t-7.5 -16q-14 -23 -31.5 -21.5t-35.5 24.5
q-7 10 -13.5 23.5t-9.5 31t12 20.5z" />
    <glyph glyph-name="acircumflex" unicode="&#xe2;" 
d="M377 141q0 5 0.5 16t0.5 16q-20 9 -46 23.5t-39.5 21.5t-32 12t-35.5 3q-57 -6 -91.5 -37t-27.5 -54q5 -19 36.5 -33t74.5 -15q54 -1 135 35q13 5 25 12zM291 740q9 -18 16.5 -36t11.5 -26t9 -13q3 -4 7.5 -5.5t11.5 -3t11 -3.5q30 -15 35 -27t-14 -40q-13 -18 -35 -35
t-32 -2q-12 17 -20 32.5t-13 27t-7 15.5q-44 -30 -47 -34q-4 -5 -7 -11t-6 -14.5t-5 -13.5q-11 -24 -21 -31q31 9 56 10q77 4 137.5 -52.5t72.5 -132.5q7 -50 7.5 -111.5t1 -99t8.5 -50.5q5 -7 13.5 -19t10.5 -16t2.5 -12t-5 -14.5t-17.5 -16.5q-7 -5 -18 -11.5t-26 -14
t-27 -7.5t-14 11l-6 33q-110 -27 -185 -18q-95 10 -138 67q-27 35 -29.5 80.5t21.5 81.5t74.5 60.5t110.5 30.5q16 1 36 -1t30.5 -4t40 -9.5t35.5 -8.5q-5 88 -39 135q-25 33 -103 4t-116 -84q-20 -29 -33 -33.5t-40 12.5q-21 14 -38.5 37.5t-0.5 39.5q84 79 162 107
q-12 2 -30 15t-35 35t-2 33q24 17 51 30.5t33 20.5q8 10 12 29q-1 11 7 26q8 20 24 25q47 39 61 12z" />
    <glyph glyph-name="atilde" unicode="&#xe3;" 
d="M377 141q0 5 0.5 16t0.5 16q-20 9 -46 23.5t-39.5 21.5t-32 12t-35.5 3q-57 -6 -91.5 -37t-27.5 -54q5 -19 36.5 -33t74.5 -15q54 -1 135 35q13 5 25 12zM8 407q126 117 234 123q77 4 137.5 -52.5t72.5 -132.5q7 -50 7.5 -111.5t1 -99t8.5 -50.5q5 -7 13.5 -19t10.5 -16
t2.5 -12t-5 -14.5t-17.5 -16.5q-7 -5 -18 -11.5t-26 -14t-27 -7.5t-14 11l-6 33q-110 -27 -185 -18q-95 10 -138 67q-27 35 -29.5 80.5t21.5 81.5t74.5 60.5t110.5 30.5q16 1 36 -1t30.5 -4t40 -9.5t35.5 -8.5q-5 88 -39 135q-25 33 -103 4t-116 -84q-20 -29 -33 -33.5
t-40 12.5q-21 14 -38.5 37.5t-0.5 39.5zM34 592q39 49 87 71.5t85.5 21.5t71.5 -15q17 -8 28.5 -2t24.5 28q19 34 28 38q12 6 37 -9q7 -4 14.5 -10t20 -17.5t14 -19t-4.5 -16.5q-35 -28 -68.5 -41.5t-64.5 -12.5t-53 6t-48 16q-47 18 -64 -60q-6 -29 -18.5 -36.5t-38.5 1.5
q-21 8 -42 24.5t-9 32.5z" />
    <glyph glyph-name="adieresis" unicode="&#xe4;" 
d="M377 141q0 5 0.5 16t0.5 16q-20 9 -46 23.5t-39.5 21.5t-32 12t-35.5 3q-57 -6 -91.5 -37t-27.5 -54q5 -19 36.5 -33t74.5 -15q54 -1 135 35q13 5 25 12zM8 407q126 117 234 123q77 4 137.5 -52.5t72.5 -132.5q7 -50 7.5 -111.5t1 -99t8.5 -50.5q5 -7 13.5 -19t10.5 -16
t2.5 -12t-5 -14.5t-17.5 -16.5q-7 -5 -18 -11.5t-26 -14t-27 -7.5t-14 11l-6 33q-110 -27 -185 -18q-95 10 -138 67q-27 35 -29.5 80.5t21.5 81.5t74.5 60.5t110.5 30.5q16 1 36 -1t30.5 -4t40 -9.5t35.5 -8.5q-5 88 -39 135q-25 33 -103 4t-116 -84q-20 -29 -33 -33.5
t-40 12.5q-21 14 -38.5 37.5t-0.5 39.5zM233 677q-6 -17 -13 -28.5t-10 -16t-3 -7.5q0 -2 5.5 -6.5t6.5 -9.5q11 -28 3 -43t-41 -16q-79 0 -71 29q6 20 13 33t11.5 18t4.5 8q0 2 -2 4t-6.5 7t-7.5 13q-10 25 2 38.5t42 13.5q22 0 47.5 -9.5t18.5 -27.5zM415 685
q-4 -14 -8 -25.5t-7 -16.5t-5 -9t-2 -7q0 -2 6 -6.5t8 -10.5q13 -28 6.5 -43t-38.5 -19q-7 -1 -18 -1.5t-25.5 0.5t-23.5 6.5t-7 15.5q4 21 10.5 35.5t10 21t3.5 9.5q0 2 -2.5 4.5t-7 7.5t-8.5 13q-25 49 38 56q13 1 28.5 -0.5t30.5 -9.5t11 -21z" />
    <glyph glyph-name="aring" unicode="&#xe5;" 
d="M377 141q0 5 0.5 16t0.5 16q-20 9 -46 23.5t-39.5 21.5t-32 12t-35.5 3q-57 -6 -91.5 -37t-27.5 -54q5 -19 36.5 -33t74.5 -15q54 -1 135 35q13 5 25 12zM241 642q-1 0 -11 -8q-3 -3 6 -6q11 -5 25 -2q8 2 15 10q2 4 4 7q-3 -2 -7 -2q-24 0 -32 1zM329 706q48 -51 22 -94
q-22 -38 -76.5 -51t-88.5 17q-28 33 -12 78t60 87q5 9 11 11q2 2 5.5 5t5.5 4q42 34 64 -21q8 -18 9 -36zM8 407q126 117 234 123q77 4 137.5 -52.5t72.5 -132.5q7 -50 7.5 -111.5t1 -99t8.5 -50.5q5 -7 13.5 -19t10.5 -16t2.5 -12t-5 -14.5t-17.5 -16.5q-7 -5 -18 -11.5
t-26 -14t-27 -7.5t-14 11l-6 33q-110 -27 -185 -18q-95 10 -138 67q-27 35 -29.5 80.5t21.5 81.5t74.5 60.5t110.5 30.5q16 1 36 -1t30.5 -4t40 -9.5t35.5 -8.5q-5 88 -39 135q-25 33 -103 4t-116 -84q-20 -29 -33 -33.5t-40 12.5q-21 14 -38.5 37.5t-0.5 39.5z" />
    <glyph glyph-name="ae" unicode="&#xe6;" horiz-adv-x="751" 
d="M433 307q92 -12 152 -12q50 0 93 26q4 2 5 6.5t-3.5 12t-14.5 14.5q-47 35 -104 46.5t-93 -13.5q-23 -19 -35 -80zM347 213q-4 4 -6 13q-134 -7 -188 -26q-21 -8 -30 -28t-3 -38q8 -22 29 -40t45 -19q54 -2 94.5 32.5t54.5 88.5q2 7 4 17zM32 436q77 91 148 101
q56 8 111 -13t79 -61q16 -26 28 -61q17 28 37 46q30 26 83.5 28.5t96.5 -14.5q60 -21 110.5 -73t31.5 -82q-13 -20 -33 -36t-38 -26.5t-47.5 -17.5t-47.5 -10.5t-54 -6t-49.5 -2.5t-50.5 -1q4 -15 5 -24q21 -83 69 -90q15 -2 31 -2.5t35 1.5t32.5 3.5t36.5 5.5t34 5
q32 7 46.5 2.5t18.5 -35.5q5 -10 1 -42.5t-23 -31.5q-31 0 -72 0.5t-79 1.5t-78 13.5t-67 35.5q-26 23 -40 59q-50 -94 -143 -109q-63 -10 -125 25.5t-78 90.5t29 111t110 77q30 9 81.5 13t67.5 8q16 5 18 5q-24 109 -81 124q-41 11 -76 -7t-57 -56q-15 -26 -27 -30.5
t-36 9.5q-19 11 -35 30.5t-3 35.5z" />
    <glyph glyph-name="ccedilla" unicode="&#xe7;" horiz-adv-x="418" 
d="M338 312q-111 96 -162 64q-39 -22 -57.5 -74.5t-7.5 -105.5q6 -31 30.5 -58.5t55.5 -37.5q24 -9 55 1t58 31q5 4 16 13.5t14.5 11.5t11 5.5t11.5 1t11.5 -7.5t15.5 -14q57 -68 27 -84q-51 -26 -100 -40t-103.5 -10t-93.5 34q-42 32 -65 83t-24 102t11 102q14 49 56 89.5
t93 54.5q71 19 201 -47q30 -15 35 -30.5t-13 -42.5q-12 -21 -35 -38.5t-41 -2.5zM136 -164q11 14 24 28t19.5 22t10.5 17q3 6 8 23t10 28q15 29 27 34.5t40 -13.5q18 -13 35 -35t2 -32q-14 -10 -32 -20.5t-25 -16t-10 -13.5q-2 -4 0 -45q0 -55 -59 -34q-21 8 -41.5 25
t-8.5 32z" />
    <glyph glyph-name="egrave" unicode="&#xe8;" horiz-adv-x="477" 
d="M129 303q78 -26 142 -5q43 14 74.5 38t29.5 38q-2 19 -33.5 29.5t-73.5 1.5q-95 -20 -134 -91q-1 -1 -1.5 -3t-1.5 -4zM124 181q13 -28 36 -43q61 -39 229 1q11 3 27.5 8t21.5 5.5t13.5 -0.5t13.5 -8.5t10 -22.5q5 -11 9.5 -28t2.5 -37t-17 -22q-6 -1 -36 -7t-49.5 -9
t-58.5 -6.5t-63 0.5q-76 6 -135 36.5t-83 77.5q-26 58 -17 122t46 119q60 88 190 118q38 11 85.5 2.5t74.5 -38.5q31 -37 27.5 -88t-37.5 -82q-55 -50 -132.5 -74.5t-157.5 -23.5zM231 738q10 -17 17 -32.5t10.5 -23t7.5 -11.5q4 -3 14.5 -5t16.5 -5q29 -14 34.5 -26.5
t-13.5 -40.5q-50 -62 -68 -37q-17 24 -26 47t-14 27q-3 3 -7.5 4.5t-14 4t-18.5 6.5q-52 19 -10 66q8 9 20 18.5t28 15.5t23 -8z" />
    <glyph glyph-name="eacute" unicode="&#xe9;" horiz-adv-x="477" 
d="M129 303q78 -26 142 -5q43 14 74.5 38t29.5 38q-2 19 -33.5 29.5t-73.5 1.5q-95 -20 -134 -91q-1 -1 -1.5 -3t-1.5 -4zM124 181q13 -28 36 -43q61 -39 229 1q11 3 27.5 8t21.5 5.5t13.5 -0.5t13.5 -8.5t10 -22.5q5 -11 9.5 -28t2.5 -37t-17 -22q-6 -1 -36 -7t-49.5 -9
t-58.5 -6.5t-63 0.5q-76 6 -135 36.5t-83 77.5q-26 58 -17 122t46 119q60 88 190 118q38 11 85.5 2.5t74.5 -38.5q31 -37 27.5 -88t-37.5 -82q-55 -50 -132.5 -74.5t-157.5 -23.5zM88 590q20 12 42 24t35 19.5t22 15.5q6 5 31 44q13 19 21 26t20 5t28 -18q16 -14 31 -38
t-1 -33q-26 -15 -59.5 -29t-43.5 -23q-16 -15 -33 -54q-21 -50 -66 -10q-9 8 -18.5 20t-16 28t7.5 23z" />
    <glyph glyph-name="ecircumflex" unicode="&#xea;" horiz-adv-x="477" 
d="M129 303q78 -26 142 -5q43 14 74.5 38t29.5 38q-2 19 -33.5 29.5t-73.5 1.5q-95 -20 -134 -91q-1 -1 -1.5 -3t-1.5 -4zM124 181q13 -28 36 -43q61 -39 229 1q11 3 27.5 8t21.5 5.5t13.5 -0.5t13.5 -8.5t10 -22.5q5 -11 9.5 -28t2.5 -37t-17 -22q-6 -1 -36 -7t-49.5 -9
t-58.5 -6.5t-63 0.5q-76 6 -135 36.5t-83 77.5q-26 58 -17 122t46 119q60 88 190 118q38 11 85.5 2.5t74.5 -38.5q31 -37 27.5 -88t-37.5 -82q-55 -50 -132.5 -74.5t-157.5 -23.5zM277 736q10 -17 18.5 -34.5t12.5 -25t10 -12.5q5 -4 19 -8t21 -8q29 -15 34.5 -27t-13.5 -40
q-13 -18 -35 -35t-32 -2q-13 19 -23 36.5t-15 27t-11 14.5q-7 5 -21 11q-11 -10 -30 -25.5t-26 -23.5q-14 -17 -26 -56q-15 -52 -65 -17q-18 13 -33.5 34.5t0.5 33.5q17 13 37.5 27t30.5 22t17 16q4 5 13 41q7 31 17.5 39.5t39.5 -1.5q47 37 60 13z" />
    <glyph glyph-name="edieresis" unicode="&#xeb;" horiz-adv-x="477" 
d="M129 303q78 -26 142 -5q43 14 74.5 38t29.5 38q-2 19 -33.5 29.5t-73.5 1.5q-95 -20 -134 -91q-1 -1 -1.5 -3t-1.5 -4zM124 181q13 -28 36 -43q61 -39 229 1q11 3 27.5 8t21.5 5.5t13.5 -0.5t13.5 -8.5t10 -22.5q5 -11 9.5 -28t2.5 -37t-17 -22q-6 -1 -36 -7t-49.5 -9
t-58.5 -6.5t-63 0.5q-76 6 -135 36.5t-83 77.5q-26 58 -17 122t46 119q60 88 190 118q38 11 85.5 2.5t74.5 -38.5q31 -37 27.5 -88t-37.5 -82q-55 -50 -132.5 -74.5t-157.5 -23.5zM220 675q-5 -18 -10.5 -31t-8 -18t-2.5 -9q0 -3 6 -8t8 -9q12 -28 6 -43t-39 -19
q-7 -1 -18 -1.5t-25 0.5t-23 6.5t-7 15.5q4 21 10 35.5t9.5 20.5t3.5 9q0 2 -2 4.5t-7 8t-9 13.5q-12 25 -1 39t40 16q11 1 27.5 -0.5t31 -9t10.5 -20.5zM417 678q-3 -22 -7.5 -36.5t-6.5 -20t-2 -7.5q1 -3 7 -7t8 -9q13 -28 6.5 -43t-38.5 -19q-7 -1 -18 -1.5t-25.5 0.5
t-23.5 6.5t-7 15.5q4 21 10 33.5t9.5 15.5t3.5 4q0 2 -2.5 5t-8 10.5t-11.5 17.5q-27 48 33 59q11 1 28 2t32 -5.5t13 -20.5z" />
    <glyph glyph-name="igrave" unicode="&#xec;" horiz-adv-x="191" 
d="M193 484q-16 -172 -14 -268q2 -90 16 -157q11 -34 5 -50.5t-42 -20.5q-11 -5 -48.5 -1t-35.5 25q3 27 9.5 74t9.5 72t5.5 59t1.5 63q-4 104 -27 168q-11 32 -2 46.5t41 19.5q12 1 31 1.5t35.5 -7.5t14.5 -24zM110 703q39 -42 67 -83q11 -17 7 -37.5t-21 -31.5
q-16 -11 -36.5 -7t-31.5 21q-19 28 -59 73q-13 15 -12 35.5t16 34.5t36 12.5t34 -17.5z" />
    <glyph glyph-name="iacute" unicode="&#xed;" horiz-adv-x="197" 
d="M193 484q-16 -172 -14 -268q2 -90 16 -157q11 -34 5 -50.5t-42 -20.5q-11 -5 -48.5 -1t-35.5 25q3 27 9.5 74t9.5 72t5.5 59t1.5 63q-4 104 -27 168q-11 32 -2 46.5t41 19.5q12 1 31 1.5t35.5 -7.5t14.5 -24zM24 607q57 60 110 90q18 10 37.5 4t29.5 -23
q10 -18 4.5 -37.5t-23.5 -30.5q-39 -22 -85 -70q-14 -15 -34 -16t-36 13q-15 13 -16 34t13 36z" />
    <glyph glyph-name="icircumflex" unicode="&#xee;" horiz-adv-x="240" 
d="M193 484q-16 -172 -14 -268q2 -90 16 -157q11 -34 5 -50.5t-42 -20.5q-11 -5 -48.5 -1t-35.5 25q3 27 9.5 74t9.5 72t5.5 59t1.5 63q-4 104 -27 168q-11 32 -2 46.5t41 19.5q12 1 31 1.5t35.5 -7.5t14.5 -24zM183 701q12 -19 27 -37l3 -4q16 -19 29 -39q11 -17 7 -37
t-21 -31q-17 -12 -37 -8t-31 21q-8 12 -24 32l-1 1q-1 1 -1 2q-14 -16 -23 -27l-1 -2l-2 -2q-21 -24 -27 -32q-13 -16 -33 -19t-36 10q-17 13 -19.5 33t10.5 37q4 5 13 16t16 19l4 4q31 38 45 58q13 20 38 22q17 9 35 4t29 -21z" />
    <glyph glyph-name="idieresis" unicode="&#xef;" horiz-adv-x="286" 
d="M12 666l2 1l2 1q22 16 49 6q14 -5 23 -18q6 -6 9 -15q7 -18 6 -33q-2 -26 -19 -42q-40 -40 -91 -21q-12 3 -21 11q-14 11 -20 27q-8 22 3 44q7 15 22 25q14 9 28 12q1 0 3.5 0.5t3.5 1.5zM193 484q-16 -172 -14 -268q2 -90 16 -157q11 -34 5 -50.5t-42 -20.5
q-11 -5 -48.5 -1t-35.5 25q3 27 9.5 74t9.5 72t5.5 59t1.5 63q-4 104 -27 168q-11 32 -2 46.5t41 19.5q12 1 31 1.5t35.5 -7.5t14.5 -24zM217 669h7h3q24 0 40 -12q20 -14 25 -37q6 -13 4 -29q-2 -17 -5 -24q-4 -12 -8 -17q-12 -14 -27 -19q-15 -4 -24 -1q-8 -3 -15 -3
q-48 -7 -71 40q-22 45 14 77q13 12 35 17q12 7 22 8z" />
    <glyph glyph-name="eth" unicode="&#xf0;" horiz-adv-x="497" 
d="M431 350q-37 32 -86 50.5t-94 8.5q-50 -13 -91 -55t-55 -94t10 -110.5t77 -89.5q44 -24 104 -14.5t104 44.5q56 44 50 159q-3 54 -19 101zM226 616q-3 2 -21 16t-28 21q-17 13 -19.5 21t8.5 25q9 13 24 22.5t25 -0.5q10 -9 36.5 -33t41.5 -38q2 0 11 5q88 44 99 50
q13 8 17 10t11.5 3t11.5 -4t10 -16q2 -5 4.5 -11.5t5.5 -16.5t1 -17.5t-9 -8.5q-96 -22 -123 -32q42 -42 70 -82q36 -50 59 -108q5 -3 15 -11q16 -11 20 -14.5t9.5 -10.5t2.5 -13t-10 -15q-4 -6 -12 -14q6 -32 8 -44q12 -79 -7.5 -152t-73.5 -110q-62 -43 -143.5 -39.5
t-145.5 51.5q-39 29 -59.5 77t-18.5 96q3 98 79 176q74 75 174 80q33 3 71 -10q-41 58 -102 112q-44 -28 -69 -62q-13 -16 -23.5 -16.5t-23.5 14.5q-6 6 -11.5 15.5t-8.5 21t7 16.5q70 37 87 46z" />
    <glyph glyph-name="ntilde" unicode="&#xf1;" horiz-adv-x="455" 
d="M75 380q-3 12 -13 44q-11 32 -1.5 46t42.5 19q25 3 53.5 -2.5t27.5 -26.5q63 33 104 24q59 -13 92.5 -67t43.5 -123q6 -43 10 -123t10 -113q9 -35 4 -51t-41 -21q-12 -5 -49.5 -0.5t-34.5 25.5q1 11 9 72.5t9.5 82t3.5 65t-3 75.5t-15 59q-7 18 -27 21.5t-51 -13.5
t-63 -53q-8 -11 -17 -18q-3 -55 -2 -97q2 -102 8 -154q3 -23 2 -38t-11.5 -22t-35.5 -7q-10 0 -21 1t-27.5 4t-25.5 10.5t-7 18.5q16 67 22.5 95.5t12 72.5t4.5 79q0 45 -7 84q-9 19 -6 31zM69 559q32 54 78.5 77t82 21.5t70.5 -14.5q8 0 10.5 -0.5t11 5t14 10.5t18.5 15
t25 19q25 20 41 19t30 -30q5 -11 10 -24.5t5.5 -31t-12.5 -21.5q-132 -38 -225 -3q-23 10 -35.5 1t-13.5 -46q-1 -29 -12 -38.5t-39 -5.5q-22 4 -45.5 17.5t-13.5 29.5z" />
    <glyph glyph-name="ograve" unicode="&#xf2;" horiz-adv-x="489" 
d="M281 364q-71 18 -99 -7q-22 -22 -35.5 -58.5t-13.5 -75.5q2 -86 50 -119q24 -16 61.5 -19.5t66.5 8.5q38 17 64 54t30 80q4 41 -16.5 73.5t-53.5 44.5q-10 3 -23 6.5t-20 6t-11 6.5zM346 467q116 -57 143 -138q16 -51 8 -105t-35 -101q-25 -44 -68 -75t-93 -40
q-53 -9 -107.5 6t-82.5 49q-42 50 -54.5 124t9.5 141q23 68 86.5 110.5t143.5 47.5q41 3 50 -19zM239 740q9 -18 19 -40t17 -35t15 -23q4 -4 7.5 -5.5t5.5 -1.5t5 1l2 2q30 4 42 -7.5t6 -43.5q-3 -20 -15.5 -46t-28.5 -17q-27 16 -43.5 31.5t-31.5 37.5t-18 25
q-14 17 -47 32q-51 20 -8 67q9 9 21.5 17.5t29 14t22.5 -8.5z" />
    <glyph glyph-name="oacute" unicode="&#xf3;" horiz-adv-x="489" 
d="M281 364q-71 18 -99 -7q-22 -22 -35.5 -58.5t-13.5 -75.5q2 -86 50 -119q24 -16 61.5 -19.5t66.5 8.5q38 17 64 54t30 80q4 41 -16.5 73.5t-53.5 44.5q-10 3 -23 6.5t-20 6t-11 6.5zM346 467q116 -57 143 -138q16 -51 8 -105t-35 -101q-25 -44 -68 -75t-93 -40
q-53 -9 -107.5 6t-82.5 49q-42 50 -54.5 124t9.5 141q23 68 86.5 110.5t143.5 47.5q41 3 50 -19zM146 624q19 9 42.5 19t36 16t21.5 13q6 4 10.5 10.5t10 15.5t9.5 14q18 28 30.5 32t38.5 -18q3 -3 7 -7.5t10 -12t10.5 -14.5t7.5 -14.5t1.5 -13.5t-7.5 -9
q-28 -16 -61.5 -29.5t-43.5 -21.5q-17 -14 -37 -50q-27 -48 -68 -4q-6 7 -11.5 15.5t-12 21t-5.5 22.5t11 15z" />
    <glyph glyph-name="ocircumflex" unicode="&#xf4;" horiz-adv-x="489" 
d="M281 364q-71 18 -99 -7q-22 -22 -35.5 -58.5t-13.5 -75.5q2 -86 50 -119q24 -16 61.5 -19.5t66.5 8.5q38 17 64 54t30 80q4 41 -16.5 73.5t-53.5 44.5q-10 3 -23 6.5t-20 6t-11 6.5zM346 467q116 -57 143 -138q16 -51 8 -105t-35 -101q-25 -44 -68 -75t-93 -40
q-53 -9 -107.5 6t-82.5 49q-42 50 -54.5 124t9.5 141q23 68 86.5 110.5t143.5 47.5q41 3 50 -19zM326 664q4 -8 5 -9q3 -4 7.5 -7.5t11 -7t10.5 -6.5q26 -19 29 -32.5t-21 -37.5q-5 -5 -14 -11t-22 -13.5t-22 -7t-15 8.5q-8 18 -13 33.5t-8 28.5t-4 17q-9 -8 -15 -15
q-4 -6 -9.5 -20.5t-8.5 -21.5q-15 -29 -27 -34t-40 13q-18 13 -35 35t-2 33q18 13 36.5 22.5t27.5 15t13 11.5t5 12q-28 27 14 59q10 7 23.5 13.5t31 9t21.5 -12.5q9 -33 10 -36q25 -26 11 -40z" />
    <glyph glyph-name="otilde" unicode="&#xf5;" horiz-adv-x="489" 
d="M281 364q-71 18 -99 -7q-22 -22 -35.5 -58.5t-13.5 -75.5q2 -86 50 -119q24 -16 61.5 -19.5t66.5 8.5q38 17 64 54t30 80q4 41 -16.5 73.5t-53.5 44.5q-10 3 -23 6.5t-20 6t-11 6.5zM346 467q116 -57 143 -138q16 -51 8 -105t-35 -101q-25 -44 -68 -75t-93 -40
q-53 -9 -107.5 6t-82.5 49q-42 50 -54.5 124t9.5 141q23 68 86.5 110.5t143.5 47.5q41 3 50 -19zM45 593q3 4 14 21.5t15 22.5t13.5 18.5t15.5 19.5l14.5 14.5t16.5 13t16 7.5q73 24 157 -51q4 -3 6 -5q8 -7 12 -5.5t15 15.5q11 15 20 25q17 18 25.5 24.5t20 4t26.5 -19.5
q5 -6 11 -14t13.5 -21.5t7 -22.5t-8.5 -16q-13 -7 -34.5 -23.5t-39 -25.5t-36.5 -9q-24 0 -44 11.5t-42.5 35t-28.5 28.5q-10 6 -21.5 4t-27 -24t-29.5 -60q-11 -28 -23 -34t-38 5q-20 9 -38.5 26.5t-7.5 34.5z" />
    <glyph glyph-name="odieresis" unicode="&#xf6;" horiz-adv-x="489" 
d="M281 364q-71 18 -99 -7q-22 -22 -35.5 -58.5t-13.5 -75.5q2 -86 50 -119q24 -16 61.5 -19.5t66.5 8.5q38 17 64 54t30 80q4 41 -16.5 73.5t-53.5 44.5q-10 3 -23 6.5t-20 6t-11 6.5zM346 467q116 -57 143 -138q16 -51 8 -105t-35 -101q-25 -44 -68 -75t-93 -40
q-53 -9 -107.5 6t-82.5 49q-42 50 -54.5 124t9.5 141q23 68 86.5 110.5t143.5 47.5q41 3 50 -19zM221 677q-3 -22 -7 -37t-6 -20.5t-2 -8.5q0 -2 6.5 -7t8.5 -10q12 -28 6 -43t-39 -19q-7 -1 -18 -1.5t-25 0.5t-23 6.5t-7 15.5q3 14 6 24.5t6 15.5t6 8.5t4 5t1 2.5
q-1 2 -3.5 5t-7.5 10.5t-11 17.5q-27 48 33 59q10 1 27 2t32 -5.5t13 -20.5zM426 679q-4 -22 -9 -37.5t-7 -20.5t-2 -7q0 -1 6 -5t8 -10q13 -28 6.5 -43t-38.5 -19q-7 -1 -18 -1.5t-25.5 0.5t-23.5 6.5t-7 15.5q3 14 6 24.5t6 15.5t6 8.5t4 5t1 2.5q0 3 -2 6t-7 11t-10 18
q-26 49 35 57q11 1 28 1t31.5 -7t11.5 -21z" />
    <glyph glyph-name="divide" unicode="&#xf7;" horiz-adv-x="466" 
d="M107 320q34 -1 100.5 -5t98.5 -4q52 0 106 12q30 10 44.5 4.5t18.5 -36.5q6 -78 -22 -74q-29 4 -71.5 11.5t-69.5 11t-51 3.5q-61 0 -114 -26q-26 -12 -39.5 -5t-20.5 35q-6 13 -3 43.5t23 29.5zM209 493q14 -4 24.5 -8t15 -7t8 -4.5t6.5 -1.5q2 0 6 6t9 8q27 12 42.5 6
t19.5 -39q1 -7 1 -18t-1 -25.5t-6.5 -23.5t-15.5 -7q-20 4 -34 10.5t-19 10t-8 3.5q-2 0 -4 -2t-6.5 -7t-12.5 -9q-25 -12 -39 -1.5t-16 39.5q-1 12 0.5 28.5t9 31t20.5 10.5zM213 189q18 -5 32 -10.5t20.5 -8t11.5 -2.5q3 0 9 6t12 8q28 12 43 6t19 -39q1 -7 1.5 -18
t-0.5 -25.5t-6.5 -23.5t-15.5 -7q-21 4 -37 10.5t-23 10t-11 3.5q-3 0 -6.5 -2t-10 -7t-14.5 -9q-25 -12 -39 -1.5t-16 39.5q-1 13 0.5 28.5t9 30.5t21.5 11z" />
    <glyph glyph-name="oslash" unicode="&#xf8;" 
d="M149 182q39 73 79 139q2 4 52 80q-41 22 -61 12q-24 -12 -42.5 -46.5t-26.5 -79.5q-10 -55 -1 -105zM336 486q16 29 23 47q2 5 6 15.5t5 13.5t4.5 9t6.5 7t8.5 2.5t12 0t15.5 -4.5q72 -30 56 -53q-31 -43 -63 -84q58 -60 78 -141q27 -111 -31 -194q-30 -43 -78 -68.5
t-100 -24.5q-60 2 -114 32q-20 -51 -32 -103q-7 -29 -19.5 -36t-39.5 3q-12 4 -24.5 11.5t-22.5 21t-2 25.5q32 52 79 136q-2 4 -3 7q-27 63 -25 137t29 147q15 39 45 69.5t68 41.5q45 12 118 -17zM350 363q-78 -100 -115 -168q-19 -34 -44 -88q50 -33 98 -25
q46 6 81.5 40.5t41.5 81.5q5 41 -14.5 93t-41.5 68q-1 -1 -3 -1t-3 -1z" />
    <glyph glyph-name="ugrave" unicode="&#xf9;" horiz-adv-x="516" 
d="M150 431q-26 -151 -6 -231q18 -67 61 -98q23 -16 48.5 -18.5t40.5 11.5q41 45 54 134.5t-12 162.5q-4 10 -10 23t-8 18t-1.5 12.5t7 13.5t19.5 14q78 42 87 8q0 -3 2 -8t2 -7q20 -8 19 -25q0 -15 -0.5 -41.5t-0.5 -38.5q4 -38 1 -82q3 -82 14 -116q2 -9 7 -17.5t16 -22
t16 -21.5q22 -27 20.5 -45t-34.5 -34q-8 -4 -19 -7.5t-27 -8t-27.5 -1t-13.5 14.5q-6 39 -9 64q-10 -14 -16 -19q-35 -37 -82 -52.5t-88 -2.5q-50 17 -92.5 69.5t-68.5 124.5q-5 13 -8.5 27t-6 31t-4 28.5t-2.5 32.5t-1.5 30t-1 33.5t-0.5 31.5q-2 34 8.5 46t42.5 11
q14 -1 30 -4t31.5 -14t12.5 -27zM228 748q34 -77 50 -94q7 -9 25.5 -23.5t24.5 -19.5q17 -15 23 -24.5t2.5 -20.5t-21.5 -25q-6 -5 -14.5 -10.5t-21.5 -12.5t-23.5 -6.5t-14.5 9.5q-8 19 -17 45t-14.5 38t-14.5 21q-14 14 -57 40q-46 28 -1 67q9 8 22.5 16t30 11t21.5 -11z
" />
    <glyph glyph-name="uacute" unicode="&#xfa;" horiz-adv-x="516" 
d="M139 611q14 8 31 18l25.5 15t18 12t16.5 14q8 8 21 24.5t20 24.5q15 17 24 23t20.5 2.5t25.5 -21.5q5 -6 10.5 -14.5t12 -21.5t6 -23.5t-9.5 -14.5q-19 -8 -43.5 -16t-35.5 -13.5t-19 -13.5q-13 -13 -30 -55q-20 -52 -66 -11q-9 7 -19 19.5t-15.5 28t7.5 23.5zM150 431
q-26 -151 -6 -231q18 -67 61 -98q23 -16 48.5 -18.5t40.5 11.5q41 45 54 134.5t-12 162.5q-4 10 -10 23t-8 18t-1.5 12.5t7 13.5t19.5 14q78 42 87 8q0 -3 2 -8t2 -7q20 -8 19 -25q0 -15 -0.5 -41.5t-0.5 -38.5q4 -38 1 -82q3 -82 14 -116q2 -9 7 -17.5t16 -22t16 -21.5
q22 -27 20.5 -45t-34.5 -34q-8 -4 -19 -7.5t-27 -8t-27.5 -1t-13.5 14.5q-6 39 -9 64q-10 -14 -16 -19q-35 -37 -82 -52.5t-88 -2.5q-50 17 -92.5 69.5t-68.5 124.5q-5 13 -8.5 27t-6 31t-4 28.5t-2.5 32.5t-1.5 30t-1 33.5t-0.5 31.5q-2 34 8.5 46t42.5 11q14 -1 30 -4
t31.5 -14t12.5 -27z" />
    <glyph glyph-name="ucircumflex" unicode="&#xfb;" horiz-adv-x="516" 
d="M150 431q-26 -151 -6 -231q18 -67 61 -98q23 -16 48.5 -18.5t40.5 11.5q41 45 54 134.5t-12 162.5q-4 10 -10 23t-8 18t-1.5 12.5t7 13.5t19.5 14q78 42 87 8q0 -3 2 -8t2 -7q20 -8 19 -25q0 -15 -0.5 -41.5t-0.5 -38.5q4 -38 1 -82q3 -82 14 -116q2 -9 7 -17.5t16 -22
t16 -21.5q22 -27 20.5 -45t-34.5 -34q-8 -4 -19 -7.5t-27 -8t-27.5 -1t-13.5 14.5q-6 39 -9 64q-10 -14 -16 -19q-35 -37 -82 -52.5t-88 -2.5q-50 17 -92.5 69.5t-68.5 124.5q-5 13 -8.5 27t-6 31t-4 28.5t-2.5 32.5t-1.5 30t-1 33.5t-0.5 31.5q-2 34 8.5 46t42.5 11
q14 -1 30 -4t31.5 -14t12.5 -27zM330 740q6 -11 13.5 -27.5t11 -24t9.5 -17t12 -16.5q4 -4 13.5 -14t17 -19t13.5 -19q18 -26 16 -41.5t-32 -27.5q-7 -3 -17.5 -6t-24.5 -5.5t-24 1t-11 13.5q-1 13 -2 31.5t-1.5 26t-3.5 16t-8 14.5q-8 8 -22 14q-9 -7 -22.5 -16.5
t-22 -16.5t-15.5 -14q-20 -22 -32 -61q-17 -52 -65 -18q-19 13 -34.5 34.5t0.5 33.5q19 15 42 31t35.5 26t21.5 20q12 12 24 48q8 21 13.5 29t17.5 12t29 -8q37 22 48 1z" />
    <glyph glyph-name="udieresis" unicode="&#xfc;" horiz-adv-x="516" 
d="M150 431q-26 -151 -6 -231q18 -67 61 -98q23 -16 48.5 -18.5t40.5 11.5q41 45 54 134.5t-12 162.5q-4 10 -10 23t-8 18t-1.5 12.5t7 13.5t19.5 14q78 42 87 8q0 -3 2 -8t2 -7q20 -8 19 -25q0 -15 -0.5 -41.5t-0.5 -38.5q4 -38 1 -82q3 -82 14 -116q2 -9 7 -17.5t16 -22
t16 -21.5q22 -27 20.5 -45t-34.5 -34q-8 -4 -19 -7.5t-27 -8t-27.5 -1t-13.5 14.5q-6 39 -9 64q-10 -14 -16 -19q-35 -37 -82 -52.5t-88 -2.5q-50 17 -92.5 69.5t-68.5 124.5q-5 13 -8.5 27t-6 31t-4 28.5t-2.5 32.5t-1.5 30t-1 33.5t-0.5 31.5q-2 34 8.5 46t42.5 11
q14 -1 30 -4t31.5 -14t12.5 -27zM112 671q18 -4 30 -9t17 -7.5t8 -2.5q2 0 5.5 6.5t8.5 8.5q27 14 42 8t21 -38q2 -10 3.5 -26.5t-3.5 -33.5t-18 -15q-20 3 -34 8.5t-19.5 9t-8.5 3.5q-2 0 -3.5 -2.5t-6 -7.5t-12.5 -9q-24 -13 -38.5 -3t-18.5 39q-1 10 -1 27t7 32t21 12z
M297 669q18 -3 31 -7.5t18 -7t8 -1.5q2 0 5.5 6.5t8.5 8.5q26 15 41.5 10t22.5 -37q5 -9 4.5 -43t-18.5 -32q-21 2 -35.5 7t-20.5 8t-9 3q-2 0 -3.5 -3t-6 -7.5t-12.5 -9.5q-23 -15 -38 -5.5t-20 38.5q-1 10 -2 27t5.5 32t20.5 13z" />
    <glyph glyph-name="yacute" unicode="&#xfd;" horiz-adv-x="444" 
d="M132 471q25 -48 55.5 -118.5t43.5 -95.5q20 -38 52 -64q43 123 44 237q0 33 12.5 44t44.5 7q14 -2 30 -7.5t30 -18t9 -27.5q-16 -41 -62 -167.5t-74 -192.5q-11 -26 -27.5 -58.5t-26 -49.5t-35.5 -62t-31 -54q-12 -22 -16 -27.5t-13.5 -13.5t-19.5 -4.5t-26 13.5
q-7 4 -16 11t-21.5 19.5t-14.5 22.5t4 20q106 111 159 202q-21 31 -38 63t-32.5 68.5t-24.5 53.5q-37 70 -82 99q-28 17 -29.5 35t22.5 41q10 10 24 19.5t33 15t26 -10.5zM137 595q18 11 42.5 24.5t37.5 21.5t24 17q7 6 13.5 13.5t14.5 17.5t13 16q14 18 23 24.5t20.5 3.5
t26.5 -20q5 -5 11 -13.5t13.5 -22t7 -22.5t-8.5 -15q-22 -10 -47 -19.5t-39 -16t-23 -14.5q-16 -13 -36 -57q-21 -49 -67 -10q-9 9 -18 20.5t-15.5 28t7.5 23.5z" />
    <glyph glyph-name="thorn" unicode="&#xfe;" horiz-adv-x="542" 
d="M171 155q14 6 23 -4q53 -68 88 -82q25 -12 56 -9t54 21q52 40 79 105t14 126q-8 41 -49 74.5t-93 40.5q-73 12 -153 -74q-15 -15 -18 -17q0 -26 -0.5 -77.5t-0.5 -77.5v-26zM102 420q-3 141 -28 242q-8 28 -1 41t35 17q13 5 42.5 0t28.5 -25q-4 -159 -5 -234
q157 74 267 9q52 -30 81 -87t29.5 -117t-16.5 -119q-18 -54 -61.5 -98t-97.5 -63q-88 -31 -205 43q2 -98 11 -175q7 -32 2.5 -46.5t-35.5 -18.5q-9 0 -25.5 -1.5t-33 4.5t-15.5 19q29 353 28 506v56q-20 35 -1 47z" />
    <glyph glyph-name="ydieresis" unicode="&#xff;" horiz-adv-x="444" 
d="M132 471q25 -48 55.5 -118.5t43.5 -95.5q20 -38 52 -64q43 123 44 237q0 33 12.5 44t44.5 7q14 -2 30 -7.5t30 -18t9 -27.5q-16 -41 -62 -167.5t-74 -192.5q-11 -26 -27.5 -58.5t-26 -49.5t-35.5 -62t-31 -54q-12 -22 -16 -27.5t-13.5 -13.5t-19.5 -4.5t-26 13.5
q-7 4 -16 11t-21.5 19.5t-14.5 22.5t4 20q106 111 159 202q-21 31 -38 63t-32.5 68.5t-24.5 53.5q-37 70 -82 99q-28 17 -29.5 35t22.5 41q10 10 24 19.5t33 15t26 -10.5zM119 678q17 -3 30 -7t18.5 -6.5t9.5 -4t6 -1.5q1 0 5 6t9 8q28 13 43 6.5t20 -38.5q6 -79 -22 -74
q-13 3 -23.5 6t-15.5 6t-8.5 6t-5 4.5t-2.5 1.5q-2 0 -5 -2.5t-11 -7.5t-18 -10q-49 -26 -57 35q-4 22 1.5 48.5t25.5 23.5zM300 671q17 -5 29.5 -11t17.5 -8.5t9 -2.5q2 0 6 6t9 8q28 13 43.5 6.5t19.5 -38.5q6 -80 -22 -74q-20 4 -34.5 10t-20 10t-8.5 4q-2 0 -8 -6.5
t-17 -11.5q-25 -13 -39 -2t-16 40q-1 13 0.5 28t9 30t21.5 12z" />
    <glyph glyph-name="uni0E01" unicode="&#xe01;" horiz-adv-x="527" 
d="M47 368q100 159 212 179q75 14 145 -37.5t91 -120.5q44 -147 42 -358q-1 -25 -3 -35.5t-13 -16t-33 -2.5q-72 11 -65 41q17 72 20.5 149t-13 159t-55.5 135q-20 23 -60 21.5t-73 -21.5q-36 -22 -60 -58q23 -3 39.5 -12.5t11.5 -24.5q-43 -148 -49 -201q-6 -56 6 -112
q9 -30 4 -44.5t-36 -18.5q-7 -1 -18 -1.5t-25 0.5t-23 6.5t-8 15.5q6 48 20.5 116t18.5 95q6 54 5 83q-10 -1 -31 5q-12 4 -24.5 11.5t-23 21t-2.5 25.5z" />
    <glyph glyph-name="uni0E02" unicode="&#xe02;" horiz-adv-x="470" 
d="M368 435q0 26 -3 47q-6 33 -1.5 47t34.5 18q10 5 42.5 1.5t31.5 -22.5q-2 -25 6 -142.5t-2.5 -210t-52.5 -140.5q-18 -21 -58.5 -25t-82.5 6t-78.5 35.5t-46.5 59.5q-5 15 -5.5 30t3.5 30.5t9.5 29t15.5 29t18 27.5t22 27.5t22.5 25.5t23 25.5t21.5 22.5q17 18 16.5 49.5
t-18.5 53.5t-49 33.5t-55 3.5q-1 0 -1 -1q104 -80 75 -159q-14 -38 -61.5 -49.5t-98.5 10.5t-71 69q-16 38 5 88.5t61 80.5q36 27 84.5 32.5t88.5 -11.5q36 -15 65.5 -48t39.5 -73zM371 371q-6 -29 -24.5 -52t-50 -48.5t-38.5 -32.5q-12 -12 -16.5 -31.5t-6.5 -49.5t-8 -52
q-1 -3 2 -4t10.5 -0.5t19 2t28 2t38.5 -0.5q16 -1 32 -4q8 -2 9.5 -0.5t0.5 9.5q-2 16 -1 32q7 107 5 230zM106 417q-7 -32 5 -55q5 -13 29 -7.5t31 20.5q2 3 -4.5 9.5t-19.5 14.5t-29 14q-4 2 -12 4z" />
    <glyph glyph-name="uni0E03" unicode="&#xe03;" horiz-adv-x="464" 
d="M133 345q-4 2 -10 8q0 -1 0.5 -2.5t0.5 -2.5l2 -4l1 -1v-1l1 1q3 0 5 2zM155 420q26 -2 42 -12q24 -14 28 -38q6 -18 -3 -40q-6 -15 -17 -29q-25 -29 -58 -36q-46 -11 -79 23q-22 23 -27 70q-3 34 7 75q11 42 35 69q33 37 78 33q13 -1 25 -9q5 -3 15 -11h1q0 1 2 3
q14 18 29 24q38 17 85 -14q27 -17 37 -56q7 -27 4 -65q-1 -29 -9 -70q-10 -48 -15 -73q0 -1 -1 -2q-10 -52 -17 -90q-7 -40 -5 -69q2 -15 4 -19q0 -2 2 -4v-1h1q1 -1 3 -1q10 0 19 2q4 0 10 9q9 11 17 41q12 48 17 145q0 5 2 87l2 72q1 36 6 57q3 16 16.5 25.5t30.5 6.5
q17 -4 26 -17.5t5 -29.5q-5 -30 -6 -116q-2 -81 -2 -88q-5 -103 -20 -162q-9 -39 -27 -66q-25 -34 -60 -43q-59 -11 -92 18q-29 25 -34 77q-1 36 6 88q7 42 18 95l1 1q19 93 22 133q2 29 -2 40q-1 4 -3 8v1l-8 4q-2 -2 -3 -4q-2 -6 -4 -13q-2 -3 -4 -8.5t-4 -8.5
q-5 -9 -14 -16q-22 -15 -44 -3q-11 5 -21 17l-7 7l-2 2q-1 1 -1 2q-2 1 -4 3q-4 5 -9 10q-3 0 -6 -5q-10 -11 -18 -36v-4q12 12 30 11z" />
    <glyph glyph-name="uni0E04" unicode="&#xe04;" horiz-adv-x="537" 
d="M210 59q-2 -11 -2 -14l-2 -10q0 -1 -1 -4t-1 -4q-1 -1 -3 -5q-5 -8 -12 -13q-24 -17 -47 1q-5 4 -11 12q-1 1 -2 3.5t-1 3.5q-9 26 -25 113q-1 5 -3 13q-11 60 -16 75q-27 101 12 193q46 108 161 133q156 34 230 -80q28 -42 44 -110q12 -54 15 -122q2 -51 1 -145v-55
q0 -16 -11.5 -28t-28.5 -12t-28.5 11.5t-11.5 28.5v56q1 92 -1 140q-8 134 -46 192q-20 32 -52 44q-38 14 -94 2q-76 -18 -105 -87q-28 -63 -8 -140l7 -28q18 55 42 89q21 30 45 43q32 18 69 6q26 -9 46 -44q22 -37 15 -72q-15 -59 -57 -85q-27 -17 -60 -9q-17 3 -34 15
q-13 -53 -20 -89q-2 -12 -4 -18zM269 241q8 -8 12 -10t5 -2q0 -1 1 0q13 8 20 33v1q-1 1 -1 3q-3 8 -5 11l-6 9q-1 0 -1 -0.5t-1 -0.5q-8 -5 -17 -18q-6 -9 -12 -21q3 -2 5 -5z" />
    <glyph glyph-name="uni0E05" unicode="&#xe05;" horiz-adv-x="504" 
d="M262 256q-1 -2 -3.5 -6t-3.5 -6q4 -1 9 -1q0 4 -1 6q0 5 -1 7zM128 264q-5 -60 -2 -108l14 33q21 48 33 72q20 40 41 64q19 23 45 24t47 -18q28 -25 36 -67q5 -21 0 -41q-5 -25 -23 -42q-19 -18 -50 -18q-22 -1 -49 9q-1 -2 -3 -7t-3 -7q-11 -26 -14 -34q-29 -65 -47 -93
q-2 -2 -2 -3q-1 0 -2 -3l-5 -5l-4 -6l-2 -2q-11 -14 -29 -15.5t-31 11.5q-16 18 -22 49q-6 24 -9 59q-5 77 2 154q6 92 26 159q10 35 26 64q20 33 46 47q57 28 99 2q15 -8 31 -27q7 -9 13 -22q19 20 33 32q13 10 25 15q20 7 35 5q34 -3 62 -32q19 -20 35 -59q24 -61 31 -151
q7 -76 3 -156t-15 -123q-4 -16 -18 -25t-30 -4q-16 4 -25 18t-4 30q7 30 12 104q3 77 -3 149q-8 86 -26 129q-9 23 -19 33q-4 5 -9 7q-1 -1 -5 -3q-14 -14 -23 -24q-1 -2 -3.5 -4.5t-4.5 -5t-4 -5.5l-6 -6q0 -1 -2 -4l-2 -3q-3 -3 -6 -6.5t-4 -4.5q-4 -4 -6 -7
q-1 -1 -4 -2.5t-4 -2.5q-13 -7 -27 -4q-14 2 -27 15q-7 8 -10 15q-3 5 -9 20q-4 8 -8 18q-8 18 -16 22q-1 1 -4 1q-7 0 -19 -6q-1 0 -4 -4q-5 -3 -9 -12q-11 -21 -18 -46q-18 -56 -24 -142z" />
    <glyph glyph-name="uni0E06" unicode="&#xe06;" horiz-adv-x="560" 
d="M292 159q-21 -1 -36 -8q-11 -6 -16 -14q-10 -15 -2 -38t20 -28h1h1q1 0 1 1l7 7q15 23 24 80zM196 402q0 -2 8 -19q0 -1 2.5 -6t5 -10.5t3.5 -7.5q8 -17 9 -32q3 -33 -19 -61q-17 -22 -43 -17q-15 1 -28 13q-10 9 -22 29q-14 23 -22 45q-21 61 6 127q22 55 58 66
q30 10 61 -10q15 -10 33 -29l2 -2q2 3 6 7q13 13 25 22q21 16 38 20q34 8 57 -15q26 -26 29 -71q3 -30 -2 -74q-6 -32 -9 -52l-7 -33q-4 -20 -4 -22q-2 -9 -5 -43v-9q9 -6 17 -12q29 -22 59 -70q2 -3 6 -10t7 -12l2 -4q0 3 -2 59q-4 105 1 170q4 72 24 132q5 16 20 23t31 2
t23 -20t2 -31q-15 -48 -21 -112q-4 -62 0 -160q2 -41 2 -56v-47q-4 -30 -9 -43q-13 -32 -44 -36q-18 -4 -38 6q-14 9 -23 19q-12 15 -26 38l-11 20q-10 16 -12 20q-14 21 -20 27q-1 -8 -5 -24q-11 -42 -29 -65q-20 -28 -49 -37.5t-57 3.5q-46 21 -64 76q-19 58 11 107
q36 54 120 59h6q1 14 4 41q1 3 2.5 12l2.5 15q6 25 7 33q4 16 8 47q5 33 3 55q0 2 -0.5 4t-0.5 3q-6 -4 -12 -12l-19 -19q-15 -15 -23 -19q-13 -6 -26 -5q-11 2 -18 5q-7 5 -17 13q-1 1 -4.5 5t-6.5 7q-5 5 -5 6l-5 5l-12 12q-6 -12 -7 -15q0 -1 -1 -2.5t-1 -2.5
q22 -5 28 -26z" />
    <glyph glyph-name="uni0E07" unicode="&#xe07;" horiz-adv-x="345" 
d="M266 120q2 14 3 30q5 49 5 139q0 19 -1 28q-61 27 -88 65q-34 49 -14 100q16 43 56 62q20 10 42 10q29 -2 47 -20q13 -13 21 -45q6 -23 9 -55q4 -33 6 -74q6 -13 1 -29q0 -6 0.5 -20t0.5 -21q0 -94 -5 -147q-6 -75 -23 -102q-10 -16 -30 -21q-11 -2 -25 1q-17 5 -26 13
q-37 28 -110 98q-10 13 -30 30q-12 11 -30 29q-1 1 -4.5 4t-5.5 5l-3 3q-2 2 -3 2q-16 14 -25 25q-12 11 -12 28t12 28q11 12 28 12t28 -12q12 -12 23 -22l3 -2l3 -3q2 -2 6 -5.5t5 -4.5q7 -7 31 -29l30 -30q52 -50 75 -70zM259 471q-8 -5 -14 -17q-4 -14 5 -25q6 -9 18 -18
q0 3 -0.5 7t-0.5 7q-3 26 -8 45v1z" />
    <glyph glyph-name="uni0E08" unicode="&#xe08;" horiz-adv-x="435" 
d="M249 272q2 -1 11 -5t16 -7q-11 17 -23 31l-3 -15q0 -3 -1 -4zM276 174q-3 2 -25 10q-17 7 -31 13q-18 9 -33 21q-7 4 -12 15q-3 9 -3 10t-3 14q0 18 1 28q5 40 24 65q17 22 41 26.5t50 -10.5q36 -21 78 -94q9 104 -17 152q-17 30 -49 40q-45 13 -118 -6q-56 -14 -75 -91
q-5 -16 -19 -24.5t-30 -4.5t-24.5 18t-4.5 30q14 55 42 91q37 44 92 59q95 24 160 4q65 -19 97 -79q25 -47 28 -119q3 -55 -8 -132q-6 -38 -19 -104q-6 -33 -12 -59q0 -4 -4 -12q-5 -8 -11 -13q-11 -8 -26 -8q-13 2 -21 7l-8 8q-5 7 -5 8q-1 2 -5 12q0 1 -1 5t-2 7.5t-1 7.5
q-6 28 -6 37q-1 4 -1.5 12.5t-0.5 12.5v7q-1 19 -3 36q-17 -9 -35 0z" />
    <glyph glyph-name="uni0E09" unicode="&#xe09;" horiz-adv-x="549" 
d="M136 271l4 -2q16 -11 46 -11q-1 32 -9 55q-1 -1 -2 -1q-9 -6 -23 -20q-12 -12 -14 -17zM448 75q10 6 17 17q21 31 13 51q-2 5 -11 6q-10 4 -35 2q1 -37 9 -60q3 -10 7 -16zM37 444q65 73 137 101.5t137 7.5q65 -23 102 -87q38 -66 39 -155q0 -8 1 -17v-30q0 -22 -2 -32
q25 -2 37 -5q45 -12 62 -50q15 -31 7 -70q-6 -31 -25 -59q-21 -31 -47 -44q-38 -21 -72 -2q-51 26 -60 129q-19 -7 -37 -20q-1 0 -4 -3q-13 -15 -23 -32q-2 -3 -14 -24t-14 -24q-19 -27 -48 -15q-16 1 -27.5 12.5t-11.5 27.5q0 5 3 24q3 21 4 39q4 46 5 62q-55 0 -91 24
q-38 26 -39 67q0 41 39 80q42 42 79 46q47 4 71 -41q14 -26 19 -71q4 -36 3 -80q-1 -10 -1 -29q2 2 3 2q26 19 61 32q5 2 11 3.5t13 4t12 3.5q7 14 7 45v27q-1 10 -1 18q-1 68 -24.5 111.5t-61.5 56.5q-36 12 -83 -6q-54 -22 -107 -81q-11 -12 -27.5 -13t-29.5 10
q-12 11 -12.5 27.5t10.5 29.5z" />
    <glyph glyph-name="uni0E0A" unicode="&#xe0a;" horiz-adv-x="605" 
d="M311 339h-2q-2 1 -5.5 2t-5.5 1q-10 3 -19 12q-1 2 -3 4t-3 4q0 -9 -1 -14q-1 -25 -9 -87q0 -5 -1 -8q-11 -91 -11 -121q0 -29 2 -39q1 -6 3 -9q1 -1 5 -3q7 -1 18 -3q21 -3 39 0l3 3q6 10 12 25q13 41 13 95q0 60 -13 99q-8 29 -22 39zM373 391q7 -7 11 -14
q16 -22 25 -52q17 -51 17 -124q0 -67 -17 -120q-9 -29 -24 -48q-20 -26 -48 -32q-31 -6 -66 -3q-48 5 -72 29q-18 18 -24 51q-5 28 -4 56q1 47 12 128q0 2 0.5 5t0.5 4q3 31 6 54q-49 8 -78 31q-35 25 -38 63q-5 40 25 70q26 27 72 35q50 8 78 -28q19 -23 24 -69
q0 -3 0.5 -11t0.5 -12l2 4q1 1 2.5 3t2.5 3l11 11q5 5 31 29q12 11 42.5 37.5t51.5 45.5l1 1q113 99 129 115q12 12 28.5 12t28.5 -12t12 -28.5t-12 -28.5q-15 -15 -133 -119q-1 0 -2 -1q-68 -60 -92 -81zM187 445h-2q-23 -5 -30 -12q-2 -2 -2 -4t1 -3l7 -7q12 -10 33 -13
q0 2 -0.5 6.5t-0.5 6.5q-2 15 -4 20q0 3 -2 5v1z" />
    <glyph glyph-name="uni0E0B" unicode="&#xe0b;" horiz-adv-x="595" 
d="M435 378q-1 0 -3 1.5t-4 2.5h-1l-1 1l-2 1q-1 0 -2.5 1t-2.5 1q-18 9 -28 19q-8 8 -10 13q-1 -38 -12 -146q0 -2 -0.5 -6.5t-0.5 -7.5q-11 -107 -12 -116q-1 -25 -1 -56h13q3 0 19 2h8q3 1 7 1q6 1 14 1q0 8 -1 14v3q-1 12 -1 24q0 90 21 247zM192 405q14 -38 17 -60
q2 -16 -1 -27q-3 -19 -17 -30q-16 -14 -38 -11q-11 1 -25 10q-17 12 -29 32q-30 44 -27 98q5 69 68 113q25 16 44 19q25 3 46 -10q15 -9 26 -27v-1q2 2 5.5 6t5.5 6q16 16 35 22q20 4 34 -3q18 -7 29 -25q7 -13 10 -29q2 -6 4 -22q11 21 64 92l4 4q28 35 36 47l16 20t8 11
l14 22q8 14 11 18q9 14 25 17.5t30 -5.5t17.5 -25.5t-5.5 -29.5l-10 -16q-15 -24 -17 -27q-14 -20 -25 -34q-1 -1 -8.5 -10.5t-16.5 -21t-12 -15.5q0 -1 -1 -2l-2 -2q-24 -31 -39 -51q0 -1 -1 -2.5t-2 -2.5q22 -12 29 -18q11 -10 17 -21q7 -16 6 -34q-23 -157 -23 -249
q0 -8 1 -18v-3q3 -29 -2 -46q-8 -39 -48 -50q-6 -2 -11 -2q-10 -2 -17 -2q-2 0 -21 -2q-18 -2 -23 -2q-25 -1 -46 3q-13 3 -27 13q-15 12 -20 32q-8 27 -3 93q3 40 11 119q0 3 0.5 7.5t1.5 7.5q10 97 11 146v3q-7 -14 -15 -21q-4 -5 -14 -11q-13 -6 -26 -5q-14 1 -24 9
q-8 8 -11 12q-2 4 -9 19q-1 2 -4.5 12t-4.5 12t-2.5 5.5t-1.5 4.5q-2 -2 -4 -3q-21 -14 -29 -33q27 -2 36 -26z" />
    <glyph glyph-name="uni0E0C" unicode="&#xe0c;" horiz-adv-x="701" 
d="M198 138q3 -26 12 -43q7 -7 11 -7q6 -1 16 2q10 4 17 13q2 2 4 6l1 2v1l-2 2q-11 8 -39 14q-11 1 -20 10zM435 101q3 15 4 21v6q-5 -9 -6 -18q0 -2 1 -4q0 -3 1 -5zM77 387q24 50 70.5 93.5t102.5 67.5q65 27 122 21q70 -8 118 -56q40 -41 49 -120q5 -47 -1 -113
q-2 -19 -3 -34q-1 -5 -1 -10q0 -2 -1 -7t-1 -7h1q31 -16 71 -56l14 -14q1 12 1 36q0 46 6 140v13q7 105 7 149q0 16 12 28t28 12t28 -12t12 -28q0 -48 -7 -154q0 -10 -1 -13q-5 -103 -5 -135q0 -54 -6 -103q-2 -17 -9 -27q-13 -19 -36 -21q-17 0 -28 7q-10 5 -16 11
q-8 6 -27 25l-14 14l-15 15q-11 11 -27 25q-3 -20 -3 -23q-8 -47 -22 -73q-22 -38 -59 -38q-31 1 -53 28q-37 44 -30 93q6 39 32 70t63 43h3l1 1q0 1 0.5 4t0.5 4q0 5 1 10q1 11 3 35q6 51 1 97q-5 51 -26 71q-59 59 -151 18q-47 -19 -88 -60q27 -5 37 -32q4 -15 3 -32
q-3 -18 -12 -54q0 -1 -1.5 -6t-2.5 -8q-5 -12 -9 -29q-3 -6 -3 -10q0 -1 -0.5 -2.5t-1.5 -2.5q-4 -28 -5 -40q15 12 33 9q49 -9 76 -32q31 -27 31 -65q-1 -30 -21 -55.5t-50 -37.5q-32 -15 -66.5 -7t-56.5 39q-44 64 -19 203q1 8 6 25q5 11 9 29q2 5 4 13l-2 1q-21 7 -29 9
l-1 1h-1q-9 0 -16 4q-15 7 -20.5 22.5t1.5 30.5z" />
    <glyph glyph-name="uni0E0D" unicode="&#xe0d;" horiz-adv-x="692" 
d="M222 80q4 0 8 3q12 5 17 17q1 4 -1 6q-4 5 -16 10q-16 7 -37 10q9 -33 29 -46zM493 -91q-5 -9 -6 -15l2 2q2 2 5.5 6.5t5.5 6.5h-7zM480 -191q-1 0 -3.5 0.5t-3.5 0.5q-30 5 -48 23q-22 24 -19 56q0 26 17 60q16 31 54 38q25 6 53 -2q28 -7 43 -19q13 -9 20 -21
q7 -13 6 -27q26 13 35 22q12 12 28.5 12t28.5 -12q12 -11 12 -28t-12 -28q-24 -24 -74.5 -46t-95.5 -28q-4 0 -6 -1q-17 -8 -35 0zM197 206q75 -9 109 -46q35 -39 15 -91q-15 -36 -55 -58q-47 -24 -86 1q-50 32 -65 96q-11 47 -5 114q4 46 18 104q1 3 2.5 8.5t1.5 7.5
q-28 10 -43 21q-32 22 -36 55q-5 33 18 65q18 27 53 53q30 23 77 29q28 4 71 4q112 0 156 -103q17 -39 21 -91q5 -35 5 -96q-1 -10 -1.5 -31t-0.5 -32q-2 -82 -1 -94q1 -24 5 -42q16 -2 42 0q53 4 79 11q5 2 6 4q4 3 6 13q6 22 3 69q0 8 -1 16q-2 38 -2 40q0 17 2 41
q10 64 10 186v15v16q0 17 11.5 28.5t27.5 11.5q17 0 29 -11.5t12 -28.5v-16v-15q0 -42 -2 -98q-1 -49 -8 -99q-3 -18 0 -66q0 -4 0.5 -9t0.5 -7q3 -59 -5 -92q-16 -61 -71 -76q-36 -10 -93 -13q-36 -2 -56 1q-16 1 -28 6q-22 10 -31 27q-14 29 -17 85q-1 14 1 99
q0 10 0.5 30.5t1.5 30.5q0 109 -20 156q-22 54 -82 54q-35 0 -59 -3q-29 -5 -41 -14q-27 -21 -35 -34q-4 -6 -4 -8l2 -2q11 -8 33 -12q1 0 2 -1h1h1q2 0 5 -0.5t4 -0.5q7 -2 15 -6q30 -17 22 -51q0 -8 -6 -23q-4 -18 -6 -26q-14 -59 -16 -94q-1 -3 -1 -8h8z" />
    <glyph glyph-name="uni0E0E" unicode="&#xe0e;" horiz-adv-x="508" 
d="M128 106q3 3 11 15q1 3 4 8t5 8h-2q-18 2 -20 2v-1q-1 -15 2 -32zM187 -144l1 -1q14 -18 25 -20q5 -2 11 2q17 9 48 52q-26 0 -53 -11q-25 -10 -32 -22zM189 410h2h1q21 1 34 0q17 -3 26.5 -16.5t7.5 -29.5q0 -4 -2 -10v-54q0 -53 -10 -111q-12 -63 -41 -111
q-17 -27 -37 -44q-24 -19 -49 -19q-26 0 -46 22q-12 12 -20 35q-12 34 -9 73q3 22 9 36q14 27 38 34q20 4 33 4q1 0 27 -2q9 -1 18 -1q7 46 7 84v29q-7 0 -19 2q-33 7 -47 34q-15 28 -4 61q7 23 30 46q35 35 98 59t121 22q74 -3 110 -46q26 -31 38 -72q9 -35 12 -77
q2 -42 1 -76v-20v-37q0 -113 -1 -158q-3 -148 -25 -258q-1 -6 -2 -9q-2 -12 -3 -17q-1 -1 -1 -4t-1 -5q-1 -3 -4 -15q-2 -6 -4 -9q-1 -3 -5 -9q-7 -7 -9 -8q-11 -7 -23 -7q-21 0 -33 17q-2 4 -3 5q0 1 -1 2.5t-1 2.5q-2 4 -3 7l-3 9v1q-1 2 -1 3q-1 1 -1 3q-1 1 -1 2v1
q-1 3 -3 8t-3 7q0 1 -1 2v2q-22 36 -41 56q-17 -24 -35 -46q-23 -28 -48 -41q-33 -19 -70 -10q-35 10 -66 47q-38 46 -7 95q20 32 69 53q42 16 89 18q23 0 46 -6q5 8 13 14q11 12 27.5 12t28.5 -12q12 -11 12 -27.5t-12 -28.5q0 -1 -1 -1q18 -18 33 -37q10 78 13 185
q1 44 1 156v37v20q1 32 -1 71q-5 72 -30 102q-15 17 -55.5 17.5t-87.5 -16.5q-46 -17 -70 -41z" />
    <glyph glyph-name="uni0E0F" unicode="&#xe0f;" horiz-adv-x="536" 
d="M146 109v-3q0 -22 7 -33q1 -2 3 -2q4 -1 14 5t22 27q5 10 8 23q-12 -4 -22 -7q-22 -6 -32 -10zM100 -200q12 10 21 19q6 6 16 21q3 6 6 9q-14 -3 -25 -14q-15 -17 -18 -35zM201 390h2h25q20 -2 25 -3q15 -6 24 -19q4 -5 8 -17t6 -29q2 -26 0 -65q-2 -26 -3 -41
q0 -2 -0.5 -7.5t-0.5 -9.5l-1 -1v-3v-3v-7q-1 -8 -1 -14q0 -60 -22 -104q-18 -37 -49 -58t-65 -18q-38 3 -62 37q-21 32 -21 77v1v1v6v8v12v6q0 4 1 6q0 3 3 8q5 13 20 20q25 10 65 23q17 5 29 9q14 4 23 1q0 3 0.5 8.5t0.5 7.5q2 21 3 39q1 30 0 49h-7h-20q-32 0 -43 1
q-13 2 -20 4q-6 2 -16 8q-17 14 -17 34q0 10 5 22q4 6 6 10q6 8 12 14l3 3q0 1 9 10l2 2q27 46 69.5 77.5t92.5 42.5q114 22 198 -62q21 -21 35 -73q10 -37 18 -93q13 -106 6 -166q-6 -48 -14 -168q-1 -16 -1 -21q-6 -101 -9 -124q-4 -39 -5 -44q-1 -2 -2.5 -8.5t-2.5 -9.5
q0 -2 -5 -11q-9 -14 -23 -18q-23 -8 -43 3q-7 4 -20 15l-4 4q-11 12 -21 34q-1 3 -6.5 15t-7.5 16q-11 -35 -19 -53q-8 -16 -18 -26q-8 -8 -19 -12q-15 -6 -31 -1q-29 11 -49 32q-13 15 -27 36q0 1 -1 3l-2 2q-1 1 -1 2q-1 -1 -9 -13v-1q-15 -22 -26 -34q-30 -29 -53 -40
q-31 -16 -58 -8q-31 9 -42 39q-9 21 -6 47q5 51 41 90q46 47 111 40q11 -1 31 -7q4 5 14 15q24 24 54 40q15 8 30.5 2.5t23.5 -20.5t2.5 -30.5t-20.5 -23.5q-18 -8 -41 -32q7 -8 16 -22l3 -5q8 -13 13 -18q6 17 7 23q1 4 7 23t7 23q3 8 7 20q1 2 3 5.5t3 5.5l9 9q10 9 26 9
q21 0 38 -13q11 -7 21 -22q10 -13 19 -32q1 7 5 80l2 21q8 137 14 174q6 49 -7 145q-6 50 -15 82q-4 17 -9 28l-4 8l-2 2q-53 53 -125 39q-63 -13 -102 -69z" />
    <glyph glyph-name="uni0E10" unicode="&#xe10;" horiz-adv-x="503" 
d="M202 216l36 -16l32 -14q12 -5 19 -18q-1 2 -2 5t-2 4q-17 38 -36 49q-17 10 -47 -4v-5v-1zM236 114q-4 2 -13 5.5t-16 6.5q-46 19 -67 34q-20 13 -20 38q0 2 0.5 5t0.5 5q1 2 1 5h1l-1 1v3v13q2 16 3 18q6 21 26 37q6 5 15 9q66 33 123 1q25 -14 47 -45q-4 29 -8 42l-1 1
q-1 1 -1 2q-3 3 -13 9q-22 12 -53 19q-56 16 -105 16h-4q-1 0 -3 -1h-2q-5 0 -7 -1q-8 0 -12 -1h-27q-8 0 -17 3q-11 3 -17 10q-15 15 -12 36q4 28 16 44q6 6 6 8q1 1 2.5 3t2.5 3q1 3 5 9.5t8.5 13t5.5 8.5q29 46 44 64q45 57 113 35q18 -6 43 -22q10 -7 32 -26l1 -1
q27 -24 43 -30q1 0 1 1q5 1 19 10q2 1 3 2q19 11 36 17q31 8 57 -5q15 -7 20.5 -23t-2.5 -31q-7 -15 -23 -20.5t-30 2.5q-3 -1 -16 -9q-1 0 -3 -2q-21 -12 -35 -17q-29 -11 -56 1q-17 6 -37 20q-22 18 -29 23q0 1 -1 1q-30 26 -48 33q-15 4 -25 -9q-18 -20 -39 -56
q0 -1 -1.5 -3t-3.5 -5t-3 -5q54 -2 121 -18q48 -14 70 -27q42 -23 53 -56q14 -40 12 -93q0 -38 -7 -93q0 -2 -1 -8.5t-2 -12.5q-9 -72 -9 -104q0 -17 -11.5 -28.5t-28.5 -11.5t-28.5 11.5t-11.5 28.5q0 82 -25 152q3 -13 -3 -27q-7 -14 -22.5 -19.5t-30.5 1.5zM422 -104
q-7 23 -11 36q-1 4 -3 10q-10 37 -10 50q0 6 1 9q0 6 5 16q7 14 23 19t30 -1q10 -5 19 -14q6 -8 10 -14q28 -43 19 -115q-4 -36 -22 -91v-1v-1v-2q-1 -2 -1 -5q-1 -11 -7 -21q-12 -25 -40 -25q-21 0 -40 9q-9 4 -18 13q-3 2 -4 3q-6 4 -14 10q-1 -4 -4 -8q-6 -12 -17 -19
q-16 -10 -35 -5q-11 3 -20 10q-5 4 -16 19q-6 10 -10 18q-1 1 -1 2q-4 7 -8 13q0 1 -1 2t-1 2l-1 1q-15 16 -28 28q-38 -20 -54 -25q-20 -7 -33 -8q-12 0 -22 3q-16 5 -25 17q-26 36 -7 74q15 34 56 45q37 10 83 -10l6 -3q16 10 31 19q27 15 31 17q15 7 30.5 2t23.5 -19
q7 -15 1.5 -30.5t-19.5 -23.5q-6 -3 -26 -15l-1 -1q-2 0 -2 -1q10 -10 15 -16q1 -1 2 -2.5t2 -2.5q1 1 3.5 3t3.5 3q12 8 29 8q12 -2 21 -6q5 -2 26 -16q1 0 6 -4t6 -5q6 -4 8 -6q9 27 12 50q0 3 -2 5z" />
    <glyph glyph-name="uni0E11" unicode="&#xe11;" horiz-adv-x="687" 
d="M138 353h-1v-1q1 0 1 1zM580 457l-2 -2q-16 -7 -42 -39q-51 -67 -99 -186q-47 -115 -50 -183q-2 -16 -13 -26.5t-27 -10.5h-3q-16 2 -26.5 13t-10.5 27v3q0 12 1 22.5t1 16.5q5 57 6 95q8 131 5 222q-3 47 -8 67q-2 -2 -4 -6t-3 -5q-8 -15 -18 -25q-16 -16 -33 -19
q-25 -4 -43 15q-8 10 -12 20l-8 16l-1 1v2q0 -1 -2 -1t-2 -1q-14 -8 -39 -32q0 -1 -1 -2t-3 -5v-1q19 -2 40 -7q19 -6 30 -23q7 -13 8 -25q2 -21 -4 -41t-17 -38q-19 -26 -44 -30q-50 -8 -80 30q-20 27 -23 70q-2 37 8.5 73t29.5 55q61 63 108 60q27 -2 46 -22q1 -1 3 -3.5
t3 -3.5q3 3 8 8.5t7 8.5q15 15 27 20q26 14 52 2q20 -11 30 -31q10 -19 13 -35q10 -37 11 -88q2 -20 2 -68q36 72 72 120q35 44 69 62q52 26 92 -11q59 -56 59 -280q0 -19 2 -49q2 -42 2 -48q0 -44 -3 -63q-3 -31 -16 -61q-8 -14 -23.5 -19.5t-30.5 1.5t-20.5 23t2.5 31
q12 25 11 87q0 3 -2 45q-2 32 -2 53q0 104 -12 164q-9 45 -21 57z" />
    <glyph glyph-name="quoteleft" unicode="&#x2018;" horiz-adv-x="163" 
d="M60 601q53 -3 88.5 -37t20.5 -71q-11 -26 -45 -38.5t-71 -3.5t-55 37q-25 48 -5 104.5t69 98.5q17 16 29 15t23 -22q22 -50 2 -55q-37 -10 -56 -28zM38 530q15 -42 54 -44q13 -1 23.5 16.5t6.5 31.5q-1 7 -15 6.5t-33 -9.5q-25 -12 -36 -1z" />
    <glyph glyph-name="quoteright" unicode="&#x2019;" horiz-adv-x="178" 
d="M183 538q7 -40 -14 -40h-1q-17 -36 -50 -71q-31 -33 -52 4q-4 6 -8 16t-6 23.5t8 15.5q26 9 41 20q-72 22 -90 76q-10 27 12.5 59.5t55.5 41.5q28 8 58.5 -4.5t39.5 -35.5q20 -51 6 -105zM139 571q2 26 -13 47t-35 17q-19 -4 -26.5 -21.5t3.5 -28.5q27 -30 68 -15h1
q1 1 2 1z" />
    <glyph glyph-name="quotedblleft" unicode="&#x201c;" horiz-adv-x="328" 
d="M258 596q41 -17 65.5 -47t10.5 -57q-12 -23 -43.5 -29.5t-62.5 8.5t-41 46q-21 69 55 164q15 18 25 20t26 -16q5 -6 10.5 -15t9.5 -22t-6 -16q-36 -18 -49 -36zM240 525q3 -22 16 -25q7 -1 14.5 2.5t12 8t3.5 7.5q-5 7 -45 7h-1zM80 595q40 -19 62 -51.5t7 -59.5
q-14 -25 -46.5 -33t-64.5 5.5t-42 46.5q-7 25 1.5 57.5t20 53t32.5 54.5q13 21 21 24.5t28 -9.5q42 -36 25 -49q-32 -25 -44 -39zM50 527q-4 -41 14 -43q12 -1 24.5 9.5t13.5 20.5q2 9 -42 12q-7 0 -10 1z" />
    <glyph glyph-name="quotedblright" unicode="&#x201d;" horiz-adv-x="342" 
d="M87 543q-40 20 -62 52.5t-6 58.5q14 25 46.5 33t64.5 -5.5t41 -46.5q7 -25 -1.5 -57.5t-20 -53.5t-33.5 -54q-13 -21 -21 -24.5t-28 10.5q-40 35 -24 48q30 25 44 39zM117 611q4 41 -13 43q-12 2 -25 -8.5t-14 -21.5q0 -9 42 -12q7 0 10 -1zM275 547q-40 20 -63.5 50.5
t-8.5 56.5q13 23 44.5 28t62 -11t39.5 -47q18 -69 -61 -162q-16 -18 -26.5 -19.5t-25.5 17.5q-29 46 -11 53q35 16 50 34zM296 617q-3 24 -15 27q-7 2 -15 -1.5t-12.5 -8t-3.5 -7.5q3 -7 45 -10h1z" />
    <glyph glyph-name="Euro" unicode="&#x20ac;" horiz-adv-x="562" 
d="M471 523q-19 40 -39 60t-57 26q-38 6 -71 -6t-51 -40q-27 -43 -43 -105q54 1 110 0q15 0 22 -1t16 -3.5t10.5 -7.5t4.5 -14t-1 -23q-1 -8 -3.5 -17.5t-7.5 -23.5t-13 -21t-17 -3q-87 36 -132 42q-3 -31 -1 -72q46 1 100 14q30 10 44.5 4.5t18.5 -36.5q1 -8 1.5 -18.5
t-0.5 -25t-6.5 -23t-15.5 -7.5q-31 4 -76 11.5t-59 9.5q8 -56 30 -100t50 -63q37 -26 159 44q4 2 13.5 7.5t12 7t9 4t9 2.5t7.5 -0.5t8 -4t7 -8.5t8 -12q6 -9 12 -22.5t9 -32t-11 -21.5q-11 -4 -47.5 -20.5t-68.5 -27t-65 -11.5q-57 -3 -103 28.5t-67 81.5q-30 68 -42 151
q-51 -2 -97 -17q-51 -18 -55 38q-2 22 4 47.5t26 22.5q95 -17 116 -19q-1 33 0 66q-39 -6 -83 -25q-49 -22 -58 33q-5 14 -0.5 44t24.5 28q64 -5 125 -7l3 15q14 71 53 129t93 77q66 23 139.5 -1t128.5 -80q21 -21 19 -36t-26 -31q-11 -7 -24 -13t-29.5 -6.5t-22.5 12.5z
" />
    <glyph glyph-name="uni3000" unicode="&#x3000;" horiz-adv-x="1000" 
 />
  </font>
</defs>
</svg>
